<?xml version="1.0" encoding="UTF-8"?>
<svg width="20px" height="20px" viewBox="0 0 20 20" version="1.1" xmlns="http://www.w3.org/2000/svg" xmlns:xlink="http://www.w3.org/1999/xlink">
    <!-- Generator: Sketch 52.5 (67469) - http://www.bohemiancoding.com/sketch -->
    <title>ico_gxzy</title>
    <desc>Created with Sketch.</desc>
    <g id="Page-1" stroke="none" stroke-width="1" fill="none" fill-rule="evenodd">
        <g id="03文件" transform="translate(-376.000000, -160.000000)">
            <g id="item_01">
                <g id="object-1" transform="translate(360.000000, 138.000000)">
                    <g id="ico_gxzy" transform="translate(16.000000, 22.000000)">
                        <path d="M7.69214286,8.96214286 C7.91214286,9.53571429 7.91214286,10.465 7.69214286,11.0378571 L4.68571429,18.8557143 C4.465,19.4285714 4.10857143,19.4285714 3.88714286,18.8557143 L0.88,11.0378571 C0.659285714,10.4642857 0.659285714,9.535 0.88,8.96214286 L3.88714286,1.14428571 C4.10857143,0.571428571 4.465,0.571428571 4.68571429,1.14428571 L7.69214286,8.96214286 Z" id="路径" fill="#86DBA2"></path>
                        <path d="M4.28642857,20 C4.06857143,20 3.53,19.9135714 3.22071429,19.1135714 L0.213571429,11.2942857 C-0.0707142857,10.5564286 -0.0707142857,9.44357143 0.213571429,8.705 L3.22071429,0.887142857 C3.53,0.0864285714 4.06928571,0 4.28642857,0 C4.50357143,0 5.04357143,0.0864285714 5.35142857,0.887142857 L8.35785714,8.70571429 C8.64142857,9.44357143 8.64142857,10.5564286 8.35785714,11.2942857 L5.35214286,19.1121429 C5.04428571,19.9135714 4.50428571,20 4.28642857,20 Z M4.28571429,2.09571429 L1.54642857,9.21857143 C1.38928571,9.62785714 1.38928571,10.3728571 1.54642857,10.7814286 L4.28571429,17.9042857 L7.025,10.7814286 C7.18214286,10.3728571 7.18214286,9.62714286 7.025,9.21785714 L4.28571429,2.09571429 Z" id="形状" fill="#00AA71" fill-rule="nonzero"></path>
                        <path d="M15,14.4757143 L6.71857143,14.4757143 C6.32408232,14.4757143 6.00428571,14.1559177 6.00428571,13.7614286 C6.00428571,13.3669395 6.32408232,13.0471429 6.71857143,13.0471429 L15,13.0471429 C15.3944891,13.0471429 15.7142857,13.3669395 15.7142857,13.7614286 C15.7142857,14.1559177 15.3944891,14.4757143 15,14.4757143 Z" id="路径" fill="#00AA71"></path>
                        <path d="M13.6692857,15.9042857 C13.3800917,15.9049245 13.1191086,15.7309519 13.0084469,15.4637674 C12.8977852,15.1965829 12.9593302,14.8890265 13.1642857,14.685 L14.0878571,13.7614286 L13.1642857,12.8378571 C12.9838666,12.657438 12.9134049,12.3944714 12.9794428,12.1480143 C13.0454808,11.9015572 13.2379858,11.7090523 13.4844429,11.6430143 C13.7309,11.5769763 13.9938666,11.647438 14.1742857,11.8278571 L15.6028571,13.2564286 C15.7369403,13.3902839 15.8122865,13.5719674 15.8122865,13.7614286 C15.8122865,13.9508897 15.7369403,14.1325733 15.6028571,14.2664286 L14.1742857,15.695 C14.0404068,15.8290304 13.8587262,15.9043238 13.6692857,15.9042857 Z M15,7.13928571 L6.99142857,7.13928571 C6.59693946,7.13928571 6.27714286,6.81948911 6.27714286,6.425 C6.27714286,6.03051089 6.59693946,5.71071429 6.99142857,5.71071429 L15,5.71071429 C15.3944891,5.71071429 15.7142857,6.03051089 15.7142857,6.425 C15.7142857,6.81948911 15.3944891,7.13928571 15,7.13928571 Z" id="形状" fill="#00AA71" fill-rule="nonzero"></path>
                        <path d="M13.6692857,8.56785714 C13.3800917,8.56849596 13.1191086,8.39452331 13.0084469,8.1273388 C12.8977852,7.86015429 12.9593302,7.55259792 13.1642857,7.34857143 L14.0878571,6.425 L13.1642857,5.50142857 C12.9838666,5.32100945 12.9134049,5.05804285 12.9794429,4.81158574 C13.0454809,4.56512863 13.2379858,4.37262372 13.4844429,4.30658573 C13.7309,4.24054775 13.9938666,4.31100944 14.1742857,4.49142857 L15.6028571,5.92 C15.7369403,6.05385531 15.8122865,6.23553885 15.8122865,6.425 C15.8122865,6.61446115 15.7369403,6.79614469 15.6028571,6.93 L14.1742857,8.35857143 C14.0404068,8.49260184 13.8587262,8.56789523 13.6692857,8.56785714 Z" id="路径" fill="#00AA71"></path>
                        <path d="M15.715,20 C15.4971429,20 14.9578571,19.9128571 14.6492857,19.1135714 L13.975,17.3607143 C13.8757739,17.1209721 13.9143576,16.8462759 14.0757892,16.6431454 C14.2372208,16.440015 14.4961098,16.3403997 14.7520659,16.3829275 C15.008022,16.4254554 15.2207873,16.6034375 15.3078571,16.8478571 L15.7142857,17.9042857 L18.4535714,10.7814286 C18.6107143,10.3728571 18.6107143,9.62714286 18.4535714,9.21785714 L15.7142857,2.09571429 L15.2471429,3.31 C15.0989511,3.66804928 14.6922993,3.84263565 14.3306432,3.70347753 C13.9689872,3.56431941 13.7842489,3.16217781 13.9142857,2.79714286 L14.6485714,0.887857143 C14.9585714,0.0871428571 15.4971429,0 15.715,0 L15.7157143,0 C15.9328571,0 16.4721429,0.0871428571 16.78,0.887142857 L19.7871429,8.70571429 C20.07,9.44357143 20.07,10.5564286 19.7871429,11.2942857 L16.7807143,19.1128571 C16.4728571,19.9128571 15.9335714,20 15.715,20 C15.7157143,20 15.715,20 15.715,20 Z" id="路径" fill="#00AA71"></path>
                        <path d="M12.2742857,11.6192857 C11.9685714,11.6192857 11.6864286,11.4214286 11.5914286,11.1142857 C11.4128571,10.5321429 11.3878571,9.77214286 11.5271429,9.13071429 C11.6105773,8.7451012 11.9908155,8.50013701 12.3764286,8.58357145 C12.7620417,8.6670059 13.0070059,9.04724405 12.9235714,9.43285714 C12.8357143,9.83642857 12.8492857,10.3435714 12.9571429,10.6942857 C13.0237394,10.9110305 12.9835809,11.1465162 12.8489126,11.3289383 C12.7142442,11.5113604 12.5010308,11.6190928 12.2742857,11.6192857 Z" id="路径" fill="#00AA71"></path>
                    </g>
                </g>
            </g>
        </g>
    </g>
</svg>
