<svg width="23.415039" height="24.151154" viewBox="0 0 23.415 24.1512" fill="none" xmlns="http://www.w3.org/2000/svg" xmlns:xlink="http://www.w3.org/1999/xlink">
	<desc>
			Created with Pixso.
	</desc>
	<path d="M21.708 12.2934C21.585 12.1653 21.4209 12.097 21.2412 12.097C21.0664 12.097 20.8975 12.171 20.7734 12.2934L19.5801 13.5009L22.0967 16.0438L23.2207 14.7624C23.3467 14.6371 23.415 14.4662 23.415 14.2925C23.415 14.1159 23.3418 13.9451 23.2207 13.8226L21.708 12.2934ZM13.4785 9.60239L6.21387 9.60239C5.41699 9.60239 4.77246 8.95026 4.77246 8.14722C4.77246 7.34131 5.41699 6.69205 6.21387 6.69205L13.4785 6.69205C14.2754 6.69205 14.9199 7.34418 14.9199 8.14722C14.9199 8.95309 14.2754 9.60239 13.4785 9.60239ZM10.5586 15.4572L6.21387 15.4572C5.41699 15.4572 4.77246 14.8051 4.77246 14.002C4.77246 13.1961 5.41699 12.5469 6.21387 12.5469L10.5586 12.5469C11.3555 12.5469 12 13.199 12 14.002C12 14.8079 11.3555 15.4572 10.5586 15.4572ZM16.792 0L3.5 0C1.56836 0 0 1.58331 0 3.5368L0 20.6143C0 22.5679 1.56836 24.1512 3.5 24.1512L8.33398 24.1512L8.33398 20.9817L20.2949 8.61707L20.2949 3.53967C20.2949 1.58615 18.7266 0 16.792 0ZM11.4902 21.6082L11.4902 24.1512L14.0137 24.1512L21.3027 16.7073L18.7861 14.1587L11.4902 21.6082Z" fill-rule="evenodd" fill="#FFFFFF"/>
	<defs/>
</svg>
