<svg width="20.908203" height="23.540527" viewBox="0 0 20.9082 23.5405" fill="none" xmlns="http://www.w3.org/2000/svg" xmlns:xlink="http://www.w3.org/1999/xlink">
	<desc>
			Created with Pixso.
	</desc>
	<path d="M8.12988 14.1243L8.12988 11.2796C6.07812 10.3692 4.64551 8.29309 4.64551 5.88513C4.64551 2.63483 7.25098 0 10.4531 0C13.6602 0 16.2598 2.6405 16.2598 5.88513C16.2598 8.29874 14.8242 10.372 12.7754 11.2796L12.7754 14.1243L17.998 14.1243C19.6045 14.1243 20.9053 15.4318 20.9053 17.0683L20.9053 20.0123L0 20.0123L0 17.0683C0 15.4431 1.30664 14.1243 2.9082 14.1243L8.12988 14.1243ZM0 21.1865L20.9082 21.1865L20.9082 23.5405L0 23.5405L0 21.1865Z" fill-rule="evenodd" fill="#FFFFFF"/>
	<defs/>
</svg>
