<svg width="234.000000" height="144.000000" viewBox="0 0 234 144" fill="none" xmlns="http://www.w3.org/2000/svg" xmlns:xlink="http://www.w3.org/1999/xlink">
	<desc>
			Created with Pixso.
	</desc>
	<path d="M27.3691 144L0 72.4419L27.3691 1.52588e-05L206.813 0L234 72.442L206.813 144L27.3691 144Z" fill-rule="evenodd" fill="#FFFFFF"/>
	<path d="M27.3691 144L0 72.4419L27.3691 1.52588e-05L206.813 0L234 72.442L206.813 144L27.3691 144ZM28.0576 142.999L206.123 142.999L232.931 72.4398L206.12 1.0005L28.0605 1.00052L1.07031 72.4398L28.0576 142.999Z" fill-rule="evenodd" fill="#DFDFDF"/>
	<path d="M39.415 62.3721L41.624 62.3721L41.624 63.1895L36.0078 63.1895L36.0078 62.3721L38.4922 62.3721C38.3604 61.9766 38.167 61.5078 38 61.1357L38.7793 60.9072C39.0312 61.376 39.2715 61.9648 39.415 62.3721ZM74.4208 63.6201C74.0956 63.0312 73.3632 62.0732 72.7509 61.376L73.4364 60.9453C74.0487 61.6045 74.7928 62.5273 75.1532 63.1045L74.4208 63.6201ZM75.4989 61.3994L82.0878 61.3994L82.0878 70.7363C82.0878 71.3369 81.9325 71.6006 81.5253 71.7559C81.1034 71.8994 80.371 71.9111 79.2313 71.8994C79.1844 71.6592 79.0526 71.2754 78.9091 71.0352C79.785 71.0732 80.6376 71.0732 80.8895 71.0469C81.1151 71.0352 81.2001 70.9648 81.2001 70.7363L81.2001 62.252L75.4989 62.252L75.4989 61.3994ZM45.585 61.6045L45.7285 61.5547L46.3408 61.9648C45.9072 63.0547 45.3564 64.4229 44.8525 65.5273C45.9189 66.6553 46.1826 67.5811 46.1826 68.4189C46.1826 69.1045 46.0273 69.6934 45.6436 69.9453C45.4414 70.0889 45.1748 70.1709 44.8994 70.1973C44.6006 70.2324 44.2168 70.2324 43.8799 70.2207C43.8682 69.9805 43.7832 69.6201 43.6396 69.3682C43.9883 69.4033 44.3252 69.4033 44.5654 69.3916C44.7441 69.3799 44.9111 69.3447 45.043 69.2715C45.2832 69.1162 45.3682 68.7441 45.3564 68.3369C45.3564 67.5811 45.0547 66.7168 43.9883 65.624C44.4307 64.6162 44.8994 63.3447 45.2246 62.4189L43.3174 62.4189L43.3174 71.8994L42.5117 71.8994L42.5117 61.6045L45.585 61.6045ZM39.333 65.5889C39.6553 64.915 40.0156 63.9307 40.209 63.2598L41.0967 63.4531C40.833 64.1475 40.4961 64.9648 40.1973 65.5889L41.8994 65.5889L41.8994 66.4033L35.6592 66.4033L35.6592 65.5889L39.333 65.5889ZM37.5078 63.2949C37.8564 63.9189 38.1787 64.7598 38.2988 65.3252L37.4844 65.5391C37.376 64.9883 37.0654 64.1357 36.7402 63.4883L37.5078 63.2949ZM73.2313 71.9229L72.3436 71.9229L72.3436 63.3682L73.2313 63.3682L73.2313 71.9229ZM87.1035 64.2793C87.1035 64.8213 86.6728 65.167 86.1924 65.167C85.7119 65.167 85.2929 64.8213 85.2929 64.2793C85.2929 63.7285 85.7119 63.3682 86.1924 63.3682C86.6728 63.3682 87.1035 63.7285 87.1035 64.2793ZM37.1973 71.8408L36.3447 71.8408L36.3447 67.4961L41.3369 67.4961L41.3369 71.7441L40.4609 71.7441L40.4609 71.2637L37.1973 71.2637L37.1973 71.8408ZM40.4609 70.4727L40.4609 68.2988L37.1973 68.2988L37.1973 70.4727L40.4609 70.4727ZM87.1035 70.1475C87.1035 70.6895 86.6728 71.0469 86.1924 71.0469C85.7119 71.0469 85.2929 70.6895 85.2929 70.1475C85.2929 69.5967 85.7119 69.248 86.1924 69.248C86.6728 69.248 87.1035 69.5967 87.1035 70.1475ZM76.5917 84.9189L81.3553 84.9189L81.3553 89.9111L80.4442 89.9111L80.4442 89.2871L75.1151 89.2871L75.1151 89.9111L74.2391 89.9111L74.2391 85.9648C73.58 86.1934 72.9091 86.3838 72.2469 86.5391C72.1766 86.2988 71.9716 85.915 71.7928 85.7246C73.2811 85.4111 74.8163 84.8838 76.2079 84.1396C75.6805 83.6592 74.9716 83.085 74.3856 82.6631L75.0565 82.1475C75.6923 82.5811 76.4833 83.1787 77.037 83.6592C78.2235 82.9268 79.2694 82.0156 79.9755 80.9727L75.537 80.9727C74.7694 81.7168 73.8202 82.4111 72.6923 83C72.5604 82.7949 72.2733 82.4609 72.08 82.3291C74.0135 81.3916 75.3671 80.0586 76.0878 78.9189L77.0839 79.1357C76.8553 79.4727 76.6034 79.8213 76.3046 80.1553L80.5526 80.1553L80.6962 80.1084L81.2968 80.4805C80.3124 82.3877 78.5839 83.8643 76.5917 84.9189ZM38.9844 81.415L39.1279 81.3916L39.6318 81.4766C39.5 83.5889 39.1895 85.2559 38.6592 86.5654C39.1396 86.9609 39.5352 87.333 39.8105 87.667L39.2949 88.4229C39.0547 88.1006 38.709 87.7402 38.2988 87.3799C37.7129 88.5078 36.9453 89.3105 36.0078 89.8877C35.8994 89.6709 35.6709 89.3486 35.4805 89.1787C36.3564 88.7012 37.0889 87.9189 37.6396 86.8027C37.0654 86.3369 36.4268 85.8799 35.8408 85.5078C36.1162 84.6553 36.4033 83.4805 36.6553 82.2441L35.5654 82.2441L35.5654 81.415L36.8105 81.415C36.9688 80.5654 37.1006 79.7246 37.1826 78.9688L38.0352 79.0156C37.9268 79.7598 37.7949 80.5771 37.6396 81.415L38.9844 81.415ZM43.7598 85.915L43.7598 88.7598L46.4727 88.7598L46.4727 89.6006L39.7988 89.6006L39.7988 88.7598L42.8838 88.7598L42.8838 85.915L40.5078 85.915L40.5078 85.0889L42.8838 85.0889L42.8838 82.4961L41.1084 82.4961C40.8447 83.252 40.5693 83.9111 40.2441 84.4531C40.0771 84.3213 39.6934 84.0928 39.4883 83.9961C40.209 82.9268 40.6631 81.2715 40.9268 79.6045L41.7793 79.748C41.6592 80.3955 41.5156 81.043 41.3604 81.6553L42.8838 81.6553L42.8838 79.0039L43.7598 79.0039L43.7598 81.6553L46.2559 81.6553L46.2559 82.4961L43.7598 82.4961L43.7598 85.0889L46.0391 85.0889L46.0391 85.915L43.7598 85.915ZM87.1035 82.2793C87.1035 82.8213 86.6728 83.167 86.1924 83.167C85.7119 83.167 85.2929 82.8213 85.2929 82.2793C85.2929 81.7285 85.7119 81.3682 86.1924 81.3682C86.6728 81.3682 87.1035 81.7285 87.1035 82.2793ZM37.9766 86.0234C38.3721 84.9805 38.6357 83.7207 38.7793 82.2441L37.4609 82.2441C37.2559 83.2871 36.9922 84.3066 36.752 85.1592C37.1709 85.4229 37.5811 85.7129 37.9766 86.0234ZM75.1151 85.748L75.1151 88.4727L80.4442 88.4727L80.4442 85.748L75.1151 85.748ZM87.1035 88.1475C87.1035 88.6895 86.6728 89.0469 86.1924 89.0469C85.7119 89.0469 85.2929 88.6895 85.2929 88.1475C85.2929 87.5967 85.7119 87.248 86.1924 87.248C86.6728 87.248 87.1035 87.5967 87.1035 88.1475ZM55.2272 100.52C55.6373 100.977 56.7389 102.427 56.9908 102.764L56.4752 103.616C56.2233 103.171 55.6725 102.333 55.2272 101.671L55.2272 107.911L54.3512 107.911L54.3512 102.093C53.8854 103.423 53.2848 104.732 52.649 105.535C52.5406 105.283 52.3121 104.961 52.1686 104.756C52.983 103.689 53.8356 101.779 54.2428 100.124L52.3473 100.124L52.3473 99.2715L54.3512 99.2715L54.3512 96.9688L55.2272 96.9688L55.2272 99.2715L56.8971 99.2715L56.8971 100.124L55.2272 100.124L55.2272 100.52ZM41.4688 103.136L46.3877 103.136L46.3877 104.012L41.4688 104.012L41.4688 106.675C41.4688 107.311 41.2754 107.577 40.833 107.721C40.3877 107.864 39.6201 107.888 38.3604 107.876C38.2871 107.624 38.1201 107.229 37.9766 106.988C38.9844 107.023 39.9189 107.012 40.1973 107C40.4609 107 40.5693 106.915 40.5693 106.663L40.5693 104.012L35.6357 104.012L35.6357 103.136L40.5693 103.136L40.5693 101.193L36.4414 101.193L36.4414 100.341L40.5693 100.341L40.5693 98.4922C39.248 98.6357 37.8916 98.7207 36.6553 98.7793C36.6201 98.5391 36.5117 98.1934 36.4268 97.9883C39.2598 97.8564 42.7402 97.543 44.5391 96.9805L45.2129 97.6895C44.1934 98 42.8838 98.2285 41.4688 98.3955L41.4688 100.341L45.7168 100.341L45.7168 101.193L41.4688 101.193L41.4688 103.136ZM72.6321 97.4492L80.1204 97.4492L80.1204 100.651L72.6321 100.651L72.6321 97.4492ZM61.5992 106.88C61.6608 106.927 61.7194 106.953 61.8043 106.953L62.1295 106.953C62.2115 106.953 62.2965 106.927 62.3551 106.868C62.4166 106.795 62.4401 106.689 62.4752 106.411C62.4869 106.136 62.5133 105.512 62.5133 104.709C62.692 104.876 62.9674 105.008 63.1959 105.093C63.1959 105.764 63.1608 106.651 63.0992 106.953C63.0406 107.299 62.944 107.48 62.7887 107.612C62.6188 107.732 62.3932 107.779 62.1647 107.779L61.5758 107.779C61.3473 107.779 61.0953 107.709 60.9049 107.539C60.7115 107.372 60.653 107.167 60.653 106.124L60.653 98.4922L58.4557 98.4922L58.4557 101.48C58.4557 103.449 58.2037 106.171 56.4869 107.949C56.3551 107.768 55.9948 107.457 55.7926 107.349C57.4127 105.679 57.568 103.303 57.568 101.469L57.568 97.6396L61.5289 97.6396L61.5289 106.209C61.5289 106.604 61.5524 106.833 61.5992 106.88ZM73.5081 99.8604L79.1975 99.8604L79.1975 98.252L73.5081 98.252L73.5081 99.8604ZM86.2874 100.279C86.2874 100.821 85.8568 101.167 85.3763 101.167C84.8958 101.167 84.4769 100.821 84.4769 100.279C84.4769 99.7285 84.8958 99.3682 85.3763 99.3682C85.8568 99.3682 86.2874 99.7285 86.2874 100.279ZM81.5354 101.732L81.5354 102.547L74.6125 102.547C74.4807 102.992 74.3254 103.449 74.179 103.868L80.1204 103.868C80.1204 103.868 80.1086 104.155 80.0735 104.287C79.7952 106.279 79.4963 107.179 79.051 107.551C78.7874 107.803 78.4885 107.876 78.0315 107.899C77.636 107.911 76.8333 107.899 76.0159 107.853C75.9924 107.589 75.8723 107.24 75.7053 107C76.5549 107.085 77.4075 107.097 77.7561 107.097C78.0315 107.097 78.1868 107.085 78.3215 106.977C78.6204 106.748 78.8606 106.089 79.0774 104.697L73.3879 104.697L73.3879 104.683L72.8489 104.683C73.1008 104.108 73.3879 103.279 73.6399 102.547L71.1672 102.547L71.1672 101.732L81.5354 101.732ZM86.2874 106.147C86.2874 106.689 85.8568 107.047 85.3763 107.047C84.8958 107.047 84.4769 106.689 84.4769 106.147C84.4769 105.597 84.8958 105.248 85.3763 105.248C85.8568 105.248 86.2874 105.597 86.2874 106.147ZM40.6279 117.055L40.6279 117.163L44.0352 117.163C44.0352 117.163 44.0234 117.523 44.0234 117.655C43.833 122.803 43.6514 124.604 43.1826 125.179C42.8955 125.527 42.6201 125.647 42.1748 125.683C41.7559 125.732 40.9883 125.709 40.2559 125.671C40.2441 125.396 40.1123 125 39.9453 124.725C40.748 124.795 41.4805 124.795 41.791 124.795C42.0312 124.807 42.1631 124.771 42.3066 124.616C42.6787 124.232 42.8838 122.492 43.0391 118.051L40.6045 118.051C40.4961 120.608 39.8369 123.729 36.2715 125.973C36.1162 125.756 35.7793 125.407 35.5508 125.24C38.8994 123.189 39.5469 120.38 39.6553 118.051L36.0811 118.051L36.0811 117.163L39.6787 117.163L39.6787 114.98L40.6279 114.98L40.6279 117.055ZM65.3605 123.98C65.3605 124.675 65.4924 124.821 66.2131 124.821L68.7326 124.821C69.4035 124.821 69.5236 124.435 69.6203 122.876C69.8371 123.043 70.2209 123.201 70.4963 123.271C70.341 125.073 70.051 125.709 68.7912 125.709L66.1516 125.709C64.8215 125.709 64.423 125.36 64.423 123.957L64.423 122.697L61.4728 122.697L61.4728 123.427L60.5588 123.427L60.5588 116.697L64.423 116.697L64.423 114.98L65.3605 114.98L65.3605 116.697L69.3332 116.697L69.3332 122.697L65.3605 122.697L65.3605 123.98ZM82.4612 118.628L82.4612 119.48L79.3177 119.48L79.3177 121.473L81.7757 121.473L81.7757 125.876L80.8528 125.876L80.8528 125.445L76.8919 125.445L76.8919 125.923L76.0042 125.923L76.0042 121.473L78.427 121.473L78.427 119.48L75.3919 119.48L75.3919 118.628L78.427 118.628L78.427 116.48C77.4807 116.612 76.5315 116.721 75.6438 116.803C75.6087 116.601 75.4768 116.275 75.3802 116.073C77.4309 115.868 79.8567 115.484 81.2132 115.039L81.8372 115.76C81.1282 115.988 80.2522 116.167 79.3177 116.337L79.3177 118.628L82.4612 118.628ZM57.7755 120.512C56.5392 119.372 55.0157 117.368 54.0929 115.569L54.9688 115.232C55.7599 116.864 57.2833 118.76 58.5196 119.756C58.2911 119.935 57.9571 120.271 57.7755 120.512ZM72.7991 115.279C73.4114 115.783 74.179 116.504 74.5511 116.973L73.9417 117.597C73.593 117.116 72.8372 116.36 72.2249 115.821L72.7991 115.279ZM47.6593 119.876C49.004 118.821 50.2052 117.104 50.9112 115.317L51.8604 115.581C51.0548 117.523 49.7833 119.337 48.4884 120.512C48.295 120.333 47.8878 120.02 47.6593 119.876ZM86.9115 118.279C86.9115 118.821 86.4808 119.167 86.0004 119.167C85.5199 119.167 85.101 118.821 85.101 118.279C85.101 117.729 85.5199 117.368 86.0004 117.368C86.4808 117.368 86.9115 117.729 86.9115 118.279ZM64.423 119.275L64.423 117.559L61.4728 117.559L61.4728 119.275L64.423 119.275ZM68.4455 119.275L68.4455 117.559L65.3605 117.559L65.3605 119.275L68.4455 119.275ZM55.795 123.667C55.3175 122.996 54.7989 122.299 54.3331 121.713L55.1593 121.329C56.2052 122.601 57.4268 124.279 58.0157 125.36L57.1515 125.841C56.961 125.457 56.671 124.988 56.3604 124.496C50.0587 124.927 49.4112 124.965 48.9688 125.132C48.919 124.941 48.752 124.449 48.6202 124.197C48.9308 124.124 49.256 123.764 49.713 123.201C50.1788 122.659 51.6319 120.585 52.5929 118.593L53.5509 119.023C52.5694 120.837 51.3917 122.612 50.2169 124.004L55.795 123.667ZM74.0589 118.713L74.0589 123.705L75.2952 122.756C75.3684 122.996 75.5354 123.333 75.6438 123.5C73.6165 125.085 73.2913 125.349 73.1009 125.601C73.0042 125.396 72.7522 125.035 72.5852 124.892C72.8108 124.725 73.221 124.291 73.221 123.729L73.221 119.565L71.5657 119.565L71.5657 118.713L74.0589 118.713ZM45.5967 122.973C45.4268 122.012 44.876 120.441 44.3252 119.24L45.1279 118.965C45.6934 120.14 46.2676 121.701 46.4844 122.659L45.5967 122.973ZM35.5889 122.275C36.3066 121.449 36.9072 120.116 37.2324 119.059L38.0352 119.396C37.6631 120.465 37.0889 121.856 36.4033 122.756L35.5889 122.275ZM61.4728 120.104L61.4728 121.821L64.423 121.821L64.423 120.104L61.4728 120.104ZM65.3605 120.104L65.3605 121.821L68.4455 121.821L68.4455 120.104L65.3605 120.104ZM76.8919 124.628L80.8528 124.628L80.8528 122.287L76.8919 122.287L76.8919 124.628ZM86.9115 124.147C86.9115 124.689 86.4808 125.047 86.0004 125.047C85.5199 125.047 85.101 124.689 85.101 124.147C85.101 123.597 85.5199 123.248 86.0004 123.248C86.4808 123.248 86.9115 123.597 86.9115 124.147Z" fill="#606060"/>
	<path d="M110.325 65.8027L110.492 65.7559L111.093 66.0547C110.601 67.5693 109.795 68.7559 108.764 69.6787C109.807 70.3877 111.069 70.8916 112.531 71.167C112.341 71.3486 112.101 71.709 111.98 71.9609C110.457 71.624 109.147 71.0469 108.081 70.2441C106.977 71.0352 105.717 71.5889 104.384 71.9492C104.287 71.7207 104.073 71.3721 103.915 71.1787C105.151 70.8916 106.353 70.3877 107.372 69.667C106.663 69.0078 106.065 68.2285 105.585 67.3291C104.756 68.8027 103.628 70.0273 102.081 70.9883C101.949 70.7832 101.636 70.4609 101.419 70.3027C103.604 68.9727 104.923 67.0156 105.717 64.5312L104.047 64.5312C103.291 64.5312 102.884 64.6045 102.775 64.7363C102.717 64.543 102.573 64.1006 102.477 63.8955C102.644 63.8486 102.775 63.6787 102.907 63.415C103.051 63.1748 103.496 62.2051 103.713 61.291L104.647 61.4727C104.445 62.2402 104.097 63.043 103.783 63.667L105.945 63.667C106.171 62.8027 106.341 61.8916 106.449 60.9189L107.445 61.0654C107.311 61.9883 107.155 62.8525 106.965 63.667L112.136 63.667L112.124 64.5312L106.725 64.5312C106.593 64.9648 106.449 65.3955 106.303 65.8027L110.325 65.8027ZM148.365 63.1631L148.365 64.0039L147.585 64.0039C147.26 65.9727 146.756 67.5693 145.989 68.8643C146.648 69.8604 147.5 70.6396 148.555 71.1201C148.341 71.2871 148.089 71.6357 147.946 71.8643C146.935 71.3486 146.109 70.5928 145.435 69.6436C144.705 70.6045 143.744 71.3721 142.52 71.9727C142.435 71.7559 142.159 71.3486 141.992 71.1553C143.252 70.5811 144.213 69.8252 144.919 68.8174C144.368 67.8213 143.961 66.6553 143.636 65.3721C143.372 65.8994 143.074 66.3799 142.772 66.8105C142.628 66.6436 142.291 66.3066 142.089 66.1631L142.148 66.0928L139.004 66.0928L139.004 69.8721L142.159 68.7324C142.159 68.9961 142.221 69.3682 142.28 69.5732C138.811 70.9033 138.368 71.1084 138.105 71.3486C138.043 71.085 137.888 70.6514 137.744 70.4346C137.923 70.3525 138.116 70.1826 138.116 69.7637L138.116 65.2168L141.295 65.2168L141.295 62.6826L137.973 62.6826L137.973 61.8066L142.171 61.8066L142.171 66.0547C143.109 64.8213 143.756 62.9229 144.152 60.957L145.016 61.124C144.872 61.833 144.705 62.5156 144.489 63.1631L148.365 63.1631ZM155.446 69.2129L160.353 69.2129L160.353 70.0391L155.446 70.0391L155.446 71.9229L154.543 71.9229L154.543 70.0391L149.671 70.0391L149.671 69.2129L154.543 69.2129L154.543 68.1934L150.993 68.1934L150.993 65.3105L154.543 65.3105L154.543 64.4844L152.337 64.4844L152.337 62.7793L149.876 62.7793L149.876 62L152.337 62L152.337 60.957L153.213 60.957L153.213 62L156.776 62L156.776 60.957L157.675 60.957L157.675 62L160.148 62L160.148 62.7793L157.675 62.7793L157.675 64.4844L155.446 64.4844L155.446 65.3105L159.105 65.3105L159.105 68.1934L155.446 68.1934L155.446 69.2129ZM185.551 65.0732C187.881 64.0771 189.981 62.5771 191.048 60.9688L191.9 61.3408C191.78 61.4961 191.66 61.6631 191.551 61.8213C192.644 62.9346 194.59 64.2559 196.52 64.915C196.318 65.0967 196.04 65.457 195.896 65.709C195.213 65.4316 194.529 65.0701 193.881 64.6666L193.881 65.4922L188.179 65.4922L188.179 64.7598C187.555 65.1553 186.896 65.5156 186.202 65.8291C186.07 65.6123 185.757 65.2402 185.551 65.0732ZM193.875 64.6631C192.758 63.9679 191.749 63.1484 191.036 62.4189C190.292 63.2363 189.369 64.0039 188.338 64.6631L193.875 64.6631ZM167.419 64.2207L167.419 66.5586L166.737 66.5586C166.57 66.8486 166.376 67.1475 166.183 67.4492L172.412 67.4492L172.412 68.2285L169.915 68.2285C169.582 68.9844 169.101 69.5967 168.489 70.1006C169.954 70.4727 171.272 70.8564 172.28 71.2168L171.465 71.8643C170.481 71.4922 169.148 71.0586 167.613 70.6631C166.28 71.3721 164.481 71.7441 162.128 71.9346C162.07 71.6709 161.923 71.3486 161.768 71.1318C163.675 71.0234 165.175 70.7949 166.353 70.3408C165.392 70.1123 164.373 69.8838 163.318 69.6787C163.713 69.2715 164.144 68.7676 164.551 68.2285L161.601 68.2285L161.601 67.4492L165.128 67.4492C165.427 67.0273 165.694 66.5967 165.908 66.1895L166.543 66.3564L166.543 64.2207C165.427 65.4072 163.628 66.4268 162.032 66.9307C161.9 66.7285 161.648 66.4033 161.481 66.2363C162.884 65.8525 164.446 65.0732 165.5 64.1826L161.733 64.1826L161.733 63.415L166.543 63.415L166.543 62.2168C165.272 62.3135 163.954 62.3721 162.752 62.4072C162.741 62.2051 162.644 61.8916 162.559 61.7012C165.295 61.6279 168.644 61.3877 170.408 60.9805L171.07 61.6162C170.059 61.8447 168.788 62.0234 167.419 62.1436L167.419 63.415L172.268 63.415L172.268 64.1826L168.5 64.1826C169.543 65.0234 171.105 65.7559 172.508 66.1045C172.33 66.2949 172.066 66.6318 171.946 66.8486C170.337 66.3682 168.547 65.3721 167.419 64.2207ZM130.868 61.7715C130.318 61.9766 129.609 62.167 128.864 62.3252L128.864 64.4844L130.953 64.4844L130.953 65.3105L128.864 65.3105L128.864 65.624C129.321 66.1045 130.57 67.5693 130.868 67.9414L130.329 68.6709C130.051 68.2168 129.38 67.3174 128.864 66.6436L128.864 71.8877L127.988 71.8877L127.988 66.6084C127.4 68 126.609 69.3564 125.841 70.1826C125.744 69.9453 125.516 69.585 125.349 69.3682C126.26 68.457 127.221 66.8105 127.76 65.3105L125.648 65.3105L125.648 64.4844L127.988 64.4844L127.988 62.4922C127.318 62.6006 126.644 62.6973 126.008 62.7793C125.961 62.5654 125.864 62.2754 125.756 62.0732C127.341 61.8564 129.213 61.4961 130.268 61.0771L130.868 61.7715ZM109.748 61.124C110.264 61.6514 110.961 62.3955 111.295 62.8291L110.577 63.3213C110.252 62.8643 109.581 62.1084 109.065 61.5547L109.748 61.124ZM175.318 64.4229L175.318 61.4961L182.756 61.4961L182.756 64.4229L175.318 64.4229ZM123.644 61.5312L123.644 64.3174L115.616 64.3174L115.616 65.0234C115.616 67.0654 115.435 69.9805 114.213 71.9346C114.043 71.791 113.648 71.5508 113.431 71.4805C114.632 69.5967 114.729 66.9453 114.729 65.0234L114.729 61.5312L123.644 61.5312ZM131.361 71.3838L131.361 62.0732L135.799 62.0732L135.799 71.2988L134.911 71.2988L134.911 70.3994L132.237 70.3994L132.237 71.3838L131.361 71.3838ZM181.807 62.2754L176.229 62.2754L176.229 63.6318L181.807 63.6318L181.807 62.2754ZM122.756 63.5352L122.756 62.3135L115.616 62.3135L115.616 63.5352L122.756 63.5352ZM156.776 62.7793L153.213 62.7793L153.213 63.7871L156.776 63.7871L156.776 62.7793ZM132.237 62.9229L132.237 69.5352L134.911 69.5352L134.911 62.9229L132.237 62.9229ZM146.648 64.0039L144.213 64.0039L144.163 64.124C144.442 65.5508 144.861 66.8604 145.449 67.9766C146.024 66.8955 146.408 65.5771 146.648 64.0039ZM121.268 69.5967C121.868 69.2363 122.612 68.7559 123.055 68.3955L123.729 68.8525C123.163 69.2832 122.431 69.7402 121.821 70.0654C122.551 70.6045 123.441 70.9766 124.496 71.1934C124.291 71.3721 124.066 71.6973 123.945 71.9346C121.821 71.3955 120.295 70.1709 119.481 68.3252L117.825 68.3252L117.825 70.7715L120.403 70.1973C120.368 70.4111 120.345 70.7598 120.368 70.9414C117.368 71.6709 116.984 71.7793 116.756 71.9346C116.721 71.7207 116.527 71.3486 116.407 71.1787C116.624 71.0586 116.984 70.7949 116.984 70.2676L116.984 68.3252L115.69 68.3252L115.69 67.543L117.799 67.543L117.799 66.2832L116.012 66.2832L116.012 65.5156L117.799 65.5156L117.799 64.4346L118.64 64.4346L118.64 65.5156L121.027 65.5156L121.027 64.4346L121.868 64.4346L121.868 65.5156L123.884 65.5156L123.884 66.2832L121.868 66.2832L121.868 67.543L124.364 67.543L124.364 68.3252L120.307 68.3252C120.559 68.791 120.872 69.2246 121.268 69.5967ZM174.896 69.8604L174.896 65.4688L183.237 65.4688L183.237 69.7754L182.288 69.7754L182.288 66.3066L175.795 66.3066L175.795 69.8604L174.896 69.8604ZM151.88 66.043L151.88 67.4727L154.543 67.4727L154.543 66.043L151.88 66.043ZM158.167 67.4727L158.167 66.043L155.446 66.043L155.446 67.4727L158.167 67.4727ZM121.027 66.2832L118.64 66.2832L118.64 67.543L121.027 67.543L121.027 66.2832ZM108.055 69.1396C108.825 68.4688 109.461 67.6396 109.892 66.667L106.136 66.667C106.593 67.6162 107.24 68.457 108.055 69.1396ZM189.524 67.8213L186.117 67.8213L186.117 66.957L195.969 66.957L195.969 67.8213L190.737 67.8213C189.993 68.8027 189.152 69.7754 188.288 70.543L193.737 70.1357C193.303 69.6318 192.799 69.1162 192.345 68.6973L193.101 68.2871C194.168 69.248 195.296 70.5195 195.826 71.4189L195.032 71.9111C194.865 71.624 194.636 71.2754 194.373 70.9268C188.036 71.4453 187.365 71.4922 186.92 71.6592C186.861 71.4688 186.717 71 186.621 70.7363C186.873 70.6895 187.148 70.4609 187.508 70.1123C187.845 69.8369 188.745 68.8877 189.524 67.8213ZM178.473 68.1553L178.473 67.0654L179.408 67.0654L179.408 68.1787C179.408 69.4268 178.869 70.9648 174.427 71.9609C174.322 71.7676 174.044 71.4072 173.841 71.2285C178.136 70.3877 178.473 69.1162 178.473 68.1553ZM167.419 69.8252C168.082 69.415 168.574 68.8877 168.931 68.2285L165.621 68.2285C165.345 68.5889 165.07 68.9492 164.791 69.2363C165.679 69.4268 166.57 69.6201 167.419 69.8252ZM183.729 71.9609C182.745 71.457 180.799 70.6895 179.337 70.1826L179.78 69.5352C181.198 70.0039 183.152 70.7129 184.198 71.2168L183.729 71.9609ZM124.291 80.2754L124.291 81.1162L120.403 81.1162C121.461 82.124 123.043 83.0234 124.52 83.4688C124.317 83.6475 124.066 83.9727 123.919 84.2129C122.287 83.624 120.524 82.4609 119.407 81.1514L119.407 83.7441L118.52 83.7441L118.52 81.1514C117.415 82.4961 115.663 83.6826 114.069 84.2832C113.935 84.0693 113.671 83.7441 113.492 83.5889C114.907 83.1084 116.469 82.1592 117.5 81.1162L113.733 81.1162L113.733 80.2754L118.52 80.2754L118.52 78.957L119.407 78.957L119.407 80.2754L124.291 80.2754ZM130.593 81.0195L130.593 81.8721L128.024 81.8721C127.628 84.1631 127.028 86.1318 126.07 87.5967C125.911 87.4648 125.539 87.1748 125.325 87.0693C126.248 85.7949 126.811 83.9609 127.159 81.8721L125.756 81.8721L125.756 81.0195L127.291 81.0195C127.388 80.3486 127.473 79.6631 127.531 78.957L128.407 79.0273C128.337 79.7129 128.252 80.3721 128.155 81.0195L130.593 81.0195ZM134.577 88.4844L136.364 88.4844L136.364 89.2988L132.055 89.2988L132.055 89.8994L131.252 89.8994L131.252 82.748C130.977 83.2051 130.701 83.624 130.4 83.9961C130.303 83.8408 130.028 83.4688 129.861 83.3252C130.76 82.2559 131.528 80.624 131.996 79.0156L132.764 79.209C132.547 79.8916 132.307 80.5771 132.008 81.2246L136.209 81.2246L136.209 82.0156L134.577 82.0156L134.577 83.6475L136.183 83.6475L136.183 84.4268L134.577 84.4268L134.577 86.0586L136.197 86.0586L136.197 86.8291L134.577 86.8291L134.577 88.4844ZM133.953 79.124C134.287 79.6631 134.659 80.3838 134.818 80.8643L134.012 81.1748C133.868 80.6973 133.52 79.9414 133.197 79.3877L133.953 79.124ZM102.811 79.5312L111.523 79.5312L111.523 88.7832C111.523 89.3604 111.368 89.6006 110.996 89.7559C110.624 89.8994 109.988 89.9111 108.919 89.9111C108.884 89.6709 108.74 89.2988 108.62 89.0732C109.388 89.0967 110.132 89.085 110.337 89.0732C110.565 89.0732 110.636 89 110.636 88.7832L110.636 80.3721L103.689 80.3721L103.689 83.3838C103.689 85.3643 103.496 88.1357 102.14 89.9961C101.996 89.8174 101.636 89.5156 101.431 89.4189C102.693 87.6787 102.811 85.2324 102.811 83.3838L102.811 79.5312ZM104.179 84.2598L104.179 83.5156L106.604 83.5156L106.604 82.3643L104.48 82.3643L104.48 81.6436L106.604 81.6436L106.604 80.6123L107.457 80.6123L107.457 81.6436L109.713 81.6436L109.713 82.3643L107.457 82.3643L107.457 83.5156L110.012 83.5156L110.012 84.2598L104.179 84.2598ZM133.76 83.6475L133.76 82.0156L132.055 82.0156L132.055 83.6475L133.76 83.6475ZM129.74 87.8604C129.559 87.1514 129.357 86.4072 129.152 85.7715L129.837 85.5547C130.221 86.7207 130.64 88.209 130.807 89.2168L130.077 89.4688C130.039 89.2051 129.981 88.8916 129.919 88.5811C127.411 89.0586 127.028 89.1436 126.811 89.2754C126.776 89.0967 126.644 88.7012 126.535 88.4844C126.752 88.4229 126.931 88.0508 127.171 87.5234C127.423 87.0195 128.194 85.0156 128.551 83.2051L129.404 83.4307C128.973 85.0889 128.337 86.8525 127.675 88.209L129.74 87.8604ZM122.325 84.4414C121.531 85.0391 120.453 85.6396 119.396 86.0586L119.396 86.3105L124.317 86.3105L124.317 87.1396L119.396 87.1396L119.396 88.8799C119.396 89.3721 119.264 89.6006 118.868 89.7441C118.461 89.876 117.872 89.8877 116.9 89.8877C116.829 89.6475 116.636 89.2871 116.481 89.0586C117.295 89.085 118.051 89.085 118.256 89.0732C118.473 89.0586 118.52 89.0234 118.52 88.8682L118.52 87.1396L113.697 87.1396L113.697 86.3105L118.52 86.3105L118.52 85.7012C119.179 85.4727 119.888 85.1357 120.477 84.7871L115.772 84.7871L115.772 83.9961L121.555 83.9961L121.76 83.9492L122.325 84.4414ZM132.055 86.0586L133.76 86.0586L133.76 84.4268L132.055 84.4268L132.055 86.0586ZM109.399 85.2676L109.399 88.3877L105.585 88.3877L105.585 89.0586L104.768 89.0586L104.768 85.2676L109.399 85.2676ZM108.559 87.6787L108.559 85.9766L105.585 85.9766L105.585 87.6787L108.559 87.6787ZM133.76 86.8291L132.055 86.8291L132.055 88.4844L133.76 88.4844L133.76 86.8291ZM113.648 104.647C113.648 106.221 112.389 107.155 110.827 107.155C109.447 107.155 108.583 106.581 108.009 105.957L108.559 105.236C109.075 105.775 109.749 106.244 110.745 106.244C111.788 106.244 112.532 105.62 112.532 104.612C112.532 103.555 111.823 102.849 109.796 102.849L109.796 102.008C111.609 102.008 112.233 101.275 112.233 100.329C112.233 99.4766 111.656 98.9346 110.745 98.9111C110.036 98.9346 109.412 99.2949 108.92 99.7871L108.331 99.0928C108.993 98.4805 109.772 98.0352 110.792 98.0352C112.268 98.0352 113.35 98.8291 113.35 100.244C113.35 101.311 112.711 102.02 111.776 102.368L111.776 102.415C112.819 102.655 113.648 103.449 113.648 104.647ZM124.903 98.0352C125.817 98.0352 126.476 98.4189 126.957 98.9346L126.356 99.6201C126.007 99.2012 125.48 98.9492 124.941 98.9492C123.74 98.9492 122.72 99.8721 122.674 102.608C123.213 101.949 123.98 101.539 124.677 101.539C126.163 101.539 127.112 102.465 127.112 104.299C127.112 106.004 125.961 107.155 124.592 107.155C122.899 107.155 121.651 105.705 121.651 102.799C121.651 99.3564 123.201 98.0352 124.903 98.0352ZM131.563 98.0352C132.477 98.0352 133.136 98.4189 133.617 98.9346L133.016 99.6201C132.668 99.2012 132.14 98.9492 131.601 98.9492C130.4 98.9492 129.38 99.8721 129.334 102.608C129.873 101.949 130.64 101.539 131.337 101.539C132.823 101.539 133.772 102.465 133.772 104.299C133.772 106.004 132.621 107.155 131.253 107.155C129.559 107.155 128.311 105.705 128.311 102.799C128.311 99.3564 129.861 98.0352 131.563 98.0352ZM138.223 98.0352C139.137 98.0352 139.796 98.4189 140.277 98.9346L139.676 99.6201C139.328 99.2012 138.8 98.9492 138.261 98.9492C137.06 98.9492 136.04 99.8721 135.994 102.608C136.533 101.949 137.3 101.539 137.998 101.539C139.483 101.539 140.432 102.465 140.432 104.299C140.432 106.004 139.281 107.155 137.913 107.155C136.219 107.155 134.971 105.705 134.971 102.799C134.971 99.3564 136.521 98.0352 138.223 98.0352ZM144.883 98.0352C145.797 98.0352 146.456 98.4189 146.937 98.9346L146.336 99.6201C145.988 99.2012 145.46 98.9492 144.921 98.9492C143.72 98.9492 142.701 99.8721 142.654 102.608C143.193 101.949 143.96 101.539 144.658 101.539C146.143 101.539 147.092 102.465 147.092 104.299C147.092 106.004 145.941 107.155 144.573 107.155C142.879 107.155 141.631 105.705 141.631 102.799C141.631 99.3564 143.181 98.0352 144.883 98.0352ZM151.543 98.0352C152.457 98.0352 153.116 98.4189 153.597 98.9346L152.996 99.6201C152.648 99.2012 152.12 98.9492 151.581 98.9492C150.38 98.9492 149.361 99.8721 149.314 102.608C149.853 101.949 150.62 101.539 151.318 101.539C152.803 101.539 153.752 102.465 153.752 104.299C153.752 106.004 152.601 107.155 151.233 107.155C149.539 107.155 148.291 105.705 148.291 102.799C148.291 99.3564 149.841 98.0352 151.543 98.0352ZM158.203 98.0352C159.117 98.0352 159.776 98.4189 160.257 98.9346L159.656 99.6201C159.308 99.2012 158.78 98.9492 158.241 98.9492C157.04 98.9492 156.021 99.8721 155.974 102.608C156.513 101.949 157.28 101.539 157.978 101.539C159.463 101.539 160.412 102.465 160.412 104.299C160.412 106.004 159.261 107.155 157.893 107.155C156.199 107.155 154.951 105.705 154.951 102.799C154.951 99.3564 156.501 98.0352 158.203 98.0352ZM106.88 107L102.055 107L102.055 106.089L104.012 106.089L104.012 99.5234L102.453 99.5234L102.453 98.8291C103.232 98.6826 103.795 98.4805 104.275 98.2051L105.116 98.2051L105.116 106.089L106.88 106.089L106.88 107ZM120.332 104.132C120.332 106.065 118.94 107.155 117.452 107.155C116.084 107.155 115.243 106.581 114.657 105.992L115.196 105.271C115.7 105.775 116.336 106.244 117.355 106.244C118.389 106.244 119.227 105.453 119.227 104.167C119.227 102.907 118.51 102.163 117.405 102.163C116.816 102.163 116.444 102.345 115.94 102.679L115.351 102.321L115.627 98.2051L119.913 98.2051L119.913 99.1396L116.588 99.1396L116.371 101.683C116.755 101.469 117.153 101.337 117.68 101.337C119.145 101.337 120.332 102.201 120.332 104.132ZM122.697 103.484C122.829 105.307 123.488 106.303 124.592 106.303C125.433 106.303 126.081 105.5 126.081 104.299C126.081 103.112 125.565 102.356 124.496 102.356C123.945 102.356 123.271 102.667 122.697 103.484ZM129.357 103.484C129.489 105.307 130.148 106.303 131.253 106.303C132.093 106.303 132.741 105.5 132.741 104.299C132.741 103.112 132.225 102.356 131.156 102.356C130.605 102.356 129.931 102.667 129.357 103.484ZM136.017 103.484C136.149 105.307 136.808 106.303 137.913 106.303C138.753 106.303 139.401 105.5 139.401 104.299C139.401 103.112 138.885 102.356 137.816 102.356C137.265 102.356 136.591 102.667 136.017 103.484ZM142.677 103.484C142.809 105.307 143.468 106.303 144.573 106.303C145.413 106.303 146.061 105.5 146.061 104.299C146.061 103.112 145.545 102.356 144.476 102.356C143.925 102.356 143.251 102.667 142.677 103.484ZM149.337 103.484C149.469 105.307 150.128 106.303 151.233 106.303C152.073 106.303 152.721 105.5 152.721 104.299C152.721 103.112 152.205 102.356 151.136 102.356C150.585 102.356 149.911 102.667 149.337 103.484ZM155.997 103.484C156.129 105.307 156.788 106.303 157.893 106.303C158.734 106.303 159.381 105.5 159.381 104.299C159.381 103.112 158.865 102.356 157.796 102.356C157.245 102.356 156.571 102.667 155.997 103.484ZM107.073 120.573C107.073 123.632 106.004 125.155 104.337 125.155C102.655 125.155 101.589 123.632 101.589 120.573C101.589 117.512 102.655 116.035 104.337 116.035C106.004 116.035 107.073 117.523 107.073 120.573ZM113.648 122.647C113.648 124.221 112.389 125.155 110.827 125.155C109.447 125.155 108.583 124.581 108.009 123.957L108.559 123.236C109.075 123.775 109.749 124.244 110.745 124.244C111.788 124.244 112.532 123.62 112.532 122.612C112.532 121.555 111.823 120.849 109.796 120.849L109.796 120.008C111.609 120.008 112.233 119.275 112.233 118.329C112.233 117.477 111.656 116.935 110.745 116.911C110.036 116.935 109.412 117.295 108.92 117.787L108.331 117.093C108.993 116.48 109.772 116.035 110.792 116.035C112.268 116.035 113.35 116.829 113.35 118.244C113.35 119.311 112.711 120.02 111.776 120.368L111.776 120.415C112.819 120.655 113.648 121.449 113.648 122.647ZM137.863 125L132.332 125L132.332 124.353C135.091 121.941 136.363 120.189 136.363 118.675C136.363 117.667 135.835 116.935 134.746 116.935C134.025 116.935 133.401 117.38 132.92 117.957L132.285 117.333C133.005 116.551 133.761 116.035 134.877 116.035C136.448 116.035 137.432 117.069 137.432 118.64C137.432 120.392 136.052 122.179 133.987 124.136C134.444 124.101 134.983 124.051 135.428 124.051L137.863 124.051L137.863 125ZM171.163 125L165.632 125L165.632 124.353C168.392 121.941 169.663 120.189 169.663 118.675C169.663 117.667 169.136 116.935 168.046 116.935C167.325 116.935 166.701 117.38 166.221 117.957L165.585 117.333C166.306 116.551 167.062 116.035 168.178 116.035C169.748 116.035 170.732 117.069 170.732 118.64C170.732 120.392 169.353 122.179 167.287 124.136C167.744 124.101 168.283 124.051 168.729 124.051L171.163 124.051L171.163 125ZM177.753 122.647C177.753 124.221 176.493 125.155 174.932 125.155C173.552 125.155 172.687 124.581 172.113 123.957L172.664 123.236C173.18 123.775 173.853 124.244 174.849 124.244C175.892 124.244 176.637 123.62 176.637 122.612C176.637 121.555 175.928 120.849 173.9 120.849L173.9 120.008C175.714 120.008 176.338 119.275 176.338 118.329C176.338 117.477 175.761 116.935 174.849 116.911C174.141 116.935 173.516 117.295 173.024 117.787L172.435 117.093C173.098 116.48 173.877 116.035 174.896 116.035C176.373 116.035 177.454 116.829 177.454 118.244C177.454 119.311 176.815 120.02 175.881 120.368L175.881 120.415C176.924 120.655 177.753 121.449 177.753 122.647ZM144.573 122.876C144.573 124.159 143.468 125.155 141.813 125.155C140.193 125.155 139.003 124.171 139.003 122.817C139.003 121.64 139.821 120.825 140.623 120.392L140.623 120.333C139.976 119.888 139.437 119.229 139.437 118.303C139.437 116.961 140.468 116.073 141.848 116.073C143.348 116.073 144.259 117.031 144.259 118.388C144.259 119.311 143.612 120.104 143.084 120.512L143.084 120.573C143.852 121.016 144.573 121.675 144.573 122.876ZM151.233 122.876C151.233 124.159 150.128 125.155 148.473 125.155C146.853 125.155 145.663 124.171 145.663 122.817C145.663 121.64 146.481 120.825 147.284 120.392L147.284 120.333C146.636 119.888 146.097 119.229 146.097 118.303C146.097 116.961 147.128 116.073 148.508 116.073C150.008 116.073 150.919 117.031 150.919 118.388C150.919 119.311 150.272 120.104 149.744 120.512L149.744 120.573C150.512 121.016 151.233 121.675 151.233 122.876ZM157.893 122.876C157.893 124.159 156.788 125.155 155.133 125.155C153.513 125.155 152.323 124.171 152.323 122.817C152.323 121.64 153.141 120.825 153.944 120.392L153.944 120.333C153.296 119.888 152.757 119.229 152.757 118.303C152.757 116.961 153.788 116.073 155.168 116.073C156.668 116.073 157.579 117.031 157.579 118.388C157.579 119.311 156.932 120.104 156.404 120.512L156.404 120.573C157.172 121.016 157.893 121.675 157.893 122.876ZM120.2 125L115.375 125L115.375 124.089L117.332 124.089L117.332 117.523L115.773 117.523L115.773 116.829C116.553 116.683 117.115 116.48 117.595 116.205L118.436 116.205L118.436 124.089L120.2 124.089L120.2 125ZM126.992 122.132C126.992 124.065 125.6 125.155 124.112 125.155C122.744 125.155 121.903 124.581 121.317 123.992L121.856 123.271C122.36 123.775 122.996 124.244 124.015 124.244C125.049 124.244 125.887 123.453 125.887 122.167C125.887 120.907 125.17 120.163 124.065 120.163C123.476 120.163 123.104 120.345 122.6 120.679L122.011 120.321L122.287 116.205L126.573 116.205L126.573 117.14L123.248 117.14L123.031 119.683C123.415 119.469 123.813 119.337 124.34 119.337C125.805 119.337 126.992 120.201 126.992 122.132ZM164.324 125L159.499 125L159.499 124.089L161.456 124.089L161.456 117.523L159.898 117.523L159.898 116.829C160.677 116.683 161.239 116.48 161.72 116.205L162.561 116.205L162.561 124.089L164.324 124.089L164.324 125ZM140.433 118.303C140.433 119.36 141.379 119.817 142.413 120.225C143.011 119.697 143.325 119.097 143.325 118.449C143.325 117.585 142.771 116.876 141.825 116.876C141.019 116.876 140.433 117.453 140.433 118.303ZM147.093 118.303C147.093 119.36 148.039 119.817 149.074 120.225C149.671 119.697 149.985 119.097 149.985 118.449C149.985 117.585 149.431 116.876 148.485 116.876C147.679 116.876 147.093 117.453 147.093 118.303ZM153.753 118.303C153.753 119.36 154.699 119.817 155.734 120.225C156.331 119.697 156.645 119.097 156.645 118.449C156.645 117.585 156.091 116.876 155.145 116.876C154.339 116.876 153.753 117.453 153.753 118.303ZM102.655 120.573C102.655 123.163 103.329 124.279 104.337 124.279C105.333 124.279 106.004 123.163 106.004 120.573C106.004 118.004 105.333 116.923 104.337 116.923C103.329 116.923 102.655 118.004 102.655 120.573ZM139.999 122.721C139.999 123.655 140.782 124.341 141.836 124.341C142.844 124.341 143.53 123.729 143.53 122.853C143.53 121.675 142.449 121.232 141.201 120.729C140.492 121.183 139.999 121.88 139.999 122.721ZM146.659 122.721C146.659 123.655 147.442 124.341 148.496 124.341C149.504 124.341 150.19 123.729 150.19 122.853C150.19 121.675 149.109 121.232 147.861 120.729C147.152 121.183 146.659 121.88 146.659 122.721ZM153.32 122.721C153.32 123.655 154.102 124.341 155.156 124.341C156.164 124.341 156.85 123.729 156.85 122.853C156.85 121.675 155.769 121.232 154.521 120.729C153.812 121.183 153.32 121.88 153.32 122.721ZM131.264 122.059L128.191 122.059L128.191 121.221L131.264 121.221L131.264 122.059Z" fill="#606060"/>
	<circle cx="119.500000" cy="30.500000" r="14.500001" fill="#DFDFDF"/>
	<path d="M123.579 38.4489C123.637 38.3676 123.684 38.2809 123.721 38.1886C125.575 37.0056 126.911 35.0981 127.444 32.8889C127.547 32.8786 127.646 32.8593 127.745 32.831C127.844 32.8027 127.939 32.7658 128.031 32.7204C128.123 32.675 128.211 32.6217 128.294 32.5605C128.376 32.4993 128.453 32.4313 128.523 32.3563C128.595 32.2814 128.658 32.2007 128.715 32.1144C128.771 32.028 128.819 31.9373 128.859 31.8422C128.9 31.7471 128.932 31.6491 128.955 31.5483C128.979 31.4475 128.992 31.3454 128.998 31.2421C129.003 31.1387 128.999 31.0357 128.986 30.933C128.973 30.8304 128.951 30.7297 128.921 30.631C128.89 30.5322 128.851 30.437 128.803 30.3453C128.756 30.2536 128.7 30.1669 128.638 30.0851C128.574 30.0034 128.505 29.9279 128.429 29.8586C128.353 29.7893 128.271 29.7274 128.185 29.6728C128.097 29.6181 128.006 29.5717 127.911 29.5335C127.815 29.4953 127.718 29.4659 127.617 29.4453C127.039 25.2379 123.63 22 119.5 22C115.371 22 111.962 25.2379 111.384 29.4453C111.283 29.4658 111.186 29.4952 111.09 29.5334C110.994 29.5716 110.903 29.618 110.816 29.6725C110.729 29.7271 110.647 29.789 110.571 29.8582C110.495 29.9275 110.426 30.003 110.363 30.0847C110.3 30.1664 110.245 30.2531 110.197 30.3448C110.149 30.4364 110.11 30.5316 110.08 30.6303C110.049 30.729 110.027 30.8297 110.014 30.9323C110.001 31.035 109.997 31.138 110.002 31.2413C110.007 31.3447 110.021 31.4467 110.045 31.5475C110.067 31.6484 110.1 31.7463 110.14 31.8414C110.181 31.9365 110.229 32.0273 110.285 32.1136C110.342 32.2001 110.405 32.2807 110.476 32.3557C110.546 32.4307 110.623 32.4988 110.706 32.56C110.788 32.6212 110.876 32.6745 110.968 32.72C111.06 32.7655 111.155 32.8025 111.254 32.8308C111.353 32.8592 111.452 32.8786 111.555 32.8889C111.615 33.1408 111.688 33.3895 111.77 33.6352C111.786 33.6915 111.813 33.7421 111.852 33.7873C111.889 33.8324 111.934 33.8684 111.985 33.8952C112.037 33.9221 112.092 33.9377 112.15 33.942C112.208 33.9464 112.265 33.9391 112.32 33.9203C112.376 33.9014 112.425 33.8725 112.469 33.8334C112.513 33.7943 112.547 33.7482 112.571 33.6951C112.597 33.642 112.61 33.586 112.613 33.5272C112.616 33.4684 112.607 33.4114 112.587 33.3562C112.303 32.4991 112.16 31.6186 112.16 30.7146C112.16 26.3782 115.452 22.8718 119.5 22.8718C123.549 22.8718 126.84 26.3791 126.84 30.7137C126.84 33.3257 125.635 35.704 123.7 37.1477C123.659 37.0571 123.608 36.9723 123.548 36.8934C123.488 36.8145 123.42 36.7434 123.343 36.6803C123.267 36.6172 123.185 36.5636 123.096 36.5195C123.007 36.4754 122.915 36.4419 122.818 36.4192C122.723 36.3964 122.625 36.3848 122.526 36.3846C122.428 36.3843 122.33 36.3952 122.234 36.4175C122.138 36.4397 122.045 36.4726 121.956 36.5162C121.867 36.5598 121.785 36.6129 121.708 36.6756C121.632 36.7383 121.562 36.8089 121.502 36.8875C121.441 36.966 121.39 37.0505 121.349 37.1409C121.307 37.2313 121.275 37.3252 121.255 37.4228C121.235 37.5203 121.226 37.6189 121.228 37.7186C121.229 37.8182 121.243 37.9164 121.267 38.013C121.291 38.1096 121.326 38.2023 121.371 38.2909C121.416 38.3795 121.471 38.4618 121.535 38.5379C121.599 38.6139 121.67 38.6817 121.749 38.7412C121.828 38.8007 121.913 38.8505 122.004 38.8904C122.094 38.9304 122.188 38.9595 122.285 38.9778C122.382 38.9961 122.479 39.0031 122.578 38.9988C122.677 38.9945 122.774 38.979 122.869 38.9523C122.964 38.9257 123.056 38.8885 123.142 38.8409C123.229 38.7932 123.309 38.7363 123.383 38.6701C123.457 38.604 123.522 38.5302 123.579 38.4489ZM118.908 36.3555C119.105 36.3751 119.303 36.3849 119.501 36.3849C119.699 36.3849 119.896 36.3751 120.094 36.3555C120.29 36.3359 120.486 36.3066 120.681 36.2676C120.874 36.2286 121.066 36.1801 121.256 36.1221C121.445 36.0641 121.631 35.9968 121.814 35.9203C121.997 35.8439 122.176 35.7585 122.351 35.6643C122.525 35.5701 122.694 35.4674 122.859 35.3564C123.023 35.2454 123.183 35.1264 123.336 34.9996C123.488 34.8728 123.635 34.7388 123.775 34.5975C123.915 34.4561 124.048 34.3082 124.174 34.1537C124.299 33.9992 124.417 33.8389 124.526 33.6727C124.637 33.5065 124.738 33.3353 124.832 33.159C124.925 32.9827 125.01 32.8023 125.085 32.6176C125.161 32.433 125.228 32.245 125.285 32.0537C125.343 31.8625 125.391 31.6688 125.43 31.4728C125.468 31.2768 125.497 31.0793 125.517 30.8804C125.536 30.6815 125.546 30.4821 125.546 30.2822C125.546 30.0824 125.536 29.883 125.517 29.6841C125.497 29.4851 125.468 29.2877 125.43 29.0917C125.391 28.8956 125.343 28.702 125.285 28.5107C125.228 28.3194 125.161 28.1315 125.085 27.9468C125.01 27.7622 124.925 27.5817 124.832 27.4054C124.738 27.2292 124.637 27.0579 124.526 26.8918C124.417 26.7256 124.299 26.5652 124.174 26.4107C124.048 26.2562 123.915 26.1083 123.775 25.967C123.635 25.8257 123.488 25.6916 123.336 25.5648C123.183 25.438 123.023 25.3191 122.859 25.208C122.694 25.097 122.525 24.9944 122.351 24.9001C122.176 24.8059 121.997 24.7206 121.814 24.6441C121.631 24.5676 121.445 24.5004 121.256 24.4423C121.066 24.3843 120.874 24.3358 120.681 24.2968C120.486 24.2578 120.29 24.2285 120.094 24.2089C119.896 24.1893 119.699 24.1796 119.501 24.1796C119.303 24.1796 119.105 24.1893 118.908 24.2089C118.712 24.2285 118.516 24.2578 118.321 24.2968C118.128 24.3358 117.936 24.3843 117.746 24.4423C117.557 24.5004 117.371 24.5676 117.188 24.6441C117.005 24.7206 116.826 24.8059 116.651 24.9001C116.477 24.9944 116.308 25.097 116.143 25.208C115.979 25.3191 115.819 25.438 115.666 25.5648C115.514 25.6916 115.367 25.8257 115.227 25.967C115.087 26.1083 114.954 26.2562 114.828 26.4107C114.703 26.5652 114.585 26.7256 114.476 26.8918C114.365 27.0579 114.264 27.2292 114.17 27.4054C114.077 27.5817 113.992 27.7622 113.917 27.9468C113.841 28.1315 113.774 28.3194 113.717 28.5107C113.659 28.702 113.611 28.8956 113.572 29.0917C113.534 29.2877 113.505 29.4851 113.485 29.6841C113.466 29.883 113.456 30.0824 113.456 30.2822C113.456 30.4821 113.466 30.6815 113.485 30.8804C113.505 31.0793 113.534 31.2768 113.572 31.4728C113.611 31.6688 113.659 31.8625 113.717 32.0537C113.774 32.245 113.841 32.433 113.917 32.6176C113.992 32.8023 114.077 32.9827 114.17 33.159C114.264 33.3353 114.365 33.5065 114.476 33.6727C114.585 33.8389 114.703 33.9992 114.828 34.1537C114.954 34.3082 115.087 34.4561 115.227 34.5975C115.367 34.7388 115.514 34.8728 115.666 34.9996C115.819 35.1264 115.979 35.2454 116.143 35.3564C116.308 35.4674 116.477 35.5701 116.651 35.6643C116.826 35.7585 117.005 35.8439 117.188 35.9203C117.371 35.9968 117.557 36.0641 117.746 36.1221C117.936 36.1801 118.128 36.2286 118.321 36.2676C118.516 36.3066 118.712 36.3359 118.908 36.3555ZM122.955 31.5899C122.955 32.3118 121.409 33.7695 119.501 33.7695C117.593 33.7695 116.047 32.3118 116.047 31.5899C116.047 31.2138 116.467 31.348 117.139 31.5628C117.756 31.7602 118.587 32.0258 119.501 32.0258C120.415 32.0258 121.246 31.7602 121.863 31.5628C122.535 31.348 122.955 31.2138 122.955 31.5899Z" fill-rule="evenodd" fill="#606060" fill-opacity="1.000000"/>
	<defs/>
</svg>
