<svg width="30.908447" height="26.674316" viewBox="0 0 30.9084 26.6743" fill="none" xmlns="http://www.w3.org/2000/svg" xmlns:xlink="http://www.w3.org/1999/xlink">
	<desc>
			Created with Pixso.
	</desc>
	<path d="M17.386 20.9585L17.386 22.8638L21.2496 22.8638L21.2496 26.6743L9.65889 26.6743L9.65889 22.8638L13.5224 22.8638L13.5224 20.9585L0 20.9585L0 0L30.9084 0L30.9084 20.9585L17.386 20.9585ZM17.386 17.1479L27.0449 17.1479L27.0449 3.81055L3.86356 3.81055L3.86356 17.1479L13.2931 17.1479L6.52541 10.4641C6.41054 10.3508 6.41054 10.1641 6.52541 10.0508L8.62086 7.9812C8.73573 7.86792 8.92471 7.86792 9.03958 7.9812L14.1754 13.0532C14.2328 13.1101 14.3273 13.1101 14.3848 13.0532L22.7258 4.81763C22.8407 4.7041 23.0297 4.7041 23.1445 4.81763L25.24 6.88696C25.3567 7.00049 25.3567 7.18726 25.2418 7.30054L15.2708 17.1479L17.386 17.1479Z" fill-rule="evenodd" fill="#FFFFFF"/>
	<defs/>
</svg>
