<svg width="19.090332" height="23.540527" viewBox="0 0 19.0903 23.5405" fill="none" xmlns="http://www.w3.org/2000/svg" xmlns:xlink="http://www.w3.org/1999/xlink">
	<desc>
			Created with Pixso.
	</desc>
	<path d="M9.43359 0C9.88477 0 10.3315 0.0509033 10.7749 0.15271C11.2183 0.254517 11.6343 0.391571 12.0229 0.563843C12.4116 0.736145 12.7573 0.931915 13.0605 1.15118C13.3638 1.37045 13.6011 1.58972 13.772 1.80899C14.1763 2.31021 14.4717 2.8623 14.6587 3.4653C14.8452 4.0683 14.9771 4.64389 15.0552 5.19208C15.1328 5.81857 15.1719 6.45291 15.1719 7.09506C15.2803 7.17337 15.3662 7.27518 15.4282 7.40048C15.4902 7.5101 15.541 7.65106 15.5801 7.82336C15.6187 7.99564 15.6226 8.20709 15.5913 8.45767C15.5605 8.78659 15.4941 9.04895 15.3931 9.24472C15.292 9.44049 15.1792 9.5932 15.0552 9.70285C14.915 9.82812 14.7676 9.91428 14.6118 9.96127C14.5342 10.2275 14.4565 10.4781 14.3784 10.7131C14.3008 10.9167 14.2114 11.1164 14.1104 11.3121C14.0093 11.5079 13.8965 11.6606 13.772 11.7703C13.4766 12.0052 13.2358 12.2049 13.0493 12.3694C12.8623 12.5338 12.7383 12.8118 12.6758 13.2034C12.6294 13.4383 12.6138 13.6772 12.6294 13.9199C12.645 14.1627 12.7109 14.4055 12.8276 14.6482C12.9443 14.891 13.123 15.122 13.3638 15.3413C13.605 15.5606 13.9434 15.7563 14.3784 15.9286C14.7676 16.0853 15.1909 16.2262 15.6499 16.3515C16.1084 16.4768 16.5557 16.6217 16.9912 16.7861C17.4263 16.9506 17.811 17.1542 18.1455 17.397C18.48 17.6397 18.7168 17.9726 18.8569 18.3954C18.9346 18.6461 18.9932 18.9554 19.0317 19.3235C19.0708 19.6915 19.0903 20.0635 19.0903 20.4394C19.0903 20.8153 19.063 21.1677 19.0088 21.4966C18.9541 21.8255 18.8726 22.0761 18.7637 22.2484C18.686 22.358 18.4644 22.4677 18.0991 22.5773C17.7334 22.687 17.2827 22.7927 16.7461 22.8945C16.2095 22.9963 15.6108 23.0863 14.9502 23.1646C14.2891 23.243 13.6245 23.3095 12.9556 23.3643C12.2871 23.4192 11.6455 23.4622 11.0317 23.4936C10.4175 23.5249 9.88477 23.5406 9.43359 23.5405C8.98291 23.5405 8.45801 23.5249 7.85938 23.4936C7.26074 23.4622 6.64258 23.4192 6.00488 23.3643C5.36768 23.3095 4.73389 23.2469 4.104 23.1764C3.47412 23.1059 2.90283 23.0315 2.38965 22.9532C1.87646 22.8749 1.44092 22.7966 1.0835 22.7183C0.725586 22.64 0.500488 22.5616 0.407227 22.4833C0.251465 22.358 0.130859 21.9743 0.0454102 21.3322C-0.0400391 20.69 -0.00488281 19.8599 0.150391 18.8418C0.228027 18.2623 0.45752 17.8199 0.838379 17.5144C1.21973 17.209 1.6626 16.9663 2.16797 16.7861C2.67334 16.606 3.19824 16.4455 3.74268 16.3045C4.28662 16.1636 4.76855 15.96 5.18848 15.6937C5.51514 15.4901 5.76416 15.2943 5.93506 15.1064C6.10596 14.9184 6.23047 14.7305 6.30811 14.5425C6.38574 14.3546 6.4248 14.1588 6.4248 13.9552C6.4248 13.7516 6.41699 13.5244 6.40137 13.2739C6.37061 12.9136 6.24609 12.6278 6.02832 12.4164C5.81055 12.2049 5.56982 11.9896 5.30518 11.7703C5.18066 11.6606 5.07178 11.5079 4.97852 11.3121C4.88525 11.1164 4.7998 10.9167 4.72217 10.7131C4.64453 10.4781 4.56641 10.2275 4.48877 9.96127C4.37988 9.92993 4.271 9.87512 4.16211 9.79681C4.06885 9.71851 3.96777 9.60886 3.85889 9.4679C3.75049 9.32693 3.65674 9.12332 3.5791 8.85709C3.48584 8.59082 3.45117 8.34805 3.47412 8.12878C3.49756 7.90948 3.54053 7.72156 3.60254 7.56494C3.66455 7.39264 3.76562 7.22818 3.90576 7.07156C3.89014 6.47638 3.92139 5.88123 3.99902 5.28604C4.06104 4.78485 4.17383 4.24451 4.3374 3.66501C4.50049 3.08548 4.74561 2.56863 5.07178 2.11441C5.36768 1.67587 5.69775 1.31955 6.06348 1.04547C6.42871 0.771362 6.80176 0.55603 7.18311 0.399384C7.56396 0.242767 7.94482 0.137054 8.32568 0.0822144C8.70703 0.0274048 9.07617 0 9.43359 0Z" fill-rule="evenodd" fill="#FFFFFF"/>
	<defs/>
</svg>
