<svg width="29.000000" height="29.000000" viewBox="0 0 29 29" fill="none" xmlns="http://www.w3.org/2000/svg" xmlns:xlink="http://www.w3.org/1999/xlink">
	<desc>
			Created with Pixso.
	</desc>
	<circle cx="14.500000" cy="14.500000" r="14.500001" fill="#FFFFFF"/>
	<path d="M14.251 4.72095C14.6094 4.72095 14.9648 4.76126 15.3184 4.84189C15.6709 4.92252 16.002 5.03104 16.3105 5.16748C16.6201 5.30392 16.8955 5.45898 17.1367 5.63263C17.3779 5.80627 17.5664 5.97992 17.7031 6.15359C18.0244 6.55051 18.2598 6.98773 18.4082 7.46527C18.5566 7.94281 18.6621 8.39865 18.7236 8.83279C18.7852 9.32895 18.8164 9.8313 18.8164 10.3398C18.9033 10.4019 18.9717 10.4825 19.0205 10.5817C19.0703 10.6685 19.1104 10.7802 19.1416 10.9166C19.1719 11.0531 19.1758 11.2205 19.1504 11.419C19.126 11.6794 19.0732 11.8872 18.9932 12.0423C18.9121 12.1973 18.8223 12.3183 18.7236 12.4051C18.6123 12.5043 18.4951 12.5725 18.3711 12.6097C18.3096 12.8206 18.2471 13.0191 18.1855 13.2051C18.124 13.3664 18.0527 13.5245 17.9717 13.6796C17.8916 13.8346 17.8018 13.9555 17.7031 14.0424C17.4678 14.2284 17.2764 14.3866 17.1279 14.5168C16.9795 14.6471 16.8799 14.8672 16.8311 15.1773C16.7939 15.3634 16.7812 15.5525 16.7939 15.7448C16.8057 15.937 16.8584 16.1293 16.9512 16.3216C17.0439 16.5138 17.1865 16.6968 17.3779 16.8704C17.5703 17.0441 17.8389 17.1991 18.1855 17.3356C18.4951 17.4596 18.832 17.5713 19.1973 17.6705C19.5625 17.7697 19.918 17.8844 20.2646 18.0147C20.6104 18.1449 20.917 18.3062 21.1826 18.4984C21.4492 18.6907 21.6377 18.9543 21.749 19.2892C21.8105 19.4876 21.8574 19.7326 21.8887 20.0241C21.9189 20.3156 21.9346 20.6102 21.9346 20.9079C21.9346 21.2055 21.9131 21.4846 21.8701 21.7451C21.8262 22.0056 21.7617 22.204 21.6748 22.3405C21.6133 22.4273 21.4365 22.5142 21.1455 22.601C20.8555 22.6878 20.4961 22.7715 20.0693 22.8521C19.6426 22.9328 19.166 23.0041 18.6406 23.0661C18.1143 23.1281 17.585 23.1808 17.0537 23.2243C16.5215 23.2677 16.0107 23.3018 15.5225 23.3266C15.0332 23.3514 14.6094 23.3638 14.251 23.3638C13.8916 23.3638 13.4746 23.3514 12.998 23.3266C12.5215 23.3018 12.0293 23.2677 11.5225 23.2243C11.0156 23.1808 10.5107 23.1312 10.0098 23.0754C9.50879 23.0196 9.05371 22.9607 8.64551 22.8987C8.2373 22.8366 7.89062 22.7746 7.60645 22.7126C7.32129 22.6506 7.14258 22.5886 7.06836 22.5266C6.94434 22.4273 6.84863 22.1234 6.78027 21.6149C6.71191 21.1063 6.74023 20.4489 6.86426 19.6427C6.92578 19.1837 7.1084 18.8333 7.41113 18.5915C7.71484 18.3496 8.06738 18.1573 8.46973 18.0147C8.87109 17.872 9.28906 17.7449 9.72168 17.6333C10.1553 17.5216 10.5391 17.3604 10.873 17.1495C11.1328 16.9883 11.3311 16.8332 11.4668 16.6844C11.6025 16.5355 11.7021 16.3867 11.7637 16.2379C11.8252 16.089 11.8564 15.934 11.8564 15.7727C11.8564 15.6115 11.8506 15.4316 11.8379 15.2332C11.8135 14.9478 11.7139 14.7215 11.541 14.554C11.3682 14.3866 11.1758 14.216 10.9658 14.0424C10.8662 13.9556 10.7803 13.8346 10.7061 13.6796C10.6318 13.5245 10.5635 13.3664 10.502 13.2051C10.4395 13.0191 10.3779 12.8206 10.3164 12.6097C10.2295 12.5849 10.1426 12.5415 10.0566 12.4795C9.98242 12.4175 9.90137 12.3307 9.81445 12.219C9.72852 12.1074 9.6543 11.9461 9.5918 11.7353C9.51758 11.5244 9.49023 11.3322 9.50879 11.1585C9.52734 10.9849 9.56152 10.836 9.61035 10.712C9.66016 10.5755 9.74023 10.4453 9.85156 10.3213C9.83984 9.84991 9.86426 9.37857 9.92676 8.90723C9.97559 8.51028 10.0654 8.08237 10.1953 7.62344C10.3252 7.16449 10.5205 6.75516 10.7803 6.39545C11.0156 6.04816 11.2783 5.76596 11.5684 5.54889C11.8594 5.33185 12.1562 5.16129 12.46 5.03723C12.7627 4.91321 13.0664 4.82947 13.3691 4.78607C13.6719 4.74265 13.9658 4.72095 14.251 4.72095Z" fill-rule="evenodd" fill="#2374D6"/>
	<defs/>
</svg>
