<svg width="25.000000" height="24.000000" viewBox="0 0 25 24" fill="none" xmlns="http://www.w3.org/2000/svg" xmlns:xlink="http://www.w3.org/1999/xlink">
	<desc>
			Created with Pixso.
	</desc>
	<path d="M4.65771 20.079C3.50684 20.079 2.52979 21.0955 2.52979 22.3297L2.52979 23.0198C2.52979 23.1497 2.55371 23.2748 2.60156 23.3949C2.6499 23.515 2.71826 23.621 2.80664 23.7129C2.89551 23.8048 2.99756 23.8756 3.11328 23.9254C3.229 23.9751 3.34961 24 3.4751 24L21.4365 24C21.562 24 21.6821 23.9751 21.7983 23.9254C21.9141 23.8756 22.0161 23.8048 22.105 23.7129C22.1934 23.621 22.2617 23.515 22.3096 23.3949C22.3579 23.2748 22.3818 23.1497 22.3818 23.0198L22.3818 22.3292C22.417 21.095 21.4746 20.0785 20.2881 20.0785L4.65771 20.079ZM0.000488281 15.0993C0.000488281 16.6315 1.18701 17.893 2.68066 17.893L22.3198 17.893C23.7695 17.893 25 16.6315 25 15.0993L25 0.980225C25 0.850281 24.9761 0.72522 24.9282 0.605103C24.8799 0.485046 24.8115 0.379028 24.7231 0.287109C24.6343 0.19519 24.5322 0.12439 24.4165 0.074646C24.3008 0.0249023 24.1802 0 24.0547 0L0.945312 0C0.819824 0 0.699219 0.0249023 0.583496 0.074646C0.467773 0.12439 0.365723 0.19519 0.276855 0.287109C0.188477 0.379028 0.120117 0.485046 0.0717773 0.605103C0.0239258 0.72522 0 0.850281 0 0.980225L0.000488281 15.0993ZM17.355 6.67108C17.0034 6.31036 17.0034 5.76929 17.355 5.40906C17.7065 5.04828 18.2339 5.04828 18.5415 5.40906L21.6172 8.69922C21.9683 9.05951 21.9683 9.60059 21.6172 9.96082L18.541 13.251C18.1899 13.6118 17.6626 13.6118 17.355 13.251C17.0034 12.8903 17.0034 12.3492 17.355 11.989L19.8594 9.33002L17.355 6.67108ZM10.7637 13.251L12.9165 4.77777C13.0483 4.28223 13.4878 4.01166 13.9707 4.14697C14.4102 4.28223 14.6743 4.77777 14.5864 5.27374L12.4336 13.7471C12.3018 14.2426 11.8628 14.5131 11.3794 14.3779C10.896 14.1975 10.6323 13.7015 10.7637 13.251ZM7.16162 5.36395C7.51318 5.00323 8.04102 5.00323 8.34814 5.36395C8.69971 5.72418 8.69971 6.26526 8.34814 6.62604L5.84375 9.28497L8.34814 11.9439C8.69971 12.3046 8.69971 12.8457 8.34814 13.2059C7.99658 13.5667 7.46924 13.5667 7.16162 13.2059L4.08643 9.91571C3.73486 9.55548 3.73486 9.0144 4.08643 8.65417L7.16162 5.36395Z" fill-rule="evenodd" fill="#FFFFFF"/>
	<defs/>
</svg>
