<svg width="30.000000" height="28.000000" viewBox="0 0 30 28" fill="none" xmlns="http://www.w3.org/2000/svg" xmlns:xlink="http://www.w3.org/1999/xlink">
	<desc>
			Created with Pixso.
	</desc>
	<path d="M9.11743 12.0188L9.11743 8.46637L21.8416 8.46637C23.189 8.46637 24.3586 9.24762 24.9434 10.3925C25.3826 9.75421 25.6406 8.97552 25.6406 8.13495C25.6406 5.97015 23.9292 4.21521 21.8181 4.21521L9.11743 4.21521L9.11743 0.648743C9.11743 0.123657 8.53979 -0.183167 8.12158 0.11969L0.267334 5.80469C-0.0891113 6.06274 -0.0891113 6.6048 0.267334 6.86285L8.12158 12.5479C8.53979 12.8506 9.11743 12.5438 9.11743 12.0188ZM29.7327 21.1371L21.8784 15.4521C21.4602 15.1493 20.8826 15.4561 20.8826 15.9811L20.8826 19.5337L8.15869 19.5337C6.81104 19.5337 5.64136 18.7524 5.05664 17.6076C4.61743 18.2458 4.35938 19.0245 4.35938 19.8651C4.35938 22.0299 6.0708 23.7848 8.18188 23.7848L20.8826 23.7848L20.8826 27.3513C20.8826 27.8763 21.4602 28.1832 21.8784 27.8803L29.7327 22.1953C30.0891 21.9372 30.0891 21.3951 29.7327 21.1371Z" fill-rule="evenodd" fill="#FFFFFF"/>
	<defs/>
</svg>
