<svg width="27.000000" height="27.000000" viewBox="0 0 27 27" fill="none" xmlns="http://www.w3.org/2000/svg" xmlns:xlink="http://www.w3.org/1999/xlink">
	<desc>
			Created with Pixso.
	</desc>
	<path d="M27 21.6C27 24.5455 24.6558 27 21.6948 27C18.7339 27 16.2666 24.6682 16.2666 21.7227C16.2666 21.3546 16.2666 20.8636 16.3901 20.4955L9.48096 17.0591C7.50732 19.2682 4.05273 19.5136 1.83203 17.55C-0.388672 15.5864 -0.635254 12.15 1.33838 9.94092C3.3125 7.73181 6.76709 7.48639 8.98779 9.45001C9.23438 9.57275 9.35791 9.81818 9.48096 9.94092L16.3901 6.50452C16.2666 6.13635 16.2666 5.76819 16.2666 5.40002C16.1431 2.45453 18.4873 0 21.5718 0C24.5327 0 27 2.33185 27 5.40002C27 8.34546 24.6558 10.8 21.5718 10.8C19.9678 10.8 18.4873 10.1863 17.5005 8.95911L10.7148 12.3954C10.8384 13.1318 10.8384 13.8682 10.7148 14.6046L17.5005 18.0409C19.4741 15.8318 22.9287 15.5864 25.1494 17.55C26.3833 18.5318 27 20.0046 27 21.6Z" fill-rule="evenodd" fill="#FFFFFF"/>
	<defs/>
</svg>
