<svg width="30.000000" height="30.000000" viewBox="0 0 30 30" fill="none" xmlns="http://www.w3.org/2000/svg" xmlns:xlink="http://www.w3.org/1999/xlink">
	<desc>
			Created with Pixso.
	</desc>
	<path d="M29.9219 19.0763C29.9648 19.334 29.9541 19.6456 29.8901 20.0107C29.8257 20.3759 29.7183 20.7465 29.5684 21.1224C29.418 21.4984 29.2358 21.8367 29.021 22.1375C28.8066 22.4382 28.5708 22.6531 28.3135 22.782C28.0562 22.9108 27.8306 22.9753 27.6377 22.9753C27.4448 22.9753 27.23 22.9323 26.9941 22.8464C26.7798 22.782 26.5117 22.7229 26.1899 22.6692C25.8682 22.6155 25.541 22.6047 25.2085 22.637C24.876 22.6692 24.5435 22.739 24.2109 22.8464C23.8789 22.9538 23.5947 23.1364 23.3584 23.3942C22.8438 23.9313 22.5435 24.5435 22.4575 25.231C22.3721 25.9184 22.4683 26.5735 22.7471 27.1965C22.9619 27.6262 22.9297 28.0558 22.6509 28.4855C22.522 28.6573 22.3184 28.8346 22.0396 29.0172C21.7607 29.1998 21.4551 29.3663 21.1226 29.5167C20.79 29.6671 20.4414 29.7852 20.0767 29.8711C19.7119 29.957 19.3906 30 19.1113 30C18.9185 30 18.7363 29.9248 18.5645 29.7744C18.3931 29.6241 18.2749 29.463 18.2104 29.2911C17.9746 28.6251 17.5405 28.0505 16.9722 27.5671C16.4033 27.0838 15.7441 26.8421 14.9932 26.8421C14.2642 26.8421 13.6045 27.0838 13.0146 27.5671C12.4248 28.0505 12.0117 28.6144 11.7759 29.2589C11.6685 29.5167 11.5078 29.7046 11.293 29.8228C11.0786 29.9409 10.8428 30 10.5854 30C10.2852 30 9.94727 29.9463 9.57178 29.8389C9.19629 29.7314 8.82129 29.5972 8.4458 29.4361C8.07031 29.275 7.73242 29.087 7.43213 28.8722C7.13184 28.6573 6.90674 28.4425 6.75684 28.2277C6.64941 28.0773 6.59033 27.9001 6.57959 27.696C6.56885 27.4919 6.64941 27.2073 6.8208 26.8421C7.05713 26.348 7.14795 25.7841 7.09424 25.1504C7.04102 24.5167 6.76709 23.9313 6.27393 23.3942C5.97363 23.072 5.60889 22.8625 5.18018 22.7659C4.75098 22.6692 4.34375 22.6316 3.95752 22.6531C3.50684 22.6746 3.0459 22.7605 2.57373 22.9108C2.27344 22.9968 1.97314 22.9753 1.67285 22.8464C1.43701 22.7605 1.21729 22.5618 1.01367 22.2502C0.80957 21.9388 0.627441 21.595 0.466309 21.2191C0.305664 20.8432 0.182129 20.4565 0.0966797 20.0591C0.0107422 19.6617 -0.0107422 19.334 0.0322266 19.0763C0.0966797 18.6036 0.311035 18.3029 0.675781 18.174C1.31934 17.9162 1.89844 17.4919 2.41309 16.9012C2.92773 16.3104 3.18506 15.6498 3.18506 14.9194C3.18506 14.1675 2.92773 13.5123 2.41309 12.9538C1.89844 12.3953 1.31934 11.9871 0.675781 11.7293C0.482422 11.6649 0.321777 11.5092 0.192871 11.2621C0.0644531 11.015 0 10.7626 0 10.5048C0 10.2256 0.0429688 9.91406 0.128906 9.57037C0.214355 9.22662 0.327148 8.89368 0.466309 8.57141C0.605957 8.24921 0.766602 7.9538 0.949219 7.6853C1.13135 7.41675 1.33008 7.21802 1.54443 7.08917C1.71582 6.98175 1.88232 6.93878 2.04297 6.96027C2.2041 6.98175 2.38086 7.02472 2.57373 7.08917C3.21729 7.34692 3.8877 7.42749 4.58496 7.33081C5.28174 7.23413 5.89844 6.92804 6.43506 6.41248C6.69238 6.15466 6.87988 5.83783 6.99805 5.46185C7.11572 5.08594 7.19092 4.71533 7.22314 4.35016C7.25537 3.98499 7.25537 3.65198 7.22314 3.35126C7.19092 3.05048 7.16406 2.83563 7.14258 2.70679C7.09961 2.57788 7.0625 2.42749 7.03027 2.25562C6.99805 2.0838 7.01416 1.93341 7.07812 1.8045C7.20703 1.50378 7.4375 1.2406 7.77002 1.01501C8.10254 0.78949 8.46191 0.601501 8.84814 0.451111C9.23389 0.300781 9.60938 0.187988 9.97412 0.112793C10.3389 0.0375977 10.6284 0 10.8428 0C11.1216 0 11.3413 0.0913086 11.5024 0.273926C11.6631 0.456482 11.7759 0.64447 11.8403 0.83783C12.0762 1.41785 12.4624 1.92804 12.9985 2.36841C13.5347 2.80884 14.1675 3.02899 14.8965 3.02899C15.6475 3.02899 16.3125 2.81952 16.8916 2.40063C17.4707 1.98175 17.8784 1.45007 18.1143 0.805603C18.1997 0.633728 18.334 0.456482 18.5161 0.273926C18.6987 0.0913086 18.8862 0 19.0796 0C19.3799 0 19.7065 0.0429688 20.0605 0.128906C20.4146 0.214844 20.7632 0.332947 21.1064 0.483337C21.4497 0.633728 21.7661 0.827087 22.0557 1.06335C22.3452 1.29968 22.5757 1.5575 22.7471 1.83673C22.8545 2.00861 22.8867 2.19653 22.8438 2.40063C22.8008 2.60474 22.7578 2.74976 22.7148 2.83563C22.436 3.45862 22.3506 4.11383 22.4575 4.80127C22.5649 5.48871 22.876 6.09021 23.3906 6.60577C23.9053 7.1214 24.5381 7.40601 25.2891 7.45972C26.0396 7.51343 26.7368 7.38989 27.3804 7.08917C27.5518 6.98175 27.7612 6.93878 28.0078 6.96027C28.2544 6.98175 28.4634 7.07843 28.6353 7.25024C28.957 7.55103 29.2412 8.00751 29.4878 8.61975C29.7344 9.23199 29.9009 9.84961 29.9863 10.4726C30.0293 10.8378 29.9702 11.1224 29.8096 11.3265C29.6484 11.5306 29.4824 11.6649 29.311 11.7293C28.646 11.9656 28.0776 12.3792 27.6055 12.9699C27.1338 13.5607 26.8979 14.232 26.8979 14.9839C26.8979 15.7143 27.0962 16.3534 27.4932 16.9012C27.8896 17.449 28.4102 17.8411 29.0532 18.0773C29.2036 18.1633 29.332 18.2492 29.4395 18.3351C29.6753 18.5284 29.8364 18.7755 29.9219 19.0763ZM14.9609 21.9764C15.9263 21.9764 16.8379 21.7938 17.6958 21.4286C18.5537 21.0634 19.2993 20.5585 19.9321 19.9141C20.5649 19.2696 21.0635 18.5231 21.4282 17.6746C21.793 16.826 21.9751 15.9183 21.9751 14.9517C21.9751 13.985 21.793 13.0773 21.4282 12.2288C21.0635 11.3802 20.5649 10.6391 19.9321 10.0054C19.2993 9.37164 18.5537 8.87219 17.6958 8.50696C16.8379 8.14178 15.9263 7.95917 14.9609 7.95917C13.9956 7.95917 13.0894 8.14178 12.2422 8.50696C11.395 8.87219 10.6553 9.37164 10.0225 10.0054C9.38965 10.6391 8.89062 11.3802 8.52637 12.2288C8.16162 13.0773 7.979 13.985 7.979 14.9517C7.979 15.9184 8.16162 16.826 8.52637 17.6746C8.89062 18.5231 9.38965 19.2696 10.0225 19.9141C10.6553 20.5585 11.395 21.0634 12.2422 21.4286C13.0894 21.7938 13.9956 21.9764 14.9609 21.9764Z" fill-rule="evenodd" fill="#FFFFFF"/>
	<defs/>
</svg>
