<svg width="111.000000" height="68.966553" viewBox="0 0 111 68.9666" fill="none" xmlns="http://www.w3.org/2000/svg" xmlns:xlink="http://www.w3.org/1999/xlink">
	<desc>
			Created with Pixso.
	</desc>
	<path d="M5 0L106 0C108.761 0 111 2.23853 111 5L111 57C111 59.7615 108.761 62 106 62L65.6093 62C64.1154 62 62.6998 62.668 61.75 63.821L59.0116 67.1455C56.8948 69.7153 52.9047 69.5374 51.0252 66.7891L49.2392 64.1775C48.3073 62.8149 46.7628 62 45.112 62L5 62C2.23859 62 0 59.7615 0 57L0 5C0 2.23853 2.23859 0 5 0Z" fill-rule="evenodd" fill="#104D93"/>
	<defs/>
</svg>
