<svg width="759.465210" height="302.656494" viewBox="0 0 759.465 302.656" fill="none" xmlns="http://www.w3.org/2000/svg" xmlns:xlink="http://www.w3.org/1999/xlink">
	<desc>
			Created with Pixso.
	</desc>
	<path d="M5.90344 7.6687L742.402 7.6687L754.408 19.4067L754.408 276.507L734.339 296.41L16.939 296.41L5.90344 285.074L5.90344 7.6687Z" fill-rule="evenodd" fill="#104D93"/>
	<path d="M16.939 296.41L5.90344 285.074L5.90344 7.6687L742.402 7.6687L754.408 19.4067L754.408 276.507L734.339 296.41L16.939 296.41ZM6.90393 8.66919L6.90393 284.668L17.3613 295.41L733.927 295.41L753.407 276.09L753.407 19.8279L741.994 8.66919L6.90393 8.66919Z" fill-rule="evenodd" fill="#FFFFFF"/>
	<path d="M15.3507 0L160.222 0.748291L167.951 8.41699L5.90344 7.66882L15.3507 0Z" fill-rule="evenodd" fill="#FFFFFF"/>
	<path d="M579.528 300.839L672.996 300.839L677.626 296.245L573.868 296.245L579.528 300.839Z" fill-rule="evenodd" fill="#FFFFFF"/>
	<path d="M166.492 0.705078L172.091 0.705078L179.821 8.3739L174.343 8.3739L166.492 0.705078Z" fill-rule="evenodd" fill="#FFFFFF"/>
	<path d="M178.404 0.705078L181.071 0.705078L188.8 8.3739L186.255 8.3739L178.404 0.705078Z" fill-rule="evenodd" fill="#FFFFFF"/>
	<path d="M186.868 0.705078L189.535 0.705078L197.264 8.3739L194.719 8.3739L186.868 0.705078Z" fill-rule="evenodd" fill="#FFFFFF"/>
	<path d="M195.332 0.705078L197.999 0.705078L205.728 8.3739L203.183 8.3739L195.332 0.705078Z" fill-rule="evenodd" fill="#FFFFFF"/>
	<path d="M754.052 280.991L754.052 296.263L738.781 296.263L754.052 280.991Z" fill-rule="evenodd" fill="#FFFFFF"/>
	<path d="M667.757 3.2688L743.461 3.2688L758.465 18.2727L758.465 47.593" stroke="#FFFFFF" stroke-width="2.000000"/>
	<path d="M91.7079 301.362L16.0039 301.362L1 286.358L1 257.038" stroke="#FFFFFF" stroke-width="2.000000"/>
	<line y1="46.887085" x2="757.465088" y2="129.259399" stroke="#FFFFFF" stroke-width="2.000000"/>
	<line x1="96.277100" y1="300.656494" x2="196.300659" y2="300.656494" stroke="#FFFFFF" stroke-width="2.000000"/>
	<defs/>
</svg>
