<svg width="29.000000" height="29.000000" viewBox="0 0 29 29" fill="none" xmlns="http://www.w3.org/2000/svg" xmlns:xlink="http://www.w3.org/1999/xlink">
	<desc>
			Created with Pixso.
	</desc>
	<circle cx="14.500000" cy="14.500000" r="14.500001" fill="#DFDFDF"/>
	<path d="M18.5791 22.4489C18.6367 22.3676 18.6836 22.2809 18.7207 22.1886C20.5752 21.0056 21.9111 19.0981 22.4443 16.8889C22.5469 16.8786 22.6465 16.8593 22.7451 16.831C22.8438 16.8027 22.9395 16.7658 23.0312 16.7204C23.123 16.675 23.2109 16.6217 23.2939 16.5605C23.376 16.4993 23.4531 16.4313 23.5234 16.3563C23.5947 16.2814 23.6582 16.2007 23.7148 16.1144C23.7705 16.028 23.8193 15.9373 23.8594 15.8422C23.9004 15.7471 23.9316 15.6491 23.9551 15.5483C23.9785 15.4475 23.9922 15.3454 23.998 15.2421C24.0029 15.1387 23.999 15.0357 23.9863 14.933C23.9727 14.8304 23.9512 14.7297 23.9209 14.631C23.8896 14.5322 23.8506 14.437 23.8027 14.3453C23.7559 14.2536 23.7002 14.1669 23.6377 14.0851C23.5742 14.0034 23.5049 13.9279 23.4287 13.8586C23.3525 13.7893 23.2715 13.7274 23.1846 13.6728C23.0967 13.6181 23.0059 13.5717 22.9111 13.5335C22.8154 13.4953 22.7178 13.4659 22.6172 13.4453C22.0391 9.2379 18.6299 6 14.5 6C10.3711 6 6.96191 9.2379 6.38379 13.4453C6.2832 13.4658 6.18555 13.4952 6.08984 13.5334C5.99414 13.5716 5.90332 13.618 5.81641 13.6725C5.72949 13.7271 5.64746 13.789 5.57129 13.8582C5.49512 13.9275 5.42578 14.003 5.36328 14.0847C5.2998 14.1664 5.24512 14.2531 5.19727 14.3448C5.14941 14.4364 5.11035 14.5316 5.08008 14.6303C5.04883 14.729 5.02734 14.8297 5.01367 14.9323C5.00098 15.035 4.99707 15.138 5.00195 15.2413C5.00684 15.3447 5.02148 15.4467 5.04492 15.5475C5.06738 15.6484 5.09961 15.7463 5.13965 15.8414C5.18066 15.9365 5.22852 16.0273 5.28516 16.1136C5.3418 16.2001 5.40527 16.2807 5.47559 16.3557C5.5459 16.4307 5.62305 16.4988 5.70605 16.56C5.78809 16.6212 5.87598 16.6745 5.96777 16.72C6.05957 16.7655 6.15527 16.8025 6.25391 16.8308C6.35254 16.8592 6.45215 16.8786 6.55469 16.8889C6.61523 17.1408 6.6875 17.3895 6.76953 17.6352C6.78613 17.6915 6.81348 17.7421 6.85156 17.7873C6.88867 17.8324 6.93359 17.8684 6.98535 17.8952C7.03711 17.9221 7.0918 17.9377 7.15039 17.942C7.20801 17.9464 7.26465 17.9391 7.32031 17.9203C7.37598 17.9014 7.4248 17.8725 7.46875 17.8334C7.5127 17.7943 7.54688 17.7482 7.57129 17.6951C7.59668 17.642 7.61035 17.586 7.61328 17.5272C7.61621 17.4684 7.60742 17.4114 7.58691 17.3562C7.30273 16.4991 7.16016 15.6186 7.16016 14.7146C7.16016 10.3782 10.4521 6.87181 14.5 6.87181C18.5488 6.87181 21.8398 10.3791 21.8398 14.7137C21.8398 17.3257 20.6348 19.704 18.7002 21.1477C18.6592 21.0571 18.6084 20.9723 18.5479 20.8934C18.4883 20.8145 18.4199 20.7434 18.3428 20.6803C18.2666 20.6172 18.1846 20.5636 18.0957 20.5195C18.0068 20.4754 17.915 20.4419 17.8184 20.4192C17.7227 20.3964 17.625 20.3848 17.5264 20.3846C17.4277 20.3843 17.3301 20.3952 17.2344 20.4175C17.1377 20.4397 17.0449 20.4726 16.9561 20.5162C16.8672 20.5598 16.7852 20.6129 16.708 20.6756C16.6318 20.7383 16.5625 20.8089 16.502 20.8875C16.4414 20.966 16.3896 21.0505 16.3486 21.1409C16.3066 21.2313 16.2754 21.3252 16.2549 21.4228C16.2354 21.5203 16.2256 21.6189 16.2275 21.7186C16.2295 21.8182 16.2432 21.9164 16.2666 22.013C16.291 22.1096 16.3262 22.2023 16.3711 22.2909C16.416 22.3795 16.4707 22.4618 16.5352 22.5379C16.5986 22.6139 16.6699 22.6817 16.749 22.7412C16.8281 22.8007 16.9131 22.8505 17.0039 22.8904C17.0938 22.9304 17.1875 22.9595 17.2852 22.9778C17.3818 22.9961 17.4795 23.0031 17.5781 22.9988C17.6768 22.9945 17.7744 22.979 17.8691 22.9523C17.9639 22.9257 18.0557 22.8885 18.1416 22.8409C18.2285 22.7932 18.3086 22.7363 18.3828 22.6701C18.457 22.604 18.5225 22.5302 18.5791 22.4489ZM13.9082 20.3555C14.1055 20.3751 14.3027 20.3849 14.501 20.3849C14.6992 20.3849 14.8965 20.3751 15.0938 20.3555C15.29 20.3359 15.4863 20.3066 15.6807 20.2676C15.874 20.2286 16.0664 20.1801 16.2559 20.1221C16.4453 20.0641 16.6309 19.9968 16.8145 19.9203C16.9971 19.8439 17.1758 19.7585 17.3506 19.6643C17.5254 19.5701 17.6943 19.4674 17.8594 19.3564C18.0234 19.2454 18.1826 19.1264 18.3359 18.9996C18.4883 18.8728 18.6348 18.7388 18.7754 18.5975C18.915 18.4561 19.0479 18.3082 19.1738 18.1537C19.2988 17.9992 19.417 17.8389 19.5264 17.6727C19.6367 17.5065 19.7383 17.3353 19.832 17.159C19.9248 16.9827 20.0098 16.8023 20.085 16.6176C20.1611 16.433 20.2275 16.245 20.2852 16.0537C20.3428 15.8625 20.3906 15.6688 20.4297 15.4728C20.4678 15.2768 20.4971 15.0793 20.5166 14.8804C20.5361 14.6815 20.5459 14.4821 20.5459 14.2822C20.5459 14.0824 20.5361 13.883 20.5166 13.6841C20.4971 13.4851 20.4678 13.2877 20.4297 13.0917C20.3906 12.8956 20.3428 12.702 20.2852 12.5107C20.2275 12.3194 20.1611 12.1315 20.085 11.9468C20.0098 11.7622 19.9248 11.5817 19.832 11.4054C19.7383 11.2292 19.6367 11.0579 19.5264 10.8918C19.417 10.7256 19.2988 10.5652 19.1738 10.4107C19.0479 10.2562 18.915 10.1083 18.7754 9.96698C18.6348 9.82565 18.4883 9.69159 18.3359 9.5648C18.1826 9.438 18.0234 9.31908 17.8594 9.20804C17.6943 9.09699 17.5254 8.99437 17.3506 8.90015C17.1758 8.80593 16.9971 8.72058 16.8145 8.64409C16.6309 8.5676 16.4453 8.50035 16.2559 8.44233C16.0664 8.38432 15.874 8.33581 15.6807 8.29681C15.4863 8.25782 15.29 8.22853 15.0938 8.20894C14.8965 8.18935 14.6992 8.17955 14.501 8.17955C14.3027 8.17955 14.1055 8.18935 13.9082 8.20894C13.7119 8.22853 13.5156 8.25782 13.3213 8.29681C13.1279 8.33581 12.9355 8.38432 12.7461 8.44233C12.5566 8.50035 12.3711 8.5676 12.1875 8.64409C12.0049 8.72058 11.8262 8.80593 11.6514 8.90015C11.4766 8.99437 11.3076 9.09699 11.1426 9.20804C10.9785 9.31908 10.8193 9.438 10.666 9.5648C10.5137 9.69159 10.3672 9.82565 10.2266 9.96698C10.0869 10.1083 9.9541 10.2562 9.82812 10.4107C9.70312 10.5652 9.58496 10.7256 9.47559 10.8918C9.36523 11.0579 9.26367 11.2292 9.16992 11.4054C9.07715 11.5817 8.99219 11.7622 8.91699 11.9468C8.84082 12.1315 8.77441 12.3194 8.7168 12.5107C8.65918 12.702 8.61133 12.8956 8.57227 13.0917C8.53418 13.2877 8.50488 13.4851 8.48535 13.6841C8.46582 13.883 8.45605 14.0824 8.45605 14.2822C8.45605 14.4821 8.46582 14.6815 8.48535 14.8804C8.50488 15.0793 8.53418 15.2768 8.57227 15.4728C8.61133 15.6688 8.65918 15.8625 8.7168 16.0537C8.77441 16.245 8.84082 16.433 8.91699 16.6176C8.99219 16.8023 9.07715 16.9827 9.16992 17.159C9.26367 17.3353 9.36523 17.5065 9.47559 17.6727C9.58496 17.8389 9.70312 17.9992 9.82812 18.1537C9.9541 18.3082 10.0869 18.4561 10.2266 18.5975C10.3672 18.7388 10.5137 18.8728 10.666 18.9996C10.8193 19.1264 10.9785 19.2454 11.1426 19.3564C11.3076 19.4674 11.4766 19.5701 11.6514 19.6643C11.8262 19.7585 12.0049 19.8439 12.1875 19.9203C12.3711 19.9968 12.5566 20.0641 12.7461 20.1221C12.9355 20.1801 13.1279 20.2286 13.3213 20.2676C13.5156 20.3066 13.7119 20.3359 13.9082 20.3555ZM17.9551 15.5899C17.9551 16.3118 16.4092 17.7695 14.501 17.7695C12.5928 17.7695 11.0469 16.3118 11.0469 15.5899C11.0469 15.2138 11.4668 15.348 12.1387 15.5628C12.7559 15.7602 13.5869 16.0258 14.501 16.0258C15.415 16.0258 16.2461 15.7602 16.8633 15.5628C17.5352 15.348 17.9551 15.2138 17.9551 15.5899Z" fill-rule="evenodd" fill="#606060" fill-opacity="1.000000"/>
	<defs/>
</svg>
