<svg width="23.742188" height="20.824341" viewBox="0 0 23.7422 20.8243" fill="none" xmlns="http://www.w3.org/2000/svg" xmlns:xlink="http://www.w3.org/1999/xlink">
	<desc>
			Created with Pixso.
	</desc>
	<path d="M9.09766 4.13095C9.10742 4.5119 8.78418 4.86841 8.37305 4.94272C8.30859 4.95135 8.24512 4.95135 8.18066 4.94269L0.938477 4.94269C0.460938 4.95551 0.0078125 4.56729 0 4.13095L0 0.821259C0.0078125 0.381836 0.463867 -0.00442505 0.938477 3.05176e-05L8.18066 3.05176e-05C8.6543 3.05176e-05 9.09766 0.386292 9.09766 0.821259L9.09766 4.13095ZM20.9082 4.13095C20.9131 4.5119 20.5742 4.86841 20.1582 4.94272C20.1006 4.95139 20.0439 4.95139 19.9863 4.94269L12.7314 4.94269C12.2578 4.94269 11.8135 4.55811 11.8135 4.13095L11.8135 0.821259C11.8135 0.386292 12.2578 3.05176e-05 12.7314 3.05176e-05L19.9863 3.05176e-05C20.4629 3.05176e-05 20.9082 0.386292 20.9082 0.821259L20.9082 4.13095ZM9.09766 12.0287C9.10742 12.4097 8.78418 12.7665 8.37305 12.8405C8.30859 12.8495 8.24512 12.8495 8.18066 12.8405L0.938477 12.8405C0.460938 12.8533 0.0078125 12.4651 0 12.0287L0 8.71878C0.0078125 8.27936 0.463867 7.8931 0.938477 7.89755L8.18066 7.89755C8.6543 7.89755 9.09766 8.28381 9.09766 8.71878L9.09766 12.0287ZM21.5684 8.14865C21.748 8.14865 21.9121 8.21698 22.0361 8.34512L23.5479 9.87433C23.6689 9.9968 23.7422 10.1676 23.7422 10.3442C23.7422 10.5179 23.6748 10.6888 23.5479 10.8141L22.4238 12.0955L19.9072 9.55255L21.1006 8.34512C21.2246 8.22269 21.3936 8.14865 21.5684 8.14865ZM11.8174 20.2029L11.8174 17.6599L19.1133 10.2104L21.6299 12.759L14.3408 20.2029L11.8174 20.2029ZM9.09766 20.0059C9.10742 20.3868 8.78418 20.7436 8.37305 20.8176C8.30859 20.8266 8.24512 20.8266 8.18066 20.8176L0.938477 20.8176C0.460938 20.8307 0.0078125 20.4422 0 20.0059L0 16.6962C0.0078125 16.2568 0.463867 15.8705 0.938477 15.8749L8.18066 15.8749C8.6543 15.8749 9.09766 16.2612 9.09766 16.6962L9.09766 20.0059Z" fill-rule="evenodd" fill="#FFFFFF" fill-opacity="1.000000"/>
	<defs/>
</svg>
