<svg width="25.757034" height="26.674316" viewBox="0 0 25.757 26.6743" fill="none" xmlns="http://www.w3.org/2000/svg" xmlns:xlink="http://www.w3.org/1999/xlink">
	<desc>
			Created with Pixso.
	</desc>
	<path d="M23.8801 13.5779C23.7438 13.4363 23.5641 13.3608 23.3659 13.3608C23.1739 13.3608 22.9881 13.4426 22.8518 13.5779L21.5385 14.9114L24.3075 17.72L25.5433 16.3047C25.6827 16.1663 25.757 15.9775 25.757 15.7856C25.757 15.5908 25.6765 15.4021 25.5433 15.2668L23.8801 13.5779ZM14.8267 10.6057L6.83571 10.6057C5.95918 10.6057 5.24989 9.88525 5.24989 8.99829C5.24989 8.1084 5.95918 7.39111 6.83571 7.39111L14.8267 7.39111C15.7032 7.39111 16.4125 8.11157 16.4125 8.99829C16.4125 9.88843 15.7032 10.6057 14.8267 10.6057ZM11.6148 17.072L6.83571 17.072C5.95918 17.072 5.24989 16.3518 5.24989 15.4648C5.24989 14.575 5.95918 13.8577 6.83571 13.8577L11.6148 13.8577C12.4913 13.8577 13.2006 14.5779 13.2006 15.4648C13.2006 16.355 12.4914 17.072 11.6148 17.072ZM18.4722 0L3.84993 0C1.72519 0 0 1.74878 0 3.90625L0 22.7681C0 24.9258 1.72519 26.6743 3.84993 26.6743L9.16797 26.6743L9.16797 23.1738L22.3252 9.51733L22.3252 3.90942C22.3252 1.75195 20.6001 0 18.4722 0ZM12.64 23.8657L12.64 26.6743L15.4152 26.6743L23.4341 18.4529L20.6651 15.6379L12.64 23.8657Z" fill-rule="evenodd" fill="#FFFFFF"/>
	<defs/>
</svg>
