<svg width="33.484131" height="33.558105" viewBox="0 0 33.4841 33.5581" fill="none" xmlns="http://www.w3.org/2000/svg" xmlns:xlink="http://www.w3.org/1999/xlink">
	<desc>
			Created with Pixso.
	</desc>
	<path d="M16.7421 3.35571C14.3982 3.35571 12.0543 4.02686 10.0453 5.20142C9.20813 5.70483 8.20361 5.36938 7.70135 4.53027C7.1991 3.69141 7.53394 2.68457 8.37103 2.34912C10.8824 0.838867 13.7285 0 16.7421 0C23.7737 0 29.9683 4.36255 32.3122 10.9065C32.647 11.7454 32.1448 12.7522 31.3077 13.0876C31.1403 13.2554 30.9728 13.2554 30.8054 13.2554C30.1357 13.2554 29.4661 12.7522 29.2986 12.0808C27.457 6.87939 22.267 3.35571 16.7421 3.35571ZM3.34842 16.7791C3.34842 21.4773 5.85974 26.0076 10.0453 28.3567C10.8824 28.8601 11.2172 29.8667 10.7149 30.7058C10.3801 31.209 9.71039 31.5447 9.20813 31.5447C8.87329 31.5447 8.70587 31.5447 8.37103 31.377C3.181 28.3567 0 22.8196 0 16.7791C0 12.9199 1.33936 9.06079 3.85068 6.04053C4.52036 5.36938 5.52487 5.20142 6.362 5.87256C7.03168 6.37598 7.1991 7.55054 6.52942 8.22168C4.52036 10.5708 3.34842 13.5911 3.34842 16.7791ZM23.7737 9.73193C25.1131 11.0742 25.1131 13.0876 23.7737 14.4299L15.9049 22.3162L11.2172 17.6179L19.0859 9.73193C20.4253 8.3894 22.4344 8.3894 23.7737 9.73193ZM30.1357 16.7791C30.1357 15.9402 30.8054 15.1011 31.8099 15.1011C32.8145 15.1011 33.4841 15.7722 33.4841 16.7791C33.4841 26.0076 25.9502 33.5581 16.7421 33.5581C15.7375 33.5581 14.733 33.5581 13.7285 33.3904C12.8914 33.2227 12.2217 32.2158 12.3891 31.377C12.5565 30.5378 13.3936 29.8667 14.3982 30.0344C15.2353 30.2024 15.905 30.2024 16.7421 30.2024C24.1086 30.2024 30.1357 24.1619 30.1357 16.7791ZM9.71039 24.833C9.04071 25.0007 8.53842 24.4973 8.70587 23.8262L10.0452 18.7925L14.733 23.4907L9.71039 24.833Z" fill-rule="evenodd" fill="#FFFFFF" fill-opacity="1.000000"/>
	<defs/>
</svg>
