<svg width="57.000000" height="23.000000" viewBox="0 0 57 23" fill="none" xmlns="http://www.w3.org/2000/svg" xmlns:xlink="http://www.w3.org/1999/xlink">
	<desc>
			Created with Pixso.
	</desc>
	<path d="M4.81152 0L10.9004 0L46.1743 0L52.1887 0L57 4.53369L57 18.5216L52.1887 23L46.2495 23L10.9004 23L4.81152 23L0 18.5216L0 4.53369L4.81152 0Z" fill-rule="evenodd" fill="#104D93"/>
	<path d="M48.3681 16.231L48.3681 12.2388L49.4892 12.2388L49.4892 18.0493L48.3681 18.0493L48.3681 17.2529L38.5107 17.2529L38.5107 12.2388L39.6318 12.2388L39.6318 16.231L43.412 16.231L43.412 11.3569L39.1293 11.3569L39.1293 6.56836L40.206 6.56836L40.206 10.335L43.412 10.335L43.412 5.29688L44.5331 5.29688L44.5331 10.335L47.8212 10.335L47.8212 6.55469L48.9423 6.55469L48.9423 11.3569L44.5331 11.3569L44.5331 16.231L48.3681 16.231ZM24.9585 5.84033C25.7173 6.5 26.6265 7.43652 27.0469 8.06885L26.2061 8.69775C25.8267 8.05518 24.9312 7.10156 24.1758 6.38721L24.9585 5.84033ZM29.5249 11.1348L29.5249 14.4092L31.9448 13.7803C31.9448 14.0469 31.9756 14.4536 32.0029 14.6484C29.0908 15.4756 28.6704 15.6123 28.3901 15.8105C28.3047 15.5576 28.0825 15.1509 27.9287 14.9561C28.1646 14.8159 28.4893 14.5493 28.4893 13.9614L28.4893 5.91211L34.9014 5.91211L34.9014 11.1348L29.5249 11.1348ZM33.8931 8.09619L33.8931 6.78027L29.5249 6.78027L29.5249 8.09619L33.8931 8.09619ZM29.5249 8.89258L29.5249 10.2666L33.8931 10.2666L33.8931 8.89258L29.5249 8.89258ZM23.7827 10.2393L26.6538 10.2393L26.6538 15.4756C26.9614 15.6123 27.269 15.8789 27.8022 16.1729C28.7114 16.665 29.8872 16.7607 31.415 16.7607C33.0386 16.7607 35.1099 16.665 36.4531 16.5112C36.3403 16.7744 36.1729 17.2529 36.1592 17.5469C35.1646 17.6152 32.7173 17.7007 31.3843 17.7007C29.7334 17.7007 28.5439 17.5469 27.5903 17C26.9888 16.665 26.5547 16.2583 26.2334 16.2583C25.731 16.2583 25.0166 16.9863 24.2612 17.8545L23.6152 16.9863C24.3296 16.2993 25.0439 15.7388 25.6592 15.5029L25.6592 11.2168L23.7827 11.2168L23.7827 10.2393ZM34.9424 15.7695C34.1152 14.7305 32.3105 13.1787 30.8271 12.0986L31.5244 11.5825C32.0166 11.9312 32.5327 12.3105 33.0386 12.7173C33.7803 12.2251 34.6484 11.5825 35.1953 11.1074L36.0054 11.709C35.291 12.2388 34.4536 12.813 33.6948 13.2607C34.5083 13.9341 35.25 14.6074 35.7114 15.1646L34.9424 15.7695Z" fill="#FFFFFF"/>
	<path d="M15.8599 16.3237L15.8599 14.6736C15.8599 14.608 15.8728 14.5449 15.8992 14.4844C15.9253 14.4238 15.9629 14.3704 16.0112 14.324C16.0598 14.2776 16.116 14.2419 16.1792 14.2168C16.2427 14.1918 16.3088 14.1792 16.3774 14.1792C16.4602 14.1792 16.54 14.1943 16.6165 14.2246C16.6931 14.2548 16.7605 14.2979 16.8191 14.3538C16.8777 14.4097 16.9229 14.4742 16.9546 14.5472C16.9863 14.6204 17.0022 14.6964 17.0022 14.7755L17.0022 16.3237C17.0022 16.4338 16.991 16.5428 16.9685 16.6508C16.9458 16.7587 16.9126 16.8635 16.8684 16.9652C16.8242 17.0669 16.7703 17.1635 16.7063 17.255C16.6421 17.3466 16.5693 17.4312 16.4878 17.509C16.4062 17.5869 16.3176 17.6564 16.2217 17.7175C16.1257 17.7787 16.0247 17.8303 15.918 17.8724C15.8115 17.9146 15.7017 17.9463 15.5886 17.9678C15.4756 17.9893 15.3613 18 15.2461 18L10.7563 18C10.6409 18 10.5269 17.9893 10.4136 17.9678C10.3005 17.9463 10.1907 17.9146 10.0842 17.8724C9.97754 17.8303 9.87646 17.7787 9.78052 17.7175C9.68457 17.6564 9.59595 17.5869 9.5144 17.509C9.43286 17.4312 9.36011 17.3466 9.2959 17.255C9.23193 17.1635 9.17773 17.0669 9.13354 16.9652C9.0896 16.8635 9.05615 16.7587 9.03369 16.6508C9.01123 16.5428 9 16.4338 9 16.3237L9 7.67627C9 7.56616 9.01123 7.45715 9.03369 7.34924C9.05615 7.24121 9.0896 7.13647 9.13379 7.03479C9.17773 6.93298 9.23193 6.83643 9.2959 6.74487C9.36011 6.65344 9.43286 6.56873 9.5144 6.49084C9.59595 6.41309 9.68457 6.34363 9.78052 6.28247C9.87646 6.22131 9.97754 6.16968 10.0842 6.12756C10.1907 6.08545 10.3005 6.05359 10.4136 6.03223C10.5269 6.01074 10.6409 6 10.7563 6L15.2461 6C15.3613 6 15.4756 6.01074 15.5886 6.03223C15.7017 6.05371 15.8115 6.08545 15.918 6.12756C16.0247 6.16968 16.1257 6.22131 16.2217 6.28247C16.3176 6.34363 16.4062 6.41309 16.4878 6.49097C16.5693 6.56885 16.6421 6.65344 16.7063 6.745C16.7703 6.83655 16.8242 6.93311 16.8684 7.03479C16.9126 7.13647 16.9458 7.24133 16.9685 7.34924C16.991 7.45715 17.0022 7.56616 17.0022 7.67627L17.0022 9.32129C17.0022 9.38928 16.9885 9.45471 16.9612 9.51758C16.9341 9.58032 16.8953 9.63586 16.8447 9.68396C16.7944 9.73206 16.7363 9.76904 16.6704 9.79504C16.6047 9.82117 16.5361 9.83411 16.4648 9.83411L16.4268 9.83411C16.3516 9.83411 16.2793 9.82043 16.2097 9.79297C16.1404 9.7655 16.0791 9.72632 16.0259 9.67566C15.9727 9.62488 15.9316 9.56641 15.9031 9.50012C15.8743 9.43384 15.8599 9.36475 15.8599 9.29309L15.8599 7.67627C15.8599 7.59851 15.8442 7.5238 15.8132 7.45203C15.782 7.38025 15.7375 7.31689 15.6802 7.26196C15.6226 7.20703 15.5562 7.16467 15.481 7.13501C15.4058 7.10522 15.3274 7.09033 15.2461 7.09033L10.7563 7.09033C10.6748 7.09033 10.5964 7.10522 10.5212 7.13489C10.446 7.16467 10.3796 7.20691 10.322 7.26184C10.2646 7.31689 10.2202 7.38025 10.189 7.45203C10.158 7.5238 10.1423 7.59851 10.1423 7.67627L10.1423 16.3237C10.1423 16.4015 10.158 16.4762 10.189 16.548C10.2202 16.6198 10.2646 16.6831 10.3223 16.738C10.3796 16.793 10.446 16.8353 10.5212 16.8651C10.5967 16.8948 10.6748 16.9097 10.7563 16.9097L15.2461 16.9097C15.3274 16.9097 15.4058 16.8948 15.481 16.865C15.5562 16.8353 15.6226 16.793 15.6802 16.738C15.7375 16.6831 15.782 16.6198 15.8132 16.548C15.8442 16.4762 15.8599 16.4015 15.8599 16.3237ZM18.8706 10.3369L21 12.0131L18.8706 13.6896L18.8706 12.5453L15.4773 12.5453C15.0964 12.5453 14.906 12.3636 14.906 12.0001C14.906 11.6367 15.0964 11.455 15.4773 11.455L18.8706 11.455L18.8706 10.3369Z" fill-rule="evenodd" fill="#FFFFFF" fill-opacity="1.000000"/>
	<defs/>
</svg>
