<?xml version="1.0" standalone="no"?><!DOCTYPE svg PUBLIC "-//W3C//DTD SVG 1.1//EN" "http://www.w3.org/Graphics/SVG/1.1/DTD/svg11.dtd"><svg t="1620718688099" class="icon" viewBox="0 0 1024 1024" version="1.1" xmlns="http://www.w3.org/2000/svg" p-id="9528" xmlns:xlink="http://www.w3.org/1999/xlink" width="200" height="200"><defs><style type="text/css">@font-face { font-family: element-icons; src: url("chrome-extension://moombeodfomdpjnpocobemoiaemednkg/fonts/element-icons.woff") format("woff"), url("chrome-extension://moombeodfomdpjnpocobemoiaemednkg/fonts/element-icons.ttf ") format("truetype"); }
</style></defs><path d="M888.6 446.4l-389-315.5c-4.4-4.4-10.1-6.9-16-7.4-0.8-0.1-1.6 0-2.3 0-0.8 0-1.5-0.1-2.3 0-5.9 0.5-11.6 3-16 7.4L74 446.4c-11.1 9-12.9 25.5-3.8 36.6 9 11.1 25.5 12.9 36.6 3.8l40.2-32.6V829c0 38.3 31.2 69.5 69.5 69.5h512.3c14.4 0 26-11.7 26-26 0-14.4-11.7-26-26-26H216.4c-9.4 0-17.4-8-17.4-17.4V420.8c0-2.8-0.5-5.3-1.3-7.8l283.5-230 374.5 303.8c11.1 9 27.6 7.3 36.6-3.8 9.1-11.1 7.4-27.6-3.7-36.6z m0 0" fill="#00A3AF" p-id="9529"></path><path d="M859.1 527.7c-63.6 0-102.2 110.8-102.2 159.5 0 47.9 35.7 88.1 80.2 99.1v84.9c0 13.5 8.5 24.5 22 24.5s22-11 22-24.5v-84.9c44.6-11 80.3-51.2 80.3-99.1-0.1-48.7-38.7-159.5-102.3-159.5z m0 230.3c-35.6 0-64.6-29-64.6-64.6 0-50.2 40.5-134.2 64.6-134.2 24.1 0 64.6 84 64.6 134.2 0 35.6-29 64.6-64.6 64.6z" fill="#F96702" p-id="9530"></path><path d="M537.5 609.8h-93c-4.3 0-7.8-3.5-7.8-7.8V387.3c0-4.3 3.5-7.8 7.8-7.8h93c4.3 0 7.8 3.5 7.8 7.8V602c0 4.3-3.5 7.8-7.8 7.8z" fill="#00A3AF" p-id="9531"></path></svg>