<?xml version="1.0" standalone="no"?><!DOCTYPE svg PUBLIC "-//W3C//DTD SVG 1.1//EN" "http://www.w3.org/Graphics/SVG/1.1/DTD/svg11.dtd"><svg t="1620718858083" class="icon" viewBox="0 0 1024 1024" version="1.1" xmlns="http://www.w3.org/2000/svg" p-id="12879" xmlns:xlink="http://www.w3.org/1999/xlink" width="200" height="200"><defs><style type="text/css">@font-face { font-family: element-icons; src: url("chrome-extension://moombeodfomdpjnpocobemoiaemednkg/fonts/element-icons.woff") format("woff"), url("chrome-extension://moombeodfomdpjnpocobemoiaemednkg/fonts/element-icons.ttf ") format("truetype"); }
</style></defs><path d="M384.1 720.8v-37.4c-18.7-2.4-33.8-6.5-45.5-12.6-11.7-6-21.8-15.7-30.3-29.2-8.5-13.4-13.5-29.8-14.8-49.2l37.5-7.1c2.9 20.1 8 34.8 15.3 44.2 10.5 13.3 23.1 20.7 37.8 22.2v-119c-15.3-2.9-31-8.9-47.1-17.9-11.9-6.6-21.1-15.8-27.5-27.6-6.4-11.8-9.6-25.1-9.6-40.1 0-26.6 9.4-48.1 28.2-64.6 12.6-11.1 31.3-17.9 56-20.3v-17.9h22v17.9c21.7 2.1 38.9 8.4 51.7 19.1 16.3 13.6 26.1 32.2 29.5 55.9l-38.6 5.8c-2.2-14.7-6.8-25.9-13.8-33.7-7-7.8-16.6-13-28.7-15.5v107.8c18.8 4.7 31.3 8.4 37.3 11 11.6 5.1 21.1 11.4 28.4 18.7 7.3 7.3 13 16.1 16.9 26.2 3.9 10.1 5.9 21 5.9 32.8 0 25.9-8.2 47.5-24.7 64.8-16.5 17.3-37.8 26.6-63.9 27.8v37.8h-22z m0-327.3c-14.5 2.2-26 8-34.3 17.4-8.4 9.4-12.5 20.6-12.5 33.4 0 12.7 3.6 23.4 10.7 32 7.1 8.6 19.2 15.4 36.2 20.6V393.5z m22 258.3c14.5-1.8 26.5-8.1 36-18.9 9.5-10.8 14.2-24.2 14.2-40.1 0-13.6-3.4-24.5-10.1-32.7-6.7-8.2-20.1-15.6-40.1-22.1v113.8z" fill="#E6C27C" p-id="12880"></path><path d="M512.1 896h414.8v64H512.1z" fill="#727272" p-id="12881"></path><path d="M946.6 481.7c-17.9-17.9-46.8-17.9-64.6 0l-32.4 32.4 64.6 64.7 32.3-32.3c18-18 18-46.9 0.1-64.8zM817.3 546.5l-193.9 194 64.6 64.7 194-194.1zM526.4 902.3l129.3-64.7-64.7-64.7z" fill="#5280C1" p-id="12882"></path><path d="M479.6 852.9l37.5-75c-34.2 6-75 8.9-123 8.9-87.2 0-150.6-9.7-193.7-29.6-46.8-21.7-66.8-53.8-66.8-107.4 0-34.8 8.8-76.3 25.4-120.2 16.7-44.2 40.5-88.4 68.8-127.9 28.2-39.4 59.5-72 90.3-94.2 28-20.2 54.3-30.8 76-30.8s48 10.7 76 30.8c30.9 22.2 62.1 54.8 90.3 94.2 28.3 39.5 52.1 83.7 68.8 127.9 12.2 32.2 20.1 63.2 23.5 91.1l59.4-59.4c-35.8-141.2-146-297.8-258.1-342l102.5-100.4c9.3-9.1 12.2-22.9 7.2-35-4.9-12-16.6-19.9-29.6-19.9H254c-13.2 0-25 8.1-29.8 20.4s-1.5 26.3 8.3 35.2l106.9 97.7C201.1 267.5 64 491.4 64 649.7c0 179.4 175.8 206.6 330.1 206.6 28.2 0.1 57.1-0.8 85.5-3.4zM336.4 128h119.3l-57.6 56.4-61.7-56.4z" fill="#727272" p-id="12883"></path></svg>