<svg xmlns="http://www.w3.org/2000/svg" width="35" height="35" viewBox="0 0 35 35">
  <g id="电子证照" transform="translate(-356 -235)">
    <rect id="矩形_605" data-name="矩形 605" width="35" height="35" transform="translate(356 235)" fill="none"/>
    <g id="组_431" data-name="组 431" transform="translate(358 115.7)">
      <path id="路径_337" data-name="路径 337" d="M146.252,243.3a4.637,4.637,0,0,0-3.229,7.979,4.109,4.109,0,0,0,.686-.236c1.08-.451,1.531-.606,1.531-.606l.012-.94a2.011,2.011,0,0,1-.725-1.382c-.128.042-.337-.3-.352-.534s-.146-.943.164-.88a7.837,7.837,0,0,1,.009-1c.078-.8.63-1.5,1.931-1.5,1.423,0,1.844.7,1.922,1.5a7.331,7.331,0,0,1,.006,1c.31-.063.176.651.161.88s-.206.564-.352.534a2.009,2.009,0,0,1-.716,1.382v.934s.448.146,1.531.6a4.547,4.547,0,0,0,.668.236,4.64,4.64,0,0,0-3.247-7.964Z" transform="translate(-137.375 -114.479)" fill="#2eb1c5"/>
      <path id="路径_338" data-name="路径 338" d="M27.554,125.3H3a3.061,3.061,0,0,0-3,3v16.979a2.967,2.967,0,0,0,3,3H27.554a2.975,2.975,0,0,0,3-3V128.3A3,3,0,0,0,27.554,125.3Zm-24.06,8.161a5.383,5.383,0,1,1,5.383,5.371,5.378,5.378,0,0,1-5.383-5.371ZM27.405,145.3H7.955a.6.6,0,1,1,0-1.2h19.45a.6.6,0,1,1,0,1.2Zm0-3.357H7.955a.6.6,0,1,1,0-1.2h19.45a.6.6,0,1,1,0,1.2Zm0-4.085H17.641a.6.6,0,1,1,0-1.2h9.764a.6.6,0,1,1,0,1.2Zm0-3.482H17.641a.6.6,0,1,1,0-1.2h9.764a.6.6,0,1,1,0,1.2Zm0-3.482H17.641a.6.6,0,1,1,0-1.2h9.764a.6.6,0,1,1,0,1.2Z" fill="#2eb1c5"/>
    </g>
  </g>
</svg>
