<?xml version="1.0" standalone="no"?><!DOCTYPE svg PUBLIC "-//W3C//DTD SVG 1.1//EN" "http://www.w3.org/Graphics/SVG/1.1/DTD/svg11.dtd"><svg t="1620712447538" class="icon" viewBox="0 0 1024 1024" version="1.1" xmlns="http://www.w3.org/2000/svg" p-id="2862" xmlns:xlink="http://www.w3.org/1999/xlink" width="200" height="200"><defs><style type="text/css">@font-face { font-family: element-icons; src: url("chrome-extension://moombeodfomdpjnpocobemoiaemednkg/fonts/element-icons.woff") format("woff"), url("chrome-extension://moombeodfomdpjnpocobemoiaemednkg/fonts/element-icons.ttf ") format("truetype"); }
</style></defs><path d="M427.37066666 68.832H149.312c-33.984 0-61.792 27.808-61.792 61.792v726.048c0 33.984 27.808 61.792 61.792 61.792h278.05866666c34.12266667 0 61.792-27.66933333 61.792-61.792V130.624c0-34.12266667-27.66933333-61.792-61.792-61.792z m-93.70666666 708.672h-92.68266667c-16.992 0-30.90133333-13.90933333-30.90133333-30.90133333s13.90933333-30.89066667 30.90133333-30.89066667h92.68266667c16.992 0 30.90133333 13.89866667 30.90133333 30.89066667-0.01066667 16.992-13.90933333 30.90133333-30.90133333 30.90133333z m0-169.93066667h-92.68266667c-16.992 0-30.90133333-13.90933333-30.90133333-30.90133333s13.90933333-30.89066667 30.90133333-30.89066667h92.68266667c16.992 0 30.90133333 13.90933333 30.90133333 30.89066667-0.01066667 17.00266667-13.90933333 30.90133333-30.90133333 30.90133333z m0-169.93066666h-92.68266667c-16.992 0-30.90133333-13.90933333-30.90133333-30.89066667 0-16.992 13.90933333-30.90133333 30.90133333-30.90133333h92.68266667c16.992 0 30.90133333 13.90933333 30.90133333 30.90133333-0.01066667 16.992-13.90933333 30.89066667-30.90133333 30.89066667z m0-169.92h-92.68266667c-16.992 0-30.90133333-13.89866667-30.90133333-30.89066667 0-16.992 13.90933333-30.90133333 30.90133333-30.90133333h92.68266667c16.992 0 30.90133333 13.90933333 30.90133333 30.90133333-0.01066667 16.992-13.90933333 30.89066667-30.90133333 30.89066667z m556.832 125.51466666H612.43733333c-34.13333333 0-61.792 27.66933333-61.792 61.792v401.64266667c0 34.12266667 27.65866667 61.792 61.792 61.792h278.05866667c33.984 0 61.792-27.808 61.792-61.792V455.02933333c0-33.984-27.808-61.792-61.792-61.792z m-93.39733334 384.26666667h-92.69333333c-16.992 0-30.89066667-13.90933333-30.89066667-30.90133333s13.90933333-30.89066667 30.89066667-30.89066667h92.69333333c16.992 0 30.89066667 13.89866667 30.89066667 30.89066667 0 16.992-13.89866667 30.90133333-30.89066667 30.90133333z m0-169.93066667h-92.69333333c-16.992 0-30.89066667-13.90933333-30.89066667-30.90133333s13.90933333-30.89066667 30.89066667-30.89066667h92.69333333c16.992 0 30.89066667 13.90933333 30.89066667 30.89066667 0 17.00266667-13.89866667 30.90133333-30.89066667 30.90133333z m0 0" p-id="2863" fill="#2eb1c5"></path></svg>