<svg xmlns="http://www.w3.org/2000/svg" width="35" height="35" viewBox="0 0 35 35">
  <g id="法人基础" transform="translate(-210 -235)">
    <rect id="矩形_601" data-name="矩形 601" width="35" height="35" transform="translate(210 235)" fill="none"/>
    <path id="路径_333" data-name="路径 333" d="M95.83,129.978H93.45a.586.586,0,0,1,.6.567v1.134a.583.583,0,0,1-.6.567H69.641a.58.58,0,0,1-.593-.567v-1.134a.578.578,0,0,1,.593-.567h-3.57a1.742,1.742,0,0,1-1.783-1.7v-1.134a1.746,1.746,0,0,1,1.783-1.7H95.833a1.739,1.739,0,0,1,1.783,1.7v1.134A1.743,1.743,0,0,1,95.83,129.978Zm-18.265-14.5a1.948,1.948,0,0,0-.187.88,4.423,4.423,0,0,0,3.473,4.469c.056-.492.1-.9.1-1.056l-1.19-3.406a1.163,1.163,0,0,1,1.19-1.134h1.19a1.163,1.163,0,0,1,1.19,1.134l-1.19,3.406a10.271,10.271,0,0,1-.112,1.082,4.395,4.395,0,0,0,3.682-4.488,3.865,3.865,0,0,0-.071-.8c5.786,1.022,7.648,4.387,8.2,8.748H69.153C69.5,119.831,71,116.406,77.565,115.474Zm3.98-1.388c-2.958,0-5.357-2.8-5.357-6.245s2.4-6.241,5.357-6.241,5.357,2.8,5.357,6.245S84.5,114.086,81.546,114.086Zm0,0" transform="translate(146.712 135.4)" fill="#2eb1c5"/>
  </g>
</svg>
