<?xml version="1.0" standalone="no"?><!DOCTYPE svg PUBLIC "-//W3C//DTD SVG 1.1//EN" "http://www.w3.org/Graphics/SVG/1.1/DTD/svg11.dtd"><svg t="1620723093370" class="icon" viewBox="0 0 1024 1024" version="1.1" xmlns="http://www.w3.org/2000/svg" p-id="1831" xmlns:xlink="http://www.w3.org/1999/xlink" width="200" height="200"><defs><style type="text/css">@font-face { font-family: element-icons; src: url("chrome-extension://moombeodfomdpjnpocobemoiaemednkg/fonts/element-icons.woff") format("woff"), url("chrome-extension://moombeodfomdpjnpocobemoiaemednkg/fonts/element-icons.ttf ") format("truetype"); }
</style></defs><path d="M519.2448 962.56h-1.6128c-64.95744 0-155.93472-49.152-243.072-131.46112C208.65024 768.85504 138.24 679.6032 138.24 615.7568V255.62624A61.39904 61.39904 0 0 1 176.5376 198.656L500.224 65.9712a62.31552 62.31552 0 0 1 47.75424 0.32768L858.496 198.656A61.52192 61.52192 0 0 1 896 255.2832v360.4736c0 59.83744-66.048 151.83872-131.51744 216.46848C680.48384 915.14368 591.22176 962.56 519.2448 962.56z m4.44928-846.68928a7.13728 7.13728 0 0 0-2.69824 0.512L197.3248 249.07264a7.05536 7.05536 0 0 0-4.4032 6.5536v360.13056c0 31.38048 40.96 101.82656 119.20896 175.75424 74.9312 70.78912 155.69408 116.52608 205.75232 116.52608h1.13664c57.08288 0 134.23616-42.73152 206.99136-114.56 72.192-71.26528 115.31264-146.32448 115.31264-177.72544V255.2832a7.07584 7.07584 0 0 0-4.31104-6.51776L526.4896 116.43904a7.1168 7.1168 0 0 0-2.79552-0.56832z" fill="#2966C1" p-id="1832"></path><path d="M346.94144 433.85344a27.136 27.136 0 0 0 18.944-7.68l64.16896-61.99296a27.33568 27.33568 0 0 0-37.85728-39.424L328.00256 386.74944a27.4432 27.4432 0 0 0-0.72704 38.71744 27.16672 27.16672 0 0 0 19.66592 8.38656z m102.2208 19.456a27.32544 27.32544 0 1 0-42.78784-34.00192l-95.0784 120.4224a27.4432 27.4432 0 0 0 4.44928 38.46656 27.2384 27.2384 0 0 0 38.33856-4.46464l7.168-9.09824v122.0864a27.29472 27.29472 0 1 0 54.58432 0V495.49312z m247.2448 185.7792H609.5872v-112.3328l89.52832-1.08032a27.38176 27.38176 0 0 0-0.31744-54.784h-0.3328l-88.87808 1.0752V380.1856h78.49984a27.38176 27.38176 0 0 0 0-54.784H471.9872a27.38176 27.38176 0 0 0 0 54.784H555.008v258.87744h-35.75808V441.05216a27.2896 27.2896 0 1 0-54.58432 0v198.01088h-10.1376a27.38176 27.38176 0 0 0 0 54.784h241.87904a27.38176 27.38176 0 0 0 0-54.784z" fill="#FD9A16" p-id="1833"></path></svg>