<?xml version="1.0" standalone="no"?><!DOCTYPE svg PUBLIC "-//W3C//DTD SVG 1.1//EN" "http://www.w3.org/Graphics/SVG/1.1/DTD/svg11.dtd"><svg t="1594606331128" class="icon" viewBox="0 0 1024 1024" version="1.1" xmlns="http://www.w3.org/2000/svg" p-id="3618" xmlns:xlink="http://www.w3.org/1999/xlink" width="130" height="130"><defs><style type="text/css"></style></defs><path d="M524.16 477.8752m-375.4752 0a375.4752 375.4752 0 1 0 750.9504 0 375.4752 375.4752 0 1 0-750.9504 0Z" fill="#FFBF00" p-id="3619"></path><path d="M524.16 477.8752m-324.2752 0a324.2752 324.2752 0 1 0 648.5504 0 324.2752 324.2752 0 1 0-648.5504 0Z" fill="#DA2A22" p-id="3620"></path><path d="M669.696 374.3744l15.872-31.8208 8.448 33.8688h32.8192l-26.4704 16.4096c2.1248 10.2656 4.224 22.5792 6.3488 33.8688-8.448-8.192-17.9968-14.3616-26.4448-20.5312-10.5984 6.144-22.2464 10.2656-30.72 16.4352l10.5984-29.7728-24.32-18.4576c11.6224-2.048 22.1952 0 33.8432 0z m-44.4672 122.112l-32.8192-8.2176-17.9712 27.6992-4.2496-31.7952c-8.448-4.096-20.096-6.144-30.6944-8.2176l30.72-12.3136c0-10.24-2.1504-20.5312-2.1504-31.8208l22.2464 22.5792 30.6688-8.192-15.872 25.6512c7.424 7.168 13.7728 15.36 20.1216 24.6272z m-123.8272-194.9696l22.2208-62.592 22.2208 62.592h66.688l-55.04 37.9648v2.048l17.9968 54.4-50.7904-33.8688-50.816 33.8688 17.9968-54.4v-2.048l-55.04-37.9648h64.5632z m-75.136 144.6912l30.6944 8.192 22.2208-22.5792c0 10.2656-2.1248 20.5312-2.1248 31.8208l30.72 12.288c-10.5984 2.0736-22.272 4.1216-30.72 8.2432l-4.224 31.7952-20.1216-27.6992-30.6944 8.192c6.3744-8.192 13.7728-16.384 20.1216-25.6256l-15.872-24.6272z m-73.0368-69.7856l6.3488-33.8688 17.9968 31.8208c10.5984 0 22.2208-2.048 32.8192 0l-24.3456 18.4576 10.5728 29.7728c-8.448-6.144-20.096-10.2656-30.6944-16.4352-8.448 6.144-17.9712 12.3136-26.4448 20.5312 2.1248-10.24 4.224-22.5792 6.3488-33.8688l-26.4704-16.384h33.8688z m75.648 302.592V652.544c-6.8352-1.6128-22.5536-5.248-25.984-8.4992-1.2288-1.152-0.5376-2.7392 1.4592-2.7392 13.8752 0 27.8272-2.816 41.9072-8.4992v-0.5888a74.2912 74.2912 0 0 1-21.5296-5.888c-1.7408-0.768-1.4592-3.3024 0.4096-3.6608 11.8784-2.2528 39.2192-9.6 51.712-30.976l-0.256-10.2656c0-1.3568 0.4608-2.6624 1.3312-3.6352a4.4288 4.4288 0 0 1 3.2768-1.5104c1.2288 0 2.432 0.5376 3.3024 1.5104a5.4272 5.4272 0 0 1 1.3568 3.6352v5.12h71.552v-5.12c0-1.3568 0.4864-2.6624 1.3568-3.6352a4.4288 4.4288 0 0 1 3.2768-1.5104c1.2288 0 2.4064 0.5376 3.2768 1.5104a5.4272 5.4272 0 0 1 1.3568 3.6352v10.2656c15.4624 17.8688 44.3904 28.6464 56.7296 30.976 1.8688 0.3584 2.1504 2.8928 0.4096 3.6864-4.5312 2.048-11.8784 4.6848-21.504 5.8624v1.8688c21.5808 4.8128 33.792 7.2192 36.5824 7.2192 4.1984 0 2.688 1.5872 1.4592 2.7392-2.4576 2.3552-16.4352 4.8896-20.6848 6.7328v28.288h105.984v35.968H322.8928v-35.968h105.984z" fill="#FFBF00" p-id="3621"></path><path d="M246.4256 727.7312l-28.9792 98.048c-2.1248 10.2912 3.1744 19.5072 11.6224 24.6528 5.2992 3.072 9.5488 5.12 14.848 6.144 3.1488 6.144 9.4976 11.2896 16.896 12.3136 2.1248 0 4.2496 1.024 6.3744 1.024 3.1744 8.2176 10.5728 14.3616 20.096 15.4112 3.1744 1.024 6.3488 1.024 9.5232 2.048v1.024c4.2496 8.192 12.6976 13.312 22.2208 14.336l49.7408 4.1216c9.5232 1.024 19.072-4.096 24.3456-11.264h7.424c10.5728 7.168 23.296 7.168 28.5696 7.168h2.0992c5.2992 2.048 11.648 2.048 17.9968 1.024h3.1744l38.1184 4.096h3.1744c4.224 0 7.3984-1.024 11.6224-2.048 12.6976 1.024 22.2208 1.024 34.944 0 4.224 2.048 9.5232 3.072 13.7472 2.048l38.0928-4.096h2.1248c5.2992 1.024 9.5232 1.024 14.8224-1.024h5.2736c6.3488 0 19.0464-1.024 29.6448-7.168h7.424c5.2736 7.168 14.7968 12.288 24.32 11.264l47.616-4.096a25.344 25.344 0 0 0 16.9472-7.168c2.1248-2.048 4.224-5.1456 6.3488-7.1936 3.1744-1.024 7.424-1.024 10.5728-2.048 9.5232-2.048 16.9472-8.2176 20.1216-15.4112 2.0992 0 4.224-1.024 6.3488-1.024 7.424-2.048 13.7472-6.144 16.9216-12.288 4.2496-1.024 9.5232-3.072 14.8224-6.1696 8.448-5.12 12.6976-15.3856 11.648-24.6272l-23.1424-98.304a10.24 10.24 0 0 0-15.488-6.272c-109.44 70.0416-198.2208 104.9088-266.3168 104.576-68.1472-0.3328-154.88-35.2512-260.1984-104.7552a10.24 10.24 0 0 0-15.4624 5.6576z" fill="#DA2A22" p-id="3622"></path><path d="M582.6048 814.6176h-0.7168a7.3472 7.3472 0 0 1-6.9632-4.9664 47.3088 47.3088 0 0 0-2.9696-6.912 7.0144 7.0144 0 0 1 1.3056-8.32l0.512-0.512a6.9376 6.9376 0 0 0 0-10.0096l-4.864-4.7872a7.4752 7.4752 0 0 0-10.368 0l-0.512 0.512a7.5776 7.5776 0 0 1-8.576 1.2544 50.5088 50.5088 0 0 0-7.1424-2.8672 7.168 7.168 0 0 1-5.12-6.784V770.56a7.2192 7.2192 0 0 0-7.3216-7.0912h-7.0144a7.2192 7.2192 0 0 0-7.3216 7.0912v0.6912a7.168 7.168 0 0 1-5.12 6.784c-2.4576 0.768-4.864 1.7152-7.1424 2.8672a7.5776 7.5776 0 0 1-8.576-1.28l-0.512-0.4864a7.4752 7.4752 0 0 0-10.368 0l-4.9152 4.7872a6.9376 6.9376 0 0 0 0 10.0352l0.512 0.512a7.0144 7.0144 0 0 1 1.28 8.2944 47.3088 47.3088 0 0 0-2.944 6.912 7.3472 7.3472 0 0 1-6.9888 4.9664h-0.7168a7.2192 7.2192 0 0 0-7.3216 7.1168v6.7584c0 3.9168 3.3024 7.0912 7.3216 7.0912h0.7168c3.2 0 6.016 2.048 6.9888 4.9664 0.7936 2.3808 1.792 4.6848 2.9696 6.912a7.0144 7.0144 0 0 1-1.3056 8.32l-0.512 0.512a6.9376 6.9376 0 0 0 0 10.0352l4.9152 4.7616a7.4752 7.4752 0 0 0 10.368 0l0.512-0.512a7.5776 7.5776 0 0 1 8.576-1.2288c2.304 1.1264 4.6848 2.0736 7.1168 2.8672a7.168 7.168 0 0 1 5.12 6.7584v0.6912c0 3.9168 3.3024 7.0912 7.3472 7.0912h6.9632a7.2192 7.2192 0 0 0 7.3216-7.0912v-0.6912a7.168 7.168 0 0 1 5.12-6.7584c2.4576-0.768 4.864-1.7408 7.1424-2.8672a7.5776 7.5776 0 0 1 8.576 1.2544l0.512 0.512a7.4752 7.4752 0 0 0 10.3424 0l4.9408-4.7872a6.9376 6.9376 0 0 0 0-10.0352l-0.512-0.512a7.0144 7.0144 0 0 1-1.28-8.32c1.152-2.2272 2.1504-4.5312 2.944-6.912a7.3472 7.3472 0 0 1 6.9632-4.9664h0.7168a7.2192 7.2192 0 0 0 7.3216-7.0912v-6.7584a7.2192 7.2192 0 0 0-7.3216-7.1168z" fill="#FFBF00" p-id="3623"></path><path d="M523.9552 826.0352m-25.6 0a25.6 25.6 0 1 0 51.2 0 25.6 25.6 0 1 0-51.2 0Z" fill="#DA2A22" p-id="3624"></path><path d="M393.2416 895.0528v-53.504a10.24 10.24 0 0 1 14.5152-9.3184c28.4416 13.0048 56.8064 14.5664 85.0176 4.7104-11.2384 27.8016-44.3904 47.1552-99.5328 58.112zM650.5216 896.128v-54.6304a10.24 10.24 0 0 0-14.464-9.3184c-28.1856 12.8-56.3968 14.2592-84.5824 4.4032 11.2384 27.8016 44.2368 47.6416 99.0464 59.5456z" fill="#FFBF00" p-id="3625"></path><path d="M456.4224 817.5872c28.9536 4.8128 51.6096 7.68 67.9168 8.6016 16.3328 0.896 41.8816-2.944 76.672-11.5456l-8.448 28.5952c-38.784 0-61.5168-2.8928-68.224-8.6784-5.7088 4.608-28.3648 7.5008-67.9168 8.6784v-25.6512z" fill="#DA2A22" p-id="3626"></path></svg>