<svg xmlns="http://www.w3.org/2000/svg" width="35" height="35" viewBox="0 0 35 35">
  <g id="经济管理" transform="translate(-210 -292)">
    <rect id="矩形_617" data-name="矩形 617" width="35" height="35" transform="translate(210 292)" fill="none"/>
    <path id="路径_372" data-name="路径 372" d="M110.121,109.226a5.222,5.222,0,0,1,.565-.753l8.566-8.566c.377-.377.565-.377.941,0l6.495,6.495c.471.471.659.471,1.13,0,2.636-2.73,5.365-5.365,8-8,.377-.377.565-.377.941,0,.565.659,1.13,1.224,1.694,1.883.094-.094.188-.094.282-.188V93.224c0-.377-.094-.471-.471-.471h-7.154c1.035.941,1.788,1.788,2.542,2.541.377.377.471.565,0,1.035l-5.93,5.93c-.377.377-.565.377-1.035,0-2.165-2.259-4.424-4.424-6.589-6.589-.377-.377-.565-.377-.941,0l-9.036,9.036s-.282.188-.282.377v3.953C109.933,109.132,110.027,109.226,110.121,109.226Zm28.521-3.765c0-.471-.188-.659-.659-.659h-4.8c-.565,0-.659.188-.659.659v16.567c0,.565.188.753.753.753h4.612c.471,0,.659-.094.659-.659.094-5.554.094-11.107.094-16.661Zm-15.814,3.953h-4.8c-.471,0-.659.188-.659.659v12.143c0,.471.094.659.565.659h4.895c.471,0,.565-.094.565-.565V110.073c.094-.565-.094-.753-.565-.659Zm7.624,3.012h-4.706c-.471,0-.753.094-.659.659v9.131c0,.471.188.659.659.659h4.8c.565,0,.659-.188.659-.659V113.18c-.094-.659-.282-.847-.753-.753Zm-14.59,6.683V116.1c0-.471-.094-.659-.565-.659H110.4c-.471,0-.565.094-.565.565v6.213c0,.471.188.565.565.565H115.3c.565,0,.565-.188.565-.659V119.11Z" transform="translate(103.161 201.247)" fill="#FC9220"/>
  </g>
</svg>
