<svg xmlns="http://www.w3.org/2000/svg" width="35" height="35" viewBox="0 0 35 35">
  <g id="空间地理" transform="translate(-259 -235)">
    <rect id="矩形_603" data-name="矩形 603" width="35" height="35" transform="translate(259 235)" fill="none"/>
    <path id="路径_334" data-name="路径 334" d="M32.813,16.891A15.88,15.88,0,1,0,14.958,32.637a7.931,7.931,0,0,0,1.621.147,5.114,5.114,0,0,0,.521-.027A15.874,15.874,0,0,0,32.813,16.891Zm-2.271.225a15.533,15.533,0,0,0-.31-2.32c.014-.269.018-.524.011-.761a13.645,13.645,0,0,1,.3,2.856Q30.544,17,30.542,17.116ZM3.322,16.891a13.648,13.648,0,0,1,.29-2.806,1.441,1.441,0,0,0,2.311-.325c.6.36,1.417.426,1.417,1.146,0,2.377.085,4.925,2.244,4.964a3.078,3.078,0,0,1,1.749,1.845c.188.488.932,0,1.749,0,.407,0,0,.686,0,2.171s3.188,3.756,3.188,3.756a17.118,17.118,0,0,0,.107,2.4,5.338,5.338,0,0,0-1.8.244,13.608,13.608,0,0,1-11.252-13.4ZM20.284,30.077c-.071-.345-.379-.535-.943-.387.449-1.914.668-2.986,1.606-3.8a1.268,1.268,0,0,0-.871-2.331c-.814.123-.3-1.008-1.026-1.071s-1.676-1.506-2.721-2c-.554-.263-1.1-.969-1.954-1-.758-.029-1.865.641-1.865.124a32.112,32.112,0,0,0-.2-3.325c-.028-.381-.249-.128.775-.1.558.015.285-1.12.837-1.164s1.833.507,2.163.288c.306-.2,2.247,5.1,2.247.876,0-.5-.259-1.371,0-1.845a22.226,22.226,0,0,0,1.9-3.624,2.814,2.814,0,0,0-1.85.039c-.27.09.086.513-.3.6-1.454.336-2.738-.392-2.288-1.076.46-.7,2.129-.306,2.275-1.712.084-.805.154-1.738.2-2.431C20.22,6.44,20,3.6,17.1,3.291a13.616,13.616,0,0,1,12.7,9.143.555.555,0,0,0-.325-.148c-.879-2.2-3.014-.607-2.29,1.331C23.3,16.6,24.3,18.679,25.57,19.87A11.542,11.542,0,0,1,27.3,22.114c-.453,1.321,1.67.792,2.717-1.45a13.632,13.632,0,0,1-9.73,9.413Z" transform="translate(259.947 235.977)" fill="#2eb1c5"/>
  </g>
</svg>
