<svg xmlns="http://www.w3.org/2000/svg" width="35" height="35" viewBox="0 0 35 35">
  <g id="科技教育" transform="translate(-211 -462)">
    <rect id="矩形_623" data-name="矩形 623" width="35" height="35" transform="translate(211 462)" fill="none"/>
    <g id="组_436" data-name="组 436" transform="translate(212 466)">
      <path id="路径_363" data-name="路径 363" d="M20.209,128.97v-2.247l-.032.024a36.5,36.5,0,0,1-6.8-6.8,36.564,36.564,0,0,1,6.772-6.779l.026-.019a34.2,34.2,0,0,1,3.624,3.175,34.3,34.3,0,0,1,3.175,3.624q-.267.356-.545.7l4.581-2.269c1.966-3.68,2.269-7.073.036-9.3-2.546-2.546-6.6-1.795-10.871.961-4.27-2.756-8.326-3.508-10.871-.961s-1.795,6.6.961,10.871c-2.756,4.27-3.508,8.325-.961,10.871s6.6,1.795,10.871-.961l.031.02v-.909Zm2.3-17.366c3.017-1.722,5.463-1.975,6.725-.714s1,3.756-.765,6.814a37.437,37.437,0,0,0-2.859-3.191,37.453,37.453,0,0,0-3.191-2.859l.09-.051Zm-11.394-.714c1.274-1.274,3.756-1,6.815.765l-.051.04a39.2,39.2,0,0,0-6,6.009c-1.769-3.058-2.04-5.539-.765-6.814Zm0,18.117c-1.262-1.262-1.01-3.708.714-6.725l.051-.09a39.14,39.14,0,0,0,6.049,6.05c-3.057,1.769-5.539,2.04-6.814.765Z" transform="translate(-7.747 -107.519)" fill="#1976D2"/>
      <path id="路径_364" data-name="路径 364" d="M345.192,418.729a2.562,2.562,0,1,0,2.562,2.562A2.562,2.562,0,0,0,345.192,418.729Zm2.246,10.855.091.052v-.126Zm6.049-6.048-.028.034.037-.018Z" transform="translate(-332.011 -408.861)" fill="#1976D2"/>
      <path id="路径_365" data-name="路径 365" d="M451.554,490.978l-8.774-4.345a.711.711,0,0,0-.632,0l-2.511,1.244-2.829,1.4-3.433,1.7a.712.712,0,0,0-.38.49.275.275,0,0,0-.028.12V497.4a.712.712,0,0,0,1.424,0V494l-.056-.032.056-.046V492.73l.9.424,1.514.71v5.1a.709.709,0,0,0,.3.577,9.843,9.843,0,0,0,10.722,0,.713.713,0,0,0,.3-.577v-5.1l3.42-1.6a.712.712,0,0,0,.013-1.282Zm-4.857,7.61a8.554,8.554,0,0,1-8.467,0v-4.054l.126.059,1.525.716,2.279,1.069a.7.7,0,0,0,.605,0l3.931-1.844v4.054Zm-4.233-3.64-1.946-.914-1.5-.7L436.4,492.1l-1.071-.5,2.722-1.348.017-.021.006.01,1.413-.7,2.977-1.474L449.6,491.6Z" transform="translate(-419.483 -474.54)" fill="#000000"/>
    </g>
  </g>
</svg>
