<svg xmlns="http://www.w3.org/2000/svg" width="35" height="35" viewBox="0 0 35 35">
  <g id="劳动人事" transform="translate(-356 -292)">
    <rect id="矩形_620" data-name="矩形 620" width="35" height="35" transform="translate(356 292)" fill="none"/>
    <g id="组_433" data-name="组 433" transform="translate(274.392 200.407)">
      <path id="路径_346" data-name="路径 346" d="M339.379,210.221a5.863,5.863,0,0,0,9.991,4.1,5.723,5.723,0,0,0,1.714-4.1,5.853,5.853,0,0,0-11.7,0h0Z" transform="translate(-246.063 -106.193)" fill="#2eb1c5"/>
      <path id="路径_347" data-name="路径 347" d="M111.713,105.087a1.05,1.05,0,0,0-1.073-.917h-4.418a.656.656,0,0,0,0,1.306h4.239l1.966,8.3h-2.265a.656.656,0,1,0,0,1.306h2.585a1.041,1.041,0,0,0,1.077-1V114l-2.112-8.914Zm-10.9-7.278a.655.655,0,0,0,.909-.181l.008-.011a3.344,3.344,0,0,1,2.882-1.723,3.716,3.716,0,0,1,3.74,3.666,3.387,3.387,0,0,1-2.2,3.181.646.646,0,0,0-.42.812l0,.009a.652.652,0,0,0,.82.426,4.679,4.679,0,0,0,3.089-4.4,5.042,5.042,0,0,0-5.041-5,4.633,4.633,0,0,0-3.973,2.319.646.646,0,0,0,.162.9l.026.018,0-.019Zm-11.888,16.6a.661.661,0,0,0-.647-.655H86.005l1.962-8.286H92.2a.651.651,0,1,0,0-1.3H87.788a1.054,1.054,0,0,0-1.068.917l-2.112,8.9v.078a1.036,1.036,0,0,0,1.071,1h2.6a.651.651,0,0,0,.655-.646v0h-.009Zm2.91-10.422a.655.655,0,0,0,.411-1.243l-.009,0a3.387,3.387,0,0,1-2.167-3.158A3.717,3.717,0,0,1,93.8,95.921a3.346,3.346,0,0,1,2.878,1.719.653.653,0,1,0,1.1-.711A4.644,4.644,0,0,0,93.8,94.637a5.04,5.04,0,0,0-5.041,5,4.675,4.675,0,0,0,3.07,4.39v-.032Z" fill="#2eb1c5"/>
      <path id="路径_348" data-name="路径 348" d="M192.208,554.545a1.155,1.155,0,0,0-1.173-1.008H175.383a1.146,1.146,0,0,0-1.169,1.008L171.6,565.929V566a1.146,1.146,0,0,0,1.178,1.1h20.871a1.142,1.142,0,0,0,1.173-1.1v-.073l-2.611-11.384Zm-6.55,2.754-1.993,7.879a.384.384,0,0,1-.746,0L180.93,557.3a.378.378,0,0,1,.1-.362l2.118-2.095h.293l2.118,2.095A.378.378,0,0,1,185.658,557.3Z" transform="translate(-84.015 -443.257)" fill="#2eb1c5"/>
    </g>
  </g>
</svg>
