<svg xmlns="http://www.w3.org/2000/svg" width="35" height="35" viewBox="0 0 35 35">
  <g id="民政社区" transform="translate(-307 -349)">
    <rect id="矩形_635" data-name="矩形 635" width="35" height="35" transform="translate(307 349)" fill="none"/>
    <g id="组_435" data-name="组 435" transform="translate(290.902 322.79)">
      <path id="路径_355" data-name="路径 355" d="M871.607,268.538l1.877-.327-.1-.631-1.774.305Zm0-4.547.134-.072-.134-.238Zm1.127,1.334-1.127.436-2.359.9v.378l.145.263,2.214-.859,1.355-.523Zm-1.127,2.56v.653l-1.681.294-.192-.625Z" transform="translate(-824.889 -227.504)" fill="#2eb1c5"/>
      <path id="路径_356" data-name="路径 356" d="M281.82,35.856l-2.182,1.2-1.247.693.393.529.854-.477L282,36.487v-.31Zm-2.182,3.305v.378l-.17-.31Zm.874-5.167-.874.631-2.069,1.495v.414l.223.227,1.846-1.345,1.247-.905Zm-3.145,2.27-.031.021.031.036.2.212V36.12Zm1.391-4.06-1.19,1.148-.2.2-.7.677v.905l.7-.682.2-.2,1.629-1.588Zm-1.391-1.086v.062l.031-.037Zm-.91,4.221.212-.208v-.905l-.729.7Zm.445-4.594-.233.29v1.04l.7-.895v-.062Zm-.968,1.221-1.464,1.857.569.331.9-1.143.734-.936v-1.04Zm-6.8-2.757a2.951,2.951,0,1,0,2.954,2.948A2.951,2.951,0,0,0,269.138,29.21Zm-6.822,3.8V31.966l1.464,1.857-.569.331Zm0-1.045v1.045l-.734-.936v-1.04Z" transform="translate(-235.278)" fill="#2eb1c5"/>
      <path id="路径_357" data-name="路径 357" d="M40.656,86.638c-1.846-1.785-6.2-1.034-6.8.776-.595-1.826-5-2.571-6.823-.739a2.6,2.6,0,0,0-.656,1.1v12.46c.212.041.434.083.656.135a5.7,5.7,0,0,1,2.907,1.417V90.011c0-1.241,1.283-1.247,1.283.124v11.943H36.5V90.135c0-1.371,1.282-1.365,1.282-.124v11.771a5.714,5.714,0,0,1,2.871-1.412c.233-.052.466-.1.693-.14V87.771a2.619,2.619,0,0,0-.693-1.133ZM26.3,85.282v-.9l.729.7-.517.409Zm0-4.1v1.04l-.7-.895v-.062l.466-.373Zm0,3.192v.9l-.7-.682v-.9Zm-.7,2.094v-.057l.031.021Zm0-5.2v.062l-.031-.037Zm0,2.431v.9l-.2-.2v-.9Zm0,2.715v.057l-.2.212V86.27ZM25.4,83.5v.9l-1.635-1.588.445-.46Zm0,2.767v.414l-.223.227-1.846-1.345v-.791Zm-2.069,3.419v-.378l.17.068Zm0-1.734v-.745l1.246.693-.4.528Zm0-3.18-.874-.631-.378.516,1.252.905Zm0,2.436v.745L20.97,86.638v-.31l.182-.321Zm0,2.1v.378l-.145.263-2.219-.859v-.688ZM20.97,91.185v-.653l1.878.321-.192.625Zm0-4.858-.129.238.129.072Zm0,2.08-1.122-.436-.233.6,1.355.523Zm0,2.125L19.2,90.227l-.1.631,1.872.327Z" transform="translate(0 -50.151)" fill="#2eb1c5"/>
      <path id="路径_358" data-name="路径 358" d="M46.414,520.171c-.471-3.341-2.374-5.71-6.186-6.791q-.365-.105-.735-.192-.347-.079-.7-.14c-.067-.011-.135-.026-.2-.036q-1.028-.168-2.069-.238-.736-.046-1.474-.052c.253-3.191-.021-5.441-.889-6.465a1.673,1.673,0,0,0-1.469-.615c.419,2.555-.046,5.11.15,7.671q.64.679,1.319,1.319c.838.781,1.645,1.464,2.364,2.084a15.862,15.862,0,0,1,2.069,2.054l.2.279a3.916,3.916,0,0,1,.538,1.122h7.08Zm1.282,0c.471-3.341,2.374-5.71,6.186-6.791.238-.068.486-.135.735-.192q.341-.078.7-.14c.067-.011.135-.026.2-.036.647-.108,1.334-.186,2.069-.238q.736-.046,1.474-.052c-.253-3.191.021-5.441.889-6.465a1.673,1.673,0,0,1,1.469-.615c-.419,2.555.046,5.11-.15,7.671q-.64.679-1.319,1.319c-.838.781-1.645,1.464-2.364,2.084a15.863,15.863,0,0,0-2.069,2.054l-.2.279a3.916,3.916,0,0,0-.538,1.122H47.7Z" transform="translate(-13.19 -462.271)" fill="#F29C42"/>
    </g>
  </g>
</svg>
