<svg xmlns="http://www.w3.org/2000/svg" width="35" height="35" viewBox="0 0 35 35">
  <g id="气象水文" transform="translate(-259 -462)">
    <rect id="矩形_624" data-name="矩形 624" width="35" height="35" transform="translate(259 462)" fill="none"/>
    <path id="路径_368" data-name="路径 368" d="M29.676,9.379l2.1-1.26a1.221,1.221,0,0,0,.419-1.7,1.119,1.119,0,0,0-1.626-.437l-2.1,1.26a1.221,1.221,0,0,0-.419,1.7,1.119,1.119,0,0,0,1.626.437ZM22.9,4.891a1.208,1.208,0,0,0,1.47-.876L25,1.607A1.273,1.273,0,0,0,24.165.073,1.208,1.208,0,0,0,22.694.95l-.63,2.408A1.3,1.3,0,0,0,22.9,4.891Zm9.763,10.454-2.31-.657a1.208,1.208,0,0,0-1.469.876,1.27,1.27,0,0,0,.839,1.532l2.31.658a1.208,1.208,0,0,0,1.47-.878,1.272,1.272,0,0,0-.839-1.532ZM14.927,5.274a1.12,1.12,0,0,0,1.626.439,1.221,1.221,0,0,0,.421-1.7L15.767,1.826a1.119,1.119,0,0,0-1.627-.439,1.221,1.221,0,0,0-.419,1.7l1.207,2.19Zm12.44,4.1a7.459,7.459,0,0,0-10.394-2.9A8.011,8.011,0,0,0,14.3,9.16h-.315a9.276,9.276,0,0,0-8.975,7.553A5.831,5.831,0,0,0,.02,23.172a5.672,5.672,0,0,0,5.51,5.255H21.542a6.585,6.585,0,0,0,6.4-6.733,7.1,7.1,0,0,0-1.05-3.668,8.263,8.263,0,0,0,.472-8.648ZM26.26,17.1ZM16.922,9.708a5.388,5.388,0,0,1,1.207-1.04,5.093,5.093,0,0,1,7.085,1.971,5.361,5.361,0,0,1-.052,5.529,6.042,6.042,0,0,0-2.729-1.094,9.23,9.23,0,0,0-5.51-5.365Z" transform="translate(260.01 464.964)" fill="#2eb1c5"/>
  </g>
</svg>
