<svg xmlns="http://www.w3.org/2000/svg" width="35.186" height="35" viewBox="0 0 35.186 35">
  <g id="人口基础" transform="translate(-162 -235)">
    <rect id="矩形_600" data-name="矩形 600" width="35" height="35" transform="translate(162 235)" fill="none"/>
    <g id="人口信息" transform="translate(42.076 100.238)">
      <path id="路径_332" data-name="路径 332" d="M210.523,64.3h.133a5.541,5.541,0,0,0,5.532-5.479V56.991a5.6,5.6,0,0,0-11.2,0v1.828a5.542,5.542,0,0,0,5.533,5.479Zm10.861.8a3.517,3.517,0,0,0,3.6-3.426V60.522a3.6,3.6,0,0,0-7.2,0v1.145a3.519,3.519,0,0,0,3.6,3.43Zm-21.591,0a3.518,3.518,0,0,0,3.6-3.426V60.522a3.6,3.6,0,0,0-7.2,0v1.145a3.513,3.513,0,0,0,3.6,3.43h0ZM194.6,68.585a3.126,3.126,0,0,0-1.6,2.821v1.408a2.036,2.036,0,0,0,1.276,1.965,21.788,21.788,0,0,0,3.524.609V72.9a7.68,7.68,0,0,1,2.027-5.4h-.031a12.811,12.811,0,0,0-5.192,1.082h0Zm31.99,0a12.942,12.942,0,0,0-5.206-1.095h-.026a7.678,7.678,0,0,1,2.026,5.4v2.49a21.545,21.545,0,0,0,3.515-.61,2.04,2.04,0,0,0,1.285-1.969V71.412a3.14,3.14,0,0,0-1.594-2.821h0Zm-8.045-.142a18.894,18.894,0,0,0-15.9-.009,5.039,5.039,0,0,0-2.455,4.508V75.2a3.266,3.266,0,0,0,1.952,3.148,31.776,31.776,0,0,0,16.88,0,3.256,3.256,0,0,0,1.96-3.148V72.953a5.049,5.049,0,0,0-2.441-4.5h0Z" transform="translate(-73.075 87.683)" fill="#2eb1c5"/>
    </g>
  </g>
</svg>
