<svg xmlns="http://www.w3.org/2000/svg" width="35" height="35" viewBox="0 0 35 35">
  <g id="社会信用" transform="translate(-307 -235)">
    <rect id="矩形_602" data-name="矩形 602" width="35" height="35" transform="translate(307 235)" fill="none"/>
    <g id="组_430" data-name="组 430" transform="translate(222.3 172.9)">
      <path id="路径_335" data-name="路径 335" d="M113.051,67.486V84.46l-10.982,6.1-10.982-6.1V67.486h21.965m3.386-3.386H87.7V86.451l14.369,7.985,14.369-7.982Z" fill="#2eb1c5"/>
      <path id="路径_336" data-name="路径 336" d="M278.338,212.812l2.127.566q-.6,1.935-1.239,3.617v11.66h-2.049v-7.115q-.574,1.046-1.162,1.927-.178-1.29-.515-3.031A38.774,38.774,0,0,0,278.338,212.812Zm13.18,3.64H280.255v-1.835h4.318q-.29-.7-.66-1.483l2.4-.433q.4.742.887,1.917h4.318Zm-10.637,12.2v-6.187h9.7v6.187h-2.208v-.836h-5.286v.836Zm9.7-9.587h-9.668v-1.724h9.668Zm0,2.547h-9.668v-1.724h9.668Zm-2.208,2.757h-5.286v1.548h5.286Z" transform="translate(-181.44 -143.568)" fill="#2985f7"/>
    </g>
  </g>
</svg>
