<svg xmlns="http://www.w3.org/2000/svg" width="35" height="35" viewBox="0 0 35 35">
  <g id="商业贸易" transform="translate(-210 -349)">
    <rect id="矩形_633" data-name="矩形 633" width="35" height="35" transform="translate(210 349)" fill="none"/>
    <g id="组_462" data-name="组 462" transform="translate(211.469 296.533)">
      <path id="路径_373" data-name="路径 373" d="M124.718,130.895a5.471,5.471,0,0,1-.366.441,4.807,4.807,0,0,1-7.181,0,5.469,5.469,0,0,1-.366-.441,4.837,4.837,0,0,1-8.076.038,5.6,5.6,0,0,1-.563.651,4.812,4.812,0,0,1-3.372,1.4h-.044a4.613,4.613,0,0,1-.751-.053v11.682a1.321,1.321,0,0,0,1.317,1.317H128.2a1.321,1.321,0,0,0,1.317-1.317v-1.229a.426.426,0,0,0,.006-.063v-10.3a4.625,4.625,0,0,1-.754.063A4.975,4.975,0,0,1,124.718,130.895ZM113.083,144.3h-4.044v-6.834a2.024,2.024,0,0,1,4.047,0V144.3Zm16.956-24.856-.116-.044.013.044Z" transform="translate(-100.747 -61.126)" fill="#BA5092"/>
      <path id="路径_374" data-name="路径 374" d="M28.61,57.7a2.091,2.091,0,0,0-1.97-1.392L5.223,56.3a2.1,2.1,0,0,0-1.986,1.423L0,65.533A4.2,4.2,0,0,0,4,69.9a4.2,4.2,0,0,0,4-4.369,4.256,4.256,0,0,0,4,4.47,4.256,4.256,0,0,0,4-4.47,4.244,4.244,0,0,0,4,4.329,4.244,4.244,0,0,0,4.007-4.329,4.256,4.256,0,0,0,4,4.47,4.256,4.256,0,0,0,4-4.47Z" transform="translate(0 0)" fill="#BA5092"/>
    </g>
  </g>
</svg>
