<svg xmlns="http://www.w3.org/2000/svg" width="35" height="35" viewBox="0 0 35 35">
  <g id="文化卫生" transform="translate(-259 -405)">
    <rect id="矩形_608" data-name="矩形 608" width="35" height="35" transform="translate(259 405)" fill="none"/>
    <path id="路径_362" data-name="路径 362" d="M76.118,8.9a4.208,4.208,0,0,1-2.175-.6,4.465,4.465,0,0,1-1.614-1.623,4.319,4.319,0,0,1,0-4.38A4.465,4.465,0,0,1,73.943.667a4.241,4.241,0,0,1,4.351,0,4.465,4.465,0,0,1,1.614,1.625,4.318,4.318,0,0,1,0,4.38,4.465,4.465,0,0,1-1.613,1.623,4.21,4.21,0,0,1-2.175.6Zm0,5.157A19.279,19.279,0,0,1,89.276,8.9V25.038a18.919,18.919,0,0,0-7.193,1.413,19.54,19.54,0,0,0-5.965,3.85,19.542,19.542,0,0,0-5.965-3.85,18.748,18.748,0,0,0-7.193-1.413V8.9a19.28,19.28,0,0,1,13.158,5.157Zm0,0" transform="translate(200.563 407.267)" fill="#17B67C"/>
  </g>
</svg>
