<svg xmlns="http://www.w3.org/2000/svg" width="35" height="35" viewBox="0 0 35 35">
  <g id="信息产业" transform="translate(-162 -462)">
    <rect id="矩形_622" data-name="矩形 622" width="35" height="35" transform="translate(162 462)" fill="none"/>
    <g id="组_438" data-name="组 438" transform="translate(163 463)">
      <path id="路径_369" data-name="路径 369" d="M32.32,32.32,16,32.32A16.32,16.32,0,1,0,32.32,16,16.32,16.32,0,0,0,16,32.32Z" transform="translate(-16 -16)" fill="#2eb1c5"/>
      <path id="路径_371" data-name="路径 371" d="M163.479,144.32V145.9H161.9v-3.685h1.053v-.07a5,5,0,0,0-.786-9.932c-.161,0-.323.007-.477.021a5.79,5.79,0,0,0-11.147-.021,5,5,0,0,0,.035,10c.091,0,.175-.014.267-.021v3.706h-2.106v-1.579H144v4.745h4.738v-1.579h3.685v-5.265h3.159v4.738H154v4.738h4.738v-4.738h-1.579v-4.738h3.159v5.265h3.159v1.579h4.738V144.32Zm-16.32,3.159h-1.579V145.9h1.579Zm10,2.632h-1.579v-1.579h1.579Zm9.476-2.632h-1.579V145.9h1.579Z" transform="translate(-139.788 -124.315)" fill="#fff"/>
    </g>
  </g>
</svg>
