<svg xmlns="http://www.w3.org/2000/svg" width="35" height="35" viewBox="0 0 35 35">
  <g id="政法" transform="translate(-307 -292)">
    <rect id="矩形_619" data-name="矩形 619" width="35" height="35" transform="translate(307 292)" fill="none"/>
    <path id="路径_345" data-name="路径 345" d="M68.125,31.491a.347.347,0,0,1-.326-.326v-.652a1.114,1.114,0,0,0-1.087-1.087H45.632a1.114,1.114,0,0,0-1.087,1.087v.435c0,.217-.109.326-.326.435a3.831,3.831,0,0,0-3.26,3.694H70.733a3.856,3.856,0,0,0-2.608-3.586Zm.761-6.194L57.911,15.083l3.912-3.912a.922.922,0,1,0,1.3-1.3L56.063,2.8a.992.992,0,0,0-1.3,0,.939.939,0,0,0-.326.652.939.939,0,0,0,.326.652l-9.78,9.78a.922.922,0,1,0-1.3,1.3l7.063,7.063a.922.922,0,1,0,1.3-1.3l3.912-3.912L66.169,28.014a2.961,2.961,0,0,0,1.3.652,2.289,2.289,0,0,0,1.413-.543,2.066,2.066,0,0,0,.543-1.413,1.337,1.337,0,0,0-.543-1.413ZM47.805,14.431a.494.494,0,0,1-.543,0,.485.485,0,0,1,0-.543l7.606-7.606a.494.494,0,0,1,.543,0,.493.493,0,0,1,0,.543Z" transform="translate(269.041 290.44)" fill="#437CB5"/>
  </g>
</svg>
