<svg xmlns="http://www.w3.org/2000/svg" width="35" height="35" viewBox="0 0 35 35">
  <g id="综合政务" transform="translate(-162 -292)">
    <rect id="矩形_616" data-name="矩形 616" width="35" height="35" transform="translate(162 292)" fill="none"/>
    <g id="组_432" data-name="组 432" transform="translate(68.28 141.4)">
      <path id="路径_340" data-name="路径 340" d="M223.214,333.81l-2.454-1.227a.651.651,0,0,0-.614,0l-2.454,1.227c-.409.2-1.023-.1-.92-.614l.409-2.761c0-.2,0-.409-.2-.511l-2.045-1.943a.649.649,0,0,1,.307-1.125l2.761-.409a.869.869,0,0,0,.511-.307l1.227-2.557a.6.6,0,0,1,1.125,0l1.227,2.454a.562.562,0,0,0,.511.307l2.761.409a.639.639,0,0,1,.409,1.023l-1.943,1.943a.781.781,0,0,0-.2.511l.511,2.761A.687.687,0,0,1,223.214,333.81Z" transform="translate(-115.199 -162.825)" fill="#f00"/>
      <path id="路径_341" data-name="路径 341" d="M125.707,153.6H96.561a1.833,1.833,0,0,0-1.841,1.841v19.942a1.833,1.833,0,0,0,1.841,1.841h8.079V180.7h-4.4a1.354,1.354,0,0,0-1.329,1.329,1.268,1.268,0,0,0,1.329,1.227h21.783a1.329,1.329,0,0,0,0-2.659h-4.4v-3.477h8.079a1.833,1.833,0,0,0,1.841-1.841v-19.84A1.833,1.833,0,0,0,125.707,153.6Zm-.1,21.68H96.663V155.543H125.5V175.28Z" fill="#2eb1c5"/>
      <path id="路径_342" data-name="路径 342" d="M492.325,342.525H482.3a1.023,1.023,0,1,1,0-2.045h10.022a.966.966,0,0,1,1.023,1.023A1.025,1.025,0,0,1,492.325,342.525Zm0,4.193h-6.954a1.023,1.023,0,1,1,0-2.045h6.954a.966.966,0,0,1,1.023,1.023A1.025,1.025,0,0,1,492.325,346.718Zm0,3.886h-6.954a1.023,1.023,0,1,1,0-2.045h6.954a.966.966,0,0,1,1.023,1.023A1.025,1.025,0,0,1,492.325,350.6Z" transform="translate(-371.118 -179.415)" fill="#666"/>
    </g>
  </g>
</svg>
