<?xml version="1.0" encoding="UTF-8"?>
<svg width="1920px" height="307px" viewBox="0 0 1920 307" version="1.1" xmlns="http://www.w3.org/2000/svg" xmlns:xlink="http://www.w3.org/1999/xlink">
    <!-- Generator: Sketch 52.5 (67469) - http://www.bohemiancoding.com/sketch -->
    <title>bg_chart</title>
    <desc>Created with Sketch.</desc>
    <defs>
        <linearGradient x1="50%" y1="48.0332267%" x2="50%" y2="100%" id="linearGradient-1">
            <stop stop-color="#000000" stop-opacity="0" offset="0%"></stop>
            <stop stop-color="#000000" stop-opacity="0.1" offset="100%"></stop>
        </linearGradient>
        <rect id="path-2" x="0" y="533" width="1920" height="1"></rect>
        <mask id="mask-3" maskContentUnits="userSpaceOnUse" maskUnits="objectBoundingBox" x="0" y="0" width="1920" height="1" fill="white">
            <use xlink:href="#path-2"></use>
        </mask>
        <rect id="path-4" x="0" y="466" width="1920" height="1"></rect>
        <mask id="mask-5" maskContentUnits="userSpaceOnUse" maskUnits="objectBoundingBox" x="0" y="0" width="1920" height="1" fill="white">
            <use xlink:href="#path-4"></use>
        </mask>
        <rect id="path-6" x="0" y="399" width="1920" height="1"></rect>
        <mask id="mask-7" maskContentUnits="userSpaceOnUse" maskUnits="objectBoundingBox" x="0" y="0" width="1920" height="1" fill="white">
            <use xlink:href="#path-6"></use>
        </mask>
        <linearGradient x1="50%" y1="50%" x2="50%" y2="100%" id="linearGradient-8">
            <stop stop-color="#00AA71" stop-opacity="0" offset="0%"></stop>
            <stop stop-color="#00AA71" stop-opacity="0.1" offset="100%"></stop>
        </linearGradient>
        <linearGradient x1="50%" y1="50%" x2="50%" y2="100%" id="linearGradient-9">
            <stop stop-color="#00AA71" stop-opacity="0" offset="0%"></stop>
            <stop stop-color="#00AA71" stop-opacity="0.05" offset="100%"></stop>
        </linearGradient>
        <linearGradient x1="50%" y1="0%" x2="50%" y2="100%" id="linearGradient-10">
            <stop stop-color="#00AA71" stop-opacity="0.4" offset="0%"></stop>
            <stop stop-color="#00AA71" stop-opacity="0" offset="100%"></stop>
        </linearGradient>
        <linearGradient x1="100%" y1="100%" x2="4.49662081%" y2="1.14491749e-14%" id="linearGradient-11">
            <stop stop-color="#48C479" offset="0%"></stop>
            <stop stop-color="#00AA71" offset="100%"></stop>
        </linearGradient>
    </defs>
    <g id="Page-1" stroke="none" stroke-width="1" fill="none" fill-rule="evenodd">
        <g id="01首页_01基础信息资源" transform="translate(0.000000, -1138.000000)" fill-rule="nonzero">
            <g id="item_02" transform="translate(0.000000, 820.000000)">
                <g id="bg_chart" transform="translate(0.000000, 24.000000)">
                    <rect id="矩形" fill="url(#linearGradient-1)" x="119" y="0" width="1" height="600"></rect>
                    <rect id="矩形" fill="url(#linearGradient-1)" x="239" y="0" width="1" height="600"></rect>
                    <rect id="矩形" fill="url(#linearGradient-1)" x="359" y="0" width="1" height="600"></rect>
                    <rect id="矩形" fill="url(#linearGradient-1)" x="479" y="0" width="1" height="600"></rect>
                    <rect id="矩形" fill="url(#linearGradient-1)" x="599" y="0" width="1" height="600"></rect>
                    <rect id="矩形" fill="url(#linearGradient-1)" x="719" y="0" width="1" height="600"></rect>
                    <rect id="矩形" fill="url(#linearGradient-1)" x="840" y="0" width="1" height="600"></rect>
                    <rect id="矩形" fill="url(#linearGradient-1)" x="959" y="0" width="1" height="600"></rect>
                    <rect id="矩形" fill="url(#linearGradient-1)" x="1079" y="0" width="1" height="600"></rect>
                    <rect id="矩形" fill="url(#linearGradient-1)" x="1199" y="0" width="1" height="600"></rect>
                    <rect id="矩形" fill="url(#linearGradient-1)" x="1319" y="0" width="1" height="600"></rect>
                    <rect id="矩形" fill="url(#linearGradient-1)" x="1439" y="0" width="1" height="600"></rect>
                    <rect id="矩形" fill="url(#linearGradient-1)" x="1559" y="0" width="1" height="600"></rect>
                    <rect id="矩形" fill="url(#linearGradient-1)" x="1679" y="0" width="1" height="600"></rect>
                    <rect id="矩形" fill="url(#linearGradient-1)" x="1799" y="0" width="1" height="600"></rect>
                    <use id="矩形" stroke="#000000" mask="url(#mask-3)" stroke-width="2" opacity="0.100000001" stroke-dasharray="1.5,4" xlink:href="#path-2"></use>
                    <use id="矩形" stroke="#000000" mask="url(#mask-5)" stroke-width="2" opacity="0.100000001" stroke-dasharray="1.5,4" xlink:href="#path-4"></use>
                    <use id="矩形" stroke="#000000" mask="url(#mask-7)" stroke-width="2" opacity="0.100000001" stroke-dasharray="1.5,4" xlink:href="#path-6"></use>
                    <rect id="矩形" fill="url(#linearGradient-8)" opacity="0.400000006" x="240" y="0" width="119" height="600"></rect>
                    <rect id="矩形" fill="url(#linearGradient-8)" x="480" y="0" width="119" height="600"></rect>
                    <rect id="矩形" fill="url(#linearGradient-8)" x="841" y="0" width="119" height="600"></rect>
                    <rect id="矩形" fill="url(#linearGradient-8)" x="1200" y="0" width="119" height="600"></rect>
                    <rect id="矩形" fill="url(#linearGradient-8)" opacity="0.400000006" x="1560" y="0" width="119" height="600"></rect>
                    <rect id="矩形" fill="url(#linearGradient-9)" x="600" y="0" width="119" height="600"></rect>
                    <rect id="矩形" fill="url(#linearGradient-9)" x="1320" y="0" width="119" height="600"></rect>
                    <path d="M360.151141,328.782334 C433.349495,338.142763 527.668675,384.372395 643.108679,467.471229 C855.654627,620.471229 916.104258,495.362915 1055.41966,440.278534 C1194.73506,385.194154 1310.83635,379.471229 1418.23364,467.471229 C1469.08403,509.137411 1517.31353,511.385965 1560.07177,496.514996 L1560.07177,597.972482 L360.222907,600.471229 L360.151141,328.782334 Z" id="路径" fill="url(#linearGradient-10)" transform="translate(960.111453, 464.626781) scale(-1, 1) translate(-960.111453, -464.626781) "></path>
                    <path d="M361.135547,336.217524 C434.243054,355.88324 528.348091,407.144066 643.450661,490 C855.996609,643 916.446241,517.891686 1055.76164,462.807305 C1195.07704,407.722924 1311.17834,402 1418.57562,490 C1469.03616,531.34674 1516.91583,522.85281 1559.42934,502.67896" id="路径" stroke="#000000" stroke-width="5" opacity="0.049999997" stroke-linecap="round" stroke-linejoin="round" transform="translate(960.282445, 449.796709) scale(-1, 1) translate(-960.282445, -449.796709) "></path>
                    <path d="M360.151141,328.170053 C433.507084,337.198512 528.200958,383.475161 644.232762,467 C856.778711,620 917.228342,494.891686 1056.54374,439.807305 C1195.85914,384.722924 1311.96044,379 1419.35772,467 C1470.20812,508.666182 1518.43761,510.914736 1561.19585,496.043767" id="路径" stroke="url(#linearGradient-11)" stroke-width="5" stroke-linecap="round" stroke-linejoin="round" transform="translate(960.673495, 434.272974) scale(-1, 1) translate(-960.673495, -434.272974) "></path>
                    <path d="M660.5,599 L660.5,403" id="路径" stroke="#48C479" stroke-dasharray="1.5,4"></path>
                    <path d="M1560.5,599 L1560.5,329" id="路径" stroke="#48C479" stroke-dasharray="1.5,4"></path>
                    <path d="M1018,600.225098 L1018,520.163051" id="路径" stroke="#48C479" stroke-dasharray="1.5,4"></path>
                    <circle id="椭圆形" stroke="#00AA71" stroke-width="5" fill="#FFFFFF" cx="1018" cy="520" r="6.5"></circle>
                    <circle id="椭圆形" stroke="#00AA71" opacity="0.600000024" cx="1018" cy="520" r="19.5"></circle>
                    <circle id="椭圆形" stroke="#00AA71" opacity="0.200000003" cx="1018" cy="520" r="29.5"></circle>
                    <circle id="椭圆形" stroke="#00AA71" stroke-width="5" fill="#FFFFFF" cx="660" cy="400" r="6.5"></circle>
                    <circle id="椭圆形" stroke="#00AA71" opacity="0.600000024" cx="660" cy="400" r="19.5"></circle>
                    <circle id="椭圆形" stroke="#00AA71" opacity="0.200000003" cx="660" cy="400" r="29.5"></circle>
                    <circle id="椭圆形" stroke="#00AA71" stroke-width="5" fill="#FFFFFF" cx="359" cy="496" r="6.5"></circle>
                    <circle id="椭圆形" stroke="#00AA71" opacity="0.600000024" cx="359" cy="496" r="19.5"></circle>
                    <circle id="椭圆形" stroke="#00AA71" opacity="0.200000003" cx="359" cy="496" r="29.5"></circle>
                    <circle id="椭圆形" stroke="#00AA71" stroke-width="5" fill="#FFFFFF" cx="1560" cy="329" r="6.5"></circle>
                    <circle id="椭圆形" stroke="#00AA71" opacity="0.600000024" cx="1560" cy="329" r="19.5"></circle>
                    <circle id="椭圆形" stroke="#00AA71" opacity="0.200000003" cx="1560" cy="329" r="29.5"></circle>
                </g>
            </g>
        </g>
    </g>
</svg>