<?xml version="1.0" encoding="UTF-8"?>
<svg width="20px" height="20px" viewBox="0 0 20 20" version="1.1" xmlns="http://www.w3.org/2000/svg" xmlns:xlink="http://www.w3.org/1999/xlink">
    <!-- Generator: Sketch 52.5 (67469) - http://www.bohemiancoding.com/sketch -->
    <title>ico_jgfk_sel</title>
    <desc>Created with Sketch.</desc>
    <g id="Page-1" stroke="none" stroke-width="1" fill="none" fill-rule="evenodd">
        <g id="09个人中心_06我的需求_02查看弹窗" transform="translate(-546.000000, -252.000000)" fill-rule="nonzero">
            <g id="pop-ups" transform="translate(480.000000, 80.000000)">
                <g id="ico_jgfk_sel" transform="translate(66.000000, 172.000000)">
                    <path d="M1.68470588,0.00352941176 C0.842352941,0.00352941176 -1.8189894e-12,0.674117647 -1.8189894e-12,1.61411765 L-1.8189894e-12,18.3905882 C-1.8189894e-12,19.1941176 0.702352941,20 1.68470588,20 L11.9705882,20 C11.4094118,19.4635294 10.9870588,18.9258824 10.7070588,18.2552941 C10.4202404,17.5762693 10.2768494,16.8452956 10.2858824,16.1082353 C10.2858824,15.3023529 10.4258824,14.6317647 10.7070588,13.9611765 C10.9870588,13.1552941 11.4094118,12.4847059 11.8305882,12.0823529 C12.3917647,11.5447059 12.9529412,11.1423529 13.6552941,10.8741176 C14.3265535,10.6116887 15.0404507,10.4752905 15.7611765,10.4717647 L15.7611765,1.61176471 C15.7611765,0.672941176 15.06,0.00235294118 14.0764706,0.00235294118 L1.68470588,0.00352941176 Z M4.07176471,4.02941176 L7.10823529,4.02941176 C7.52941176,4.02941176 7.95176471,4.43176471 7.95176471,4.83411765 C7.95176471,5.23764706 7.52941176,5.64 7.10823529,5.64 L4.07294118,5.64 C3.65058824,5.64 3.22941176,5.23764706 3.22941176,4.83411765 C3.22941176,4.43176471 3.65058824,4.02941176 4.07176471,4.02941176 Z M4.07058824,14.9 C3.64941176,14.9 3.22823529,14.4976471 3.22823529,14.0952941 C3.22823529,13.6917647 3.64941176,13.2894118 4.07058824,13.2894118 L7.61647059,13.2894118 C8.03764706,13.2894118 8.45882353,13.6917647 8.45882353,14.0952941 C8.45882353,14.4976471 8.03764706,14.9 7.61647059,14.9 L4.07058824,14.9 Z M11.6894118,10.2023529 L4.07176471,10.2023529 C3.65058824,10.2023529 3.22941176,9.93411765 3.22941176,9.39764706 C3.22941176,8.99529412 3.65058824,8.59294118 4.07176471,8.59294118 L11.6894118,8.59294118 C12.1105882,8.59294118 12.5317647,8.99529412 12.5317647,9.39764706 C12.5317647,9.93411765 12.2517647,10.2023529 11.6894118,10.2023529 Z" id="形状" fill="#FFFFFF"></path>
                    <path d="M15.8779492,11.7647059 C13.6079998,11.7647059 11.7647059,13.6103975 11.7647059,15.8829752 C11.7647059,18.1543084 13.6079998,20 15.8779492,20 C18.1478985,20 19.992381,18.1543084 19.992381,15.8829752 C20.1338071,13.6103975 18.2893247,11.7647059 15.8779492,11.7647059 Z M18.5705882,15.4364706 L15.7623529,17.9870588 C15.6211765,18.1211765 15.48,18.1211765 15.3411765,18.1211765 C15.2,18.1211765 15.0588235,18.1211765 14.92,17.9870588 L13.3752941,16.5105882 C13.0929412,16.2423529 13.0929412,15.84 13.3752941,15.7058824 C13.6552941,15.4364706 14.0764706,15.4364706 14.2176471,15.7058824 L15.3411765,16.7788235 L17.7282353,14.6317647 C18.0082353,14.3635294 18.4305882,14.3635294 18.5705882,14.6317647 C18.8517647,14.7658824 18.8517647,15.1682353 18.5705882,15.4364706 Z" id="形状" fill="#86DBA2"></path>
                </g>
            </g>
        </g>
    </g>
</svg>