<?xml version="1.0" encoding="UTF-8"?>
<svg width="216px" height="32px" viewBox="0 0 216 32" version="1.1" xmlns="http://www.w3.org/2000/svg" xmlns:xlink="http://www.w3.org/1999/xlink">
    <!-- Generator: Sketch 52.5 (67469) - http://www.bohemiancoding.com/sketch -->
    <title>logo</title>
    <desc>Created with Sketch.</desc>
    <g id="Page-1" stroke="none" stroke-width="1" fill="none" fill-rule="evenodd">
        <g id="01首页_01基础信息资源" transform="translate(-360.000000, -14.000000)">
            <g id="header">
                <g id="logo" transform="translate(360.000000, 14.000000)">
                    <path d="M207.858672,9.42082866 L206.741927,7.33510331 L208.984927,7.33510331 C209.479349,8.11500206 209.956201,8.81023975 210.415493,9.42082866 L214.987417,9.42082866 C215.366397,9.42082866 215.650628,9.52265888 215.840118,9.72632235 C215.982236,9.92998583 216.029608,10.1845614 215.982235,10.4900566 L215.129534,16.2944367 L203.333837,16.2944367 C202.433759,20.1131269 201.628439,22.8880002 200.917851,24.6191398 L198.643982,24.6191398 L201.202085,16.523557 C201.533692,14.7415015 201.794237,12.3739491 201.983727,9.42082866 L207.858672,9.42082866 Z M54.0371532,7.58734444 C53.5954081,9.26018434 52.9573414,10.7302337 52.1229339,11.9975367 L50.3559622,25 L48.5153667,25 L49.9142193,14.9630108 C49.4233914,15.4192398 48.7853247,15.9008077 48,16.4077289 L48.4417429,13.5943304 C48.8344053,13.2901777 49.2516027,12.8593012 49.6933479,12.3016879 C50.0860102,11.7440746 50.5032077,11.0343956 50.9449528,10.1726295 C51.3866979,9.31086353 51.7057313,8.44911045 51.9020625,7.58734444 L54.0371532,7.58734444 Z M60.424626,9.12115248 L65.844993,9.12115248 L65.6756065,11.1539236 L53.3103945,11.1539236 L53.4797809,9.12115248 L58.6742992,9.12115248 L58.4484506,7 L60.1987774,7 L60.424626,9.12115248 Z M64.138562,14.1559809 L53.9147635,14.1559809 L54.1661683,12.552139 L64.3899669,12.552139 L64.138562,14.1559809 Z M63.7571503,16.9817975 L53.5333518,16.9817975 L53.7847566,15.3779556 L64.0085552,15.3779556 L63.7571503,16.9817975 Z M63.473778,24.960303 L52.65732,24.960303 L53.3740733,18.2310325 L62.8873435,18.2310325 C63.3651814,18.2310325 63.6909751,18.3475555 63.8647343,18.580605 C63.9950537,18.8719169 64.0167733,19.3671396 63.9298937,20.0662881 L63.473778,24.960303 Z M54.8727391,19.978895 L54.5469422,23.2124405 L61.9751121,23.2124405 L62.1705903,20.3284675 C62.2140301,20.095418 62.1488713,19.978895 61.9751121,19.978895 L54.8727391,19.978895 Z M71.7720219,17.8982786 L73.0688217,8.80984128 L77.6457622,8.80984128 C78.0017483,8.19885085 78.2560202,7.66424223 78.4085856,7.20599941 L80.8496206,7.20599941 C80.6970551,7.61332636 80.4427832,8.14793498 80.0867972,8.80984128 L85.197714,8.80984128 C85.6554104,8.80984128 85.9605367,8.91167149 86.1131021,9.11533497 C86.2656676,9.31899845 86.316522,9.64994664 86.2656668,10.1081895 L85.197714,17.8982786 L71.7720219,17.8982786 Z M83.9009142,10.4136832 L74.9758803,10.4136832 L74.8233156,11.3301642 L83.9009142,11.3301642 L84.0534789,10.56643 C84.0534789,10.4645983 84.0026245,10.4136832 83.9009142,10.4136832 Z M74.5181862,13.7741138 L83.5957849,13.7741138 L83.7483495,12.7812593 L74.5944686,12.7812593 L74.5181862,13.7741138 Z M74.1367745,16.2944367 L83.2143732,16.2944367 L83.3669378,15.3015822 L74.2893392,15.3015822 L74.1367745,16.2944367 Z M78.5611503,21.7933231 C78.2560194,20.7750057 77.9508931,19.680331 77.6457622,18.509266 L79.6291031,18.509266 C79.9850891,19.5784992 80.4173514,20.673174 80.9259029,21.7933231 L78.5611503,21.7933231 Z M76.6540918,18.8911331 L75.8912684,23.0916713 L82.9855261,23.0916713 L82.4515497,24.7718866 L73.3739511,24.7718866 L74.5181862,18.8911331 L76.6540918,18.8911331 Z M71.3906102,19.2730002 L73.6027981,19.2730002 C72.8908261,20.8004763 72.0771559,22.3024719 71.1617632,23.7790321 L68.6444459,23.7790321 C69.9158247,21.8951449 70.8312036,20.3931493 71.3906102,19.2730002 Z M84.2823259,19.2730002 C84.994298,20.6986445 85.782541,22.2006402 86.6470785,23.7790321 L84.1297612,23.7790321 C83.366934,22.0478925 82.705827,20.5458969 82.1464204,19.2730002 L84.2823259,19.2730002 Z M97.6775051,10.1081895 L95.0839055,10.1081895 C94.3210783,8.8862086 93.7362528,7.91882158 93.3294116,7.20599941 L95.6178819,7.20599941 C96.3298539,8.2243168 97.0163882,9.19170381 97.6775051,10.1081895 Z M109.272421,8.8862147 C109.272421,9.24262579 109.170712,9.67540419 108.967292,10.1845629 C108.713016,10.8464692 108.458744,11.4319929 108.204468,11.9411516 L105.915998,11.9411516 C106.221129,11.381077 106.500828,10.8210109 106.755104,10.2609363 C106.805959,10.1081887 106.755104,10.031816 106.602539,10.031816 L100.881363,10.031816 C100.423667,10.9483017 99.9914048,11.7629434 99.5845636,12.4757656 L96.990964,12.4757656 C98.2623427,10.5409625 99.2031489,8.78439137 99.8134106,7.20599941 L102.101881,7.20599941 L101.644187,8.35160075 L108.357033,8.35160075 C108.967295,8.35160075 109.272421,8.52980362 109.272421,8.8862147 Z M103.474963,12.3230187 L105.076892,12.3230187 C106.551692,13.6977472 107.772197,14.7669644 108.738445,15.5307025 L105.839716,15.5307025 C105.48373,15.1233755 105.000613,14.5887669 104.390351,13.9268606 C103.729234,13.3158702 103.322399,12.9085493 103.169834,12.7048858 C102.712137,13.2649604 102.203593,13.7741115 101.644187,14.2323543 C101.08478,14.741513 100.576236,15.1233763 100.11854,15.3779556 L96.53327,15.3779556 C97.6520832,14.9197128 98.6183166,14.3851042 99.4319989,13.7741138 C100.245681,13.2140392 100.881361,12.6285155 101.339057,12.017525 C101.796754,11.4574505 102.10188,10.973757 102.254446,10.56643 L104.619198,10.56643 C104.415778,11.0246728 104.03437,11.6101965 103.474963,12.3230187 Z M97.6012227,10.7191768 C96.4824095,12.5012323 95.4144674,14.0032279 94.3973644,15.2252088 L91.6512001,15.2252088 C92.312317,14.5633025 92.9734241,13.8250334 93.634541,13.0103795 C94.2448028,12.1957256 94.7787738,11.431999 95.2364702,10.7191768 L97.6012227,10.7191768 Z M103.780092,22.2515637 L104.542916,18.0510254 C104.542916,17.8473619 104.441207,17.7455317 104.237786,17.7455317 L95.6178819,17.7455317 L94.8550585,22.5570574 L92.7191529,22.5570574 L93.7871057,16.0653164 L105.305739,16.0653164 C105.916001,16.0653164 106.322836,16.1671466 106.526257,16.3708101 C106.729677,16.6253895 106.780532,17.0327103 106.678821,17.5927849 L105.915998,22.2515637 L103.780092,22.2515637 Z M100.194822,20.9532155 L101.41534,20.9532155 C102.890139,22.0733646 104.87346,23.3462423 107.365362,24.7718866 L103.70381,24.7718866 C102.635852,24.0590644 101.288211,23.0153048 99.660846,21.6405763 C98.643743,22.7607254 97.067257,23.8044851 94.9313408,24.7718866 L90.4306827,24.7718866 C94.0413982,23.6008216 96.4569815,22.2770289 97.6775051,20.8004686 C97.9317808,20.5458893 98.1860528,20.2149411 98.4403285,19.8076141 C98.6437491,19.4512031 98.7963123,18.942052 98.8980225,18.2801457 L101.186493,18.2801457 C101.084782,18.6874726 100.957647,19.1457086 100.805081,19.6548673 C100.60166,20.2149419 100.398243,20.6477203 100.194822,20.9532155 Z M117.674552,11.1418597 L115.709574,11.1418597 L114.137592,7.1369911 L115.971571,7.1369911 L117.674552,11.1418597 Z M117.019559,16.3019789 L114.989082,16.3019789 L113.613598,12.0660602 L115.382078,12.0660602 L117.019559,16.3019789 Z M114.858084,17.842313 L116.692063,17.842313 C115.687736,20.666273 114.748923,22.976751 113.875595,24.7738165 L111.845117,24.7738165 C112.936777,22.6173379 113.941089,20.3068599 114.858084,17.842313 Z M126.329153,18.8911331 L128.159929,18.8911331 C128.363349,20.1640298 128.668476,21.6660254 129.075317,23.397165 L127.015694,23.397165 C126.761418,22.0224365 126.532573,20.5204409 126.329153,18.8911331 Z M120.913106,18.8911331 L122.896447,18.8911331 C122.13362,20.5204409 121.31995,22.0224365 120.455412,23.397165 L118.395789,23.397165 C119.412892,21.8696889 120.251989,20.3676933 120.913106,18.8911331 Z M122.896447,16.2944367 L126.939411,16.2944367 L127.168258,14.9197151 L123.049012,14.9197151 L122.896447,16.2944367 Z M127.473388,12.3993921 C127.524243,12.2466445 127.473388,12.1702719 127.320823,12.1702719 L123.354141,12.1702719 L123.201577,13.3922466 L127.397105,13.3922466 L127.473388,12.3993921 Z M130.524681,9.03896155 L126.863129,9.03896155 C126.659708,9.59903612 126.430864,10.1081872 126.176588,10.56643 L128.312493,10.56643 C128.922755,10.56643 129.304163,10.6682602 129.456729,10.8719237 C129.609294,11.0755872 129.634721,11.482908 129.533011,12.0938985 L128.693905,17.8982786 L125.795176,17.8982786 L124.879788,24.6191398 L121.447083,24.6191398 L121.065671,23.0152979 L123.049012,23.0152979 L123.811835,17.8982786 L120.684259,17.8982786 L121.67593,10.56643 L124.040682,10.56643 C124.294958,10.0572713 124.498376,9.54812025 124.650941,9.03896155 L120.760542,9.03896155 C120.506266,11.9411661 120.226567,14.3087185 119.921436,16.1416899 C119.46374,18.8911468 118.624642,21.7169352 117.404119,24.6191398 L115.115648,24.6191398 C116.539592,21.5132717 117.454971,18.6111107 117.861813,15.9125696 C118.065233,14.7415046 118.268651,13.3158816 118.472071,11.6356579 C118.675492,10.0063501 118.828055,8.58072712 118.929765,7.35874625 L130.753528,7.35874625 L130.524681,9.03896155 Z M148.344236,12.3993921 L147.733978,16.6763038 L151.853224,16.6763038 L151.548095,18.509266 L134.765979,18.509266 L135.071109,16.6763038 L139.114073,16.6763038 L139.724332,12.3993921 L136.520473,12.3993921 L136.74932,10.6428034 L139.953179,10.6428034 L140.410873,7.35874625 L142.699343,7.35874625 L142.241649,10.6428034 L146.284613,10.6428034 L146.742307,7.35874625 L149.030777,7.35874625 L148.573083,10.6428034 L151.853224,10.6428034 L151.548095,12.3993921 L148.344236,12.3993921 Z M142.012802,12.3993921 L141.402543,16.6763038 L145.445507,16.6763038 L146.055766,12.3993921 L142.012802,12.3993921 Z M133.774309,24.5427663 C134.740557,23.9317759 135.757645,23.1425918 136.825603,22.1751902 C137.893561,21.2077887 138.758085,20.3422319 139.419202,19.5784939 L142.241649,19.5784939 C141.427967,20.4949795 140.563442,21.4114514 139.648049,22.3279371 C138.681802,23.2953386 137.868131,24.0336076 137.207014,24.5427663 L133.774309,24.5427663 Z M144.606402,19.5784939 L146.971154,19.5784939 C147.42885,20.2404002 148.039103,21.0550419 148.80193,22.0224434 C149.564758,22.9898449 150.302146,23.8299442 151.014118,24.5427663 L147.962825,24.5427663 C146.844011,23.0662061 145.725215,21.4114652 144.606402,19.5784939 Z M165.744047,8.73655375 L173.092629,8.73655375 L172.862986,10.3384331 L156.099034,10.3384331 L156.328677,8.73655375 L163.371068,8.73655375 L163.064877,7.06502742 L165.437857,7.06502742 L165.744047,8.73655375 Z M170.555785,15.4701687 L157.674191,15.4701687 L158.527791,10.9756133 L169.857386,10.9756133 C170.426455,10.9756133 170.814451,11.0534403 171.021385,11.2090967 C171.176586,11.4036672 171.202452,11.734432 171.098985,12.2014011 L170.555785,15.4701687 Z M160.31259,12.1430303 L159.92459,14.3027517 L168.770986,14.3027517 L169.003786,12.3765137 C169.05552,12.2208573 168.97792,12.1430303 168.770986,12.1430303 L160.31259,12.1430303 Z M169.443932,18.2801457 C168.274263,18.8402203 166.850341,19.3493713 165.172121,19.8076141 L172.342661,19.8076141 L172.113814,21.411456 L164.790709,21.411456 L164.256733,24.9246335 L159.984922,24.9246335 L159.450945,23.397165 L162.273392,23.397165 L162.578521,21.411456 L155.179134,21.411456 L155.407981,19.8076141 L162.883651,19.8076141 L162.959933,19.0438799 C164.180456,18.7383847 165.299253,18.3565214 166.316356,17.8982786 C166.367211,17.8982786 166.418065,17.872821 166.468921,17.8219052 L158.230428,17.8219052 L157.772734,16.2944367 L169.825344,16.2944367 C170.18133,16.2944367 170.35932,16.447182 170.35932,16.7526772 C170.308465,17.1090883 170.232183,17.3891214 170.130473,17.5927849 C170.028763,17.8473642 169.799918,18.0764822 169.443932,18.2801457 Z M183.75449,10.4900566 L181.631686,10.4900566 L180.314084,7.20599941 L182.290487,7.20599941 L183.75449,10.4900566 Z M193.929308,7.43511968 C194.319711,7.43511968 194.588109,7.51149233 194.73451,7.66423994 C194.880911,7.86790342 194.92971,8.17339406 194.88091,8.58072101 L192.831306,24.6955132 L189.024899,24.6955132 L188.585699,22.9389245 L191.001303,22.9389245 L192.758106,9.64994893 C192.758106,9.49720132 192.733706,9.36991356 192.684906,9.26808182 C192.636106,9.21716595 192.489707,9.1917084 192.245705,9.1917084 L185.145292,9.1917084 L184.413291,7.43511968 L193.929308,7.43511968 Z M178.923281,9.80269578 L180.753284,11.101044 L178.850081,24.6955132 L176.800477,24.6955132 L178.923281,9.80269578 Z M213.779424,11.4829111 C213.826797,11.2792476 213.755739,11.1774174 213.566249,11.1774174 L203.973363,11.1774174 L203.618071,14.537848 L213.282015,14.537848 L213.779424,11.4829111 Z" id="合并形状" fill="#3D3E49"></path>
                    <g>
                        <path d="M15.4217674,15.2741323 L15.4217674,21.3836378 L6.16855814,21.3836378 C2.76167442,21.3836378 0,18.6484014 0,15.2741323 C0,11.8998632 2.76167442,9.16425826 6.16855814,9.16425826 C9.57544186,9.16425826 12.3374884,11.8998632 12.3374884,15.2741323 L15.4217674,15.2741323 Z" id="路径" fill="#86DBA2"></path>
                        <path d="M26.987907,10.6918189 C26.987907,14.155641 25.3250233,17.2343482 22.7467907,19.1882991 L22.7467907,21.3836378 L16.1927442,21.3836378 C10.2306977,21.3836378 5.3975814,16.5967898 5.3975814,10.6918189 C5.3975814,4.78684805 10.2306977,0 16.1927442,0 C22.1547907,0 26.987907,4.78684805 26.987907,10.6918189 Z" id="路径" fill="#48C479"></path>
                        <path d="M15.0362791,12.9829756 C15.0362791,17.6225332 18.8337373,21.3836378 23.5181395,21.3836378 C28.2025417,21.3836378 32,17.6225332 32,12.9829756 C32,8.34341798 28.2025417,4.5823134 23.5181395,4.5823134 C18.8337373,4.5823134 15.0362791,8.34341798 15.0362791,12.9829756 Z" id="路径" fill="#00AA71"></path>
                        <path d="M8.03534884,24.59907 L11.2818605,24.59907 L11.2818605,30.3920996 L8.03534884,30.3920996 L8.03534884,24.59907 Z M14.5287442,24.59907 L17.7752558,24.59907 L17.7752558,32 L14.5287442,32 L14.5287442,24.59907 Z M21.0221395,24.59907 L24.2686512,24.59907 L24.2686512,30.3920996 L21.0221395,30.3920996 L21.0221395,24.59907 Z" id="形状" fill="#FFFFFF" fill-rule="nonzero"></path>
                    </g>
                </g>
            </g>
        </g>
    </g>
</svg>