<?xml version="1.0" encoding="UTF-8"?>
<svg width="16px" height="16px" viewBox="0 0 16 16" version="1.1" xmlns="http://www.w3.org/2000/svg" xmlns:xlink="http://www.w3.org/1999/xlink">
    <!-- Generator: Sketch 52.5 (67469) - http://www.bohemiancoding.com/sketch -->
    <title>ico_link</title>
    <desc>Created with Sketch.</desc>
    <g id="Page-1" stroke="none" stroke-width="1" fill="none" fill-rule="evenodd">
        <g id="02资源目录_07资源申请" transform="translate(-656.000000, -1402.000000)" fill="#00AA71" fill-rule="nonzero">
            <g id="item_02" transform="translate(0.000000, 296.000000)">
                <g id="object-11" transform="translate(532.000000, 1058.000000)">
                    <path d="M139.73408,52.1330957 L135.866968,48.2667633 C135.510923,47.9110789 134.934357,47.9110789 134.578312,48.2667633 L130.711772,52.1330957 C130.540531,52.303936 130.444283,52.5359717 130.444283,52.777961 C130.444283,53.0199503 130.540531,53.251986 130.711772,53.4228264 L131.355243,54.0662619 L135.222355,50.1999295 L137.800238,52.777675 L133.933127,56.6440074 L134.578312,57.2885868 C134.934357,57.6442712 135.510923,57.6442712 135.866968,57.2885868 L139.733508,53.4222544 C140.088831,53.0661088 140.088831,52.4892413 139.733508,52.1330957 L139.73408,52.1330957 Z M132.645042,57.9325943 L128.778502,61.7989266 L126.200047,59.2211811 L130.067159,55.3548487 L129.421973,54.7102693 C129.065928,54.3545849 128.489362,54.3545849 128.133317,54.7102693 L124.266777,58.5771736 C123.911074,58.9333849 123.911074,59.510693 124.266777,59.8669043 L128.133317,63.7332367 C128.489362,64.0889211 129.065928,64.0889211 129.421973,63.7332367 L133.289085,59.8669043 C133.460326,59.696064 133.556574,59.4640283 133.556574,59.222039 C133.556574,58.9800497 133.460326,58.748014 133.289085,58.5771736 L132.645614,57.9337381 L132.645042,57.9331662 L132.645042,57.9325943 Z M129.421973,58.5760297 C129.592941,58.7473422 129.824945,58.8436015 130.066873,58.8436015 C130.308801,58.8436015 130.540804,58.7473422 130.711772,58.5760297 L134.578884,54.7096974 C134.74953,54.5391214 134.845416,54.3076431 134.845416,54.0662619 C134.845416,53.8248806 134.74953,53.5934023 134.578884,53.4228264 C134.407916,53.2515139 134.175912,53.1552546 133.933984,53.1552546 C133.692056,53.1552546 133.460053,53.2515139 133.289085,53.4228264 L129.421973,57.2891588 C129.251327,57.4597347 129.155441,57.691213 129.155441,57.9325943 C129.155441,58.1739755 129.251327,58.4054538 129.421973,58.5760297 Z" id="ico_link"></path>
                </g>
            </g>
        </g>
    </g>
</svg>