<?xml version="1.0" encoding="UTF-8"?>
<svg width="8px" height="8px" viewBox="0 0 8 8" version="1.1" xmlns="http://www.w3.org/2000/svg" xmlns:xlink="http://www.w3.org/1999/xlink">
    <!-- Generator: Sketch 52.5 (67469) - http://www.bohemiancoding.com/sketch -->
    <title>ico_close_sel</title>
    <desc>Created with Sketch.</desc>
    <g id="Page-1" stroke="none" stroke-width="1" fill="none" fill-rule="evenodd">
        <g id="03文件" transform="translate(-876.000000, -226.000000)">
            <g id="item_01">
                <g id="标签" transform="translate(642.000000, 210.000000)">
                    <g id="间距-&lt;h16-&gt;">
                        <g id="边距-&lt;10-16-10-16&gt;" transform="translate(138.000000, 0.000000)">
                            <g id="间距-&lt;h8-&gt;" transform="translate(16.000000, 10.000000)">
                                <g id="ico_close_sel" transform="translate(78.000000, 4.000000)">
                                    <rect id="Rectangle-17" x="0" y="0" width="12" height="12"></rect>
                                    <path d="M6.60540871,6 L9.87461575,9.26920704 C10.0417947,9.43638604 10.0417947,9.70743675 9.87461575,9.87461575 C9.70743675,10.0417947 9.43638604,10.0417947 9.26920704,9.87461575 L6,6.60540871 L2.73079296,9.87461575 C2.56361396,10.0417947 2.29256325,10.0417947 2.12538425,9.87461575 C1.95820525,9.70743675 1.95820525,9.43638604 2.12538425,9.26920704 L5.39459129,6 L2.12538425,2.73079296 C1.95820525,2.56361396 1.95820525,2.29256325 2.12538425,2.12538425 C2.29256325,1.95820525 2.56361396,1.95820525 2.73079296,2.12538425 L6,5.39459129 L9.26920704,2.12538425 C9.43638604,1.95820525 9.70743675,1.95820525 9.87461575,2.12538425 C10.0417947,2.29256325 10.0417947,2.56361396 9.87461575,2.73079296 L6.60540871,6 Z" id="Combined-Shape" fill="#00AA71"></path>
                                </g>
                            </g>
                        </g>
                    </g>
                </g>
            </g>
        </g>
    </g>
</svg>
