<?xml version="1.0" encoding="UTF-8"?>
<svg width="16px" height="16px" viewBox="0 0 16 16" version="1.1" xmlns="http://www.w3.org/2000/svg" xmlns:xlink="http://www.w3.org/1999/xlink">
    <!-- Generator: Sketch 52.5 (67469) - http://www.bohemiancoding.com/sketch -->
    <title>ico_footer_01</title>
    <desc>Created with Sketch.</desc>
    <g id="Page-1" stroke="none" stroke-width="1" fill="none" fill-rule="evenodd">
        <g id="01首页_01基础信息资源" transform="translate(-901.000000, -2804.000000)" fill="#333333" fill-rule="nonzero">
            <g id="footer" transform="translate(0.000000, 2623.000000)">
                <path d="M901,196.993314 L901,181.001884 L908.937505,181.001884 L908.937505,196.993314 L901,196.993314 Z M903.96816,182.950432 C903.348043,182.950432 902.747561,182.940615 902.149526,182.962696 C902.072297,182.965143 901.9412,183.130569 901.938722,183.223707 C901.919135,183.792322 901.928936,184.360953 901.928936,184.967575 L903.96816,184.967575 L903.96816,182.950432 Z M901.931382,188.973703 L903.963251,188.973703 L903.963251,186.983502 C903.339473,186.983502 902.741437,186.976147 902.144617,186.99332 C902.071082,186.995766 901.94363,187.131804 901.9412,187.209001 C901.924027,187.800912 901.931382,188.394055 901.931382,188.973703 Z M903.974268,191.308267 C903.96816,191.196741 903.772066,191.017836 903.653185,191.009233 C903.186279,190.973705 902.714463,190.98106 902.247557,191.005572 C902.138493,191.010449 901.94977,191.142809 901.946109,191.223699 C901.920382,191.815611 901.931383,192.409985 901.931383,193.011714 L903.99021,193.011714 C903.990209,192.403861 904.008581,191.854833 903.974268,191.308267 Z M908.007354,183.258036 C908.00123,183.148957 907.83211,182.965127 907.730386,182.960218 C907.166679,182.930797 906.600463,182.945524 906.00489,182.945524 L906.00489,185.004319 C906.602925,185.004319 907.185051,185.016582 907.764699,184.99084 C907.85416,184.987194 908.003677,184.813165 908.008553,184.71021 C908.034312,184.227378 908.038006,183.740884 908.007354,183.258036 Z M908.020833,186.979841 C907.371328,186.979841 906.805143,186.97247 906.238975,186.987164 C906.151992,186.989626 905.996319,187.097475 905.993905,187.159977 C905.975501,187.770277 905.98284,188.380576 905.98284,189.015371 C906.602957,189.015371 907.139705,189.033759 907.672808,189.001892 C907.79412,188.994537 907.997553,188.819293 908.004924,188.711461 C908.039221,188.163664 908.020833,187.61219 908.020833,186.979841 Z M908.007354,191.297234 C908.00123,191.191864 907.824755,191.014142 907.719385,191.009233 C907.170341,190.979845 906.617651,190.995754 906.012261,190.995754 L906.012261,192.989632 L908.020833,192.989632 C908.020833,192.396506 908.036775,191.845031 908.007354,191.297234 Z M915.094383,196.997007 L915.094383,193.039887 L911.990186,193.039887 L911.990186,197.001884 L910.083354,197.001884 L910.083354,188.079096 L916.99757,188.079096 L916.99757,196.997007 L915.094383,196.997007 Z M910.060057,186.934479 L910.060057,186.058276 L917,186.058276 L917,186.934479 L910.060057,186.934479 Z" id="ico_footer_01"></path>
            </g>
        </g>
    </g>
</svg>