<?xml version="1.0" encoding="UTF-8"?>
<svg width="14px" height="14px" viewBox="0 0 14 14" version="1.1" xmlns="http://www.w3.org/2000/svg" xmlns:xlink="http://www.w3.org/1999/xlink">
    <!-- Generator: Sketch 52.5 (67469) - http://www.bohemiancoding.com/sketch -->
    <title>ico_home</title>
    <desc>Created with Sketch.</desc>
    <g id="Page-1" stroke="none" stroke-width="1" fill="none" fill-rule="evenodd">
        <g id="02资源目录_01最新上线" transform="translate(-360.000000, -84.000000)" fill="#00AA71" fill-rule="nonzero">
            <g id="item_02">
                <g id="面包屑" transform="translate(360.000000, 84.000000)">
                    <path d="M8.75005234,13.125 L11.3751308,13.125 L11.3751308,6.5578125 L12.5267278,6.5578125 L7.02656329,0.903125 L7,0.875 C7,0.875 6.99843745,0.875 7,0.875 L1.47327221,6.5578125 L2.62486915,6.5578125 L2.62486915,13.125 L5.24994766,13.125 L5.24994766,10.5 C5.24994766,10.0171875 5.64214689,9.625 6.12497383,9.625 L7.87502617,9.625 C8.35785311,9.625 8.75005234,10.0171875 8.75005234,10.5 L8.75005234,13.125 Z M7.87502617,10.5 L6.12497383,10.5 L6.12497383,13.125 L7.87502617,13.125 L7.87502617,10.5 Z M7,0 C7.2406322,0 7.47970185,0.0984375 7.65470708,0.29375 L13.8892685,6.7046875 C14.0002094,6.8296875 14.0345854,7.0125 13.9611457,7.175 C13.8892685,7.3359375 13.7298888,7.4328125 13.5626963,7.4328125 L12.250157,7.4328125 L12.250157,13.125 C12.250157,13.6078125 11.8579578,14 11.3751308,14 L2.62486915,14 C2.14204221,14 1.74984298,13.6078125 1.74984298,13.125 L1.74984298,7.4328125 L0.437303726,7.4328125 C0.270111225,7.4328125 0.112294005,7.3375 0.0388543089,7.175 C-0.0345853875,7.0125 -0.000209359428,6.8296875 0.110731459,6.7046875 L6.34529292,0.29375 C6.52029815,0.0984375 6.7593678,0 7,0 Z" id="ico_home"></path>
                </g>
            </g>
        </g>
    </g>
</svg>