<?xml version="1.0" encoding="UTF-8"?>
<svg width="16px" height="14px" viewBox="0 0 16 14" version="1.1" xmlns="http://www.w3.org/2000/svg" xmlns:xlink="http://www.w3.org/1999/xlink">
    <!-- Generator: Sketch 52.5 (67469) - http://www.bohemiancoding.com/sketch -->
    <title>ico_03</title>
    <desc>Created with Sketch.</desc>
    <g id="Page-1" stroke="none" stroke-width="1" fill="none" fill-rule="evenodd">
        <g id="03文件" transform="translate(-1473.000000, -390.000000)">
            <g id="item_01">
                <g id="object-1" transform="translate(642.000000, 346.000000)">
                    <g id="间距-&lt;h24-&gt;" transform="translate(683.000000, 43.000000)">
                        <g id="分组" transform="translate(148.000000, 0.000000)">
                            <g id="ico_03">
                                <rect id="矩形" fill="#000000" opacity="0" x="0" y="0" width="16" height="16"></rect>
                                <path d="M5.70785596,2.11196102 L10.2794742,2.11196102 L10.2794742,3.2485586 L5.70785596,3.2485586 L5.70785596,2.11196102 Z M5.70785596,1 L10.2794742,1 L10.2794742,1.59289059 L5.70785596,1.59289059 L5.70785596,1 Z M14.6309061,10.4891908 L14.087927,13.3192624 L1.89837937,13.3192624 L1.35592813,10.4891908 L0,10.4891908 L0,15 L16,15 L16,10.4891908 L14.6309061,10.4891908 Z M14.2950116,5.44788883 L10.2794742,5.44788883 L10.2794742,3.81730535 L5.70785596,3.81730535 L5.70785596,5.46066999 L1.74310992,5.46066999 L7.98021938,11.836364 L14.2950116,5.44788883 Z" id="形状" fill="#3D3E49" fill-rule="nonzero"></path>
                            </g>
                        </g>
                    </g>
                </g>
            </g>
        </g>
    </g>
</svg>
