<?xml version="1.0" encoding="UTF-8"?>
<svg width="16px" height="16px" viewBox="0 0 16 16" version="1.1" xmlns="http://www.w3.org/2000/svg" xmlns:xlink="http://www.w3.org/1999/xlink">
    <!-- Generator: Sketch 52.5 (67469) - http://www.bohemiancoding.com/sketch -->
    <title>ico_footer_04</title>
    <desc>Created with Sketch.</desc>
    <g id="Page-1" stroke="none" stroke-width="1" fill="none" fill-rule="evenodd">
        <g id="01首页_01基础信息资源" transform="translate(-901.000000, -2918.000000)" fill="#333333" fill-rule="nonzero">
            <g id="footer" transform="translate(0.000000, 2623.000000)">
                <path d="M905.738972,306.968761 L905.737203,306.968761 C904.658154,305.981237 904.24953,304.566199 904.24953,302.995701 C904.24953,301.43227 904.383969,300.022531 905.454174,299.035008 L906.883472,299.035008 C907.474295,299.035008 907.953676,298.550962 907.953676,297.955622 L907.953676,296.08127 C907.953676,295.48593 907.474295,295.001884 906.883472,295.001884 L904.030182,295.001884 C903.43759,295.001884 902.892758,295.33047 902.615036,295.85868 C901.608513,297.77013 901,300.262787 901,302.988635 C901,305.728615 901.615589,308.233639 902.630956,310.148622 C902.910448,310.675065 903.45351,311.001884 904.044334,311.001884 L906.881703,311.001884 C907.472526,311.001884 907.951907,310.517839 907.951907,309.922498 L907.951907,308.048147 C907.951907,307.452806 907.472526,306.968761 906.881703,306.968761 L905.738972,306.968761 Z M909.181316,299.628582 C909.181316,300.116412 909.577305,300.511876 910.065782,300.511876 C910.55426,300.511876 910.950249,300.116412 910.950249,299.628582 C910.950249,299.140752 910.55426,298.745287 910.065782,298.745287 C909.577305,298.745287 909.181316,299.140752 909.181316,299.628582 Z M912.206191,299.628582 C912.206191,300.116412 912.60218,300.511876 913.090658,300.511876 C913.579135,300.511876 913.975124,300.116412 913.975124,299.628582 C913.975124,299.140752 913.579135,298.745287 913.090658,298.745287 C912.60218,298.745287 912.206191,299.140752 912.206191,299.628582 Z M915.231067,299.628582 C915.231067,300.116412 915.627056,300.511876 916.115533,300.511876 C916.604011,300.511876 917,300.116412 917,299.628582 C917,299.140752 916.604011,298.745287 916.115533,298.745287 C915.627056,298.745287 915.231067,299.140752 915.231067,299.628582 Z M909.181316,303.002767 C909.181316,303.490598 909.577305,303.886062 910.065782,303.886062 C910.55426,303.886062 910.950249,303.490598 910.950249,303.002767 C910.950249,302.514937 910.55426,302.119473 910.065782,302.119473 C909.577305,302.119473 909.181316,302.514937 909.181316,303.002767 Z M912.206191,303.002767 C912.206191,303.490598 912.60218,303.886062 913.090658,303.886062 C913.579135,303.886062 913.975124,303.490598 913.975124,303.002767 C913.975124,302.514937 913.579135,302.119473 913.090658,302.119473 C912.60218,302.119473 912.206191,302.514937 912.206191,303.002767 Z M915.231067,303.002767 C915.231067,303.490598 915.627056,303.886062 916.115533,303.886062 C916.604011,303.886062 917,303.490598 917,303.002767 C917,302.514937 916.604011,302.119473 916.115533,302.119473 C915.627056,302.119473 915.231067,302.514937 915.231067,303.002767 Z M909.181316,306.376953 C909.181316,306.864783 909.577305,307.260248 910.065782,307.260248 C910.55426,307.260248 910.950249,306.864783 910.950249,306.376953 C910.950249,305.889123 910.55426,305.493659 910.065782,305.493659 C909.577305,305.493659 909.181316,305.889123 909.181316,306.376953 Z M912.206191,306.376953 C912.206191,306.864783 912.60218,307.260248 913.090658,307.260248 C913.579135,307.260248 913.975124,306.864783 913.975124,306.376953 C913.975124,305.889123 913.579135,305.493659 913.090658,305.493659 C912.60218,305.493659 912.206191,305.889123 912.206191,306.376953 Z M915.231067,306.376953 C915.231067,306.864783 915.627056,307.260248 916.115533,307.260248 C916.604011,307.260248 917,306.864783 917,306.376953 C917,305.889123 916.604011,305.493659 916.115533,305.493659 C915.627056,305.493659 915.231067,305.889123 915.231067,306.376953 Z" id="ico_footer_04"></path>
            </g>
        </g>
    </g>
</svg>