<?xml version="1.0" encoding="UTF-8"?>
<svg width="20px" height="20px" viewBox="0 0 20 20" version="1.1" xmlns="http://www.w3.org/2000/svg" xmlns:xlink="http://www.w3.org/1999/xlink">
    <!-- Generator: Sketch 52.5 (67469) - http://www.bohemiancoding.com/sketch -->
    <title>ico_tgdwsp</title>
    <desc>Created with Sketch.</desc>
    <g id="Page-1" stroke="none" stroke-width="1" fill="none" fill-rule="evenodd">
        <g id="02资源目录_07资源申请" transform="translate(-894.000000, -218.000000)">
            <g id="item_01">
                <g id="card-2" transform="translate(870.000000, 200.000000)">
                    <g id="ico_tgdwsp" transform="translate(24.000000, 18.000000)">
                        <path d="M1.76470588,2.46716228e-16 L14.7058824,2.46716228e-16 C15.6805025,0 16.4705882,0.746192084 16.4705882,1.66666667 L16.4705882,18.3333333 C16.4705882,19.2538079 15.6805025,20 14.7058824,20 L1.76470588,20 C0.790085736,20 0,19.2538079 0,18.3333333 L0,1.66666667 C0,0.746192084 0.790085736,2.46716228e-16 1.76470588,2.46716228e-16 Z" id="路径" fill="#86DBA2"></path>
                        <path d="M3.52941176,4.44444444 L12.9411765,4.44444444 L12.9411765,6.11111111 L3.52941176,6.11111111 L3.52941176,4.44444444 Z M3.52941176,8.88888889 L12.9411765,8.88888889 L12.9411765,10.5555556 L3.52941176,10.5555556 L3.52941176,8.88888889 Z M3.52941176,13.3333333 L8.23529412,13.3333333 L8.23529412,15 L3.52941176,15 L3.52941176,13.3333333 Z" id="形状" fill="#FFFFFF" fill-rule="nonzero"></path>
                        <path d="M13.5788235,14.15 L9.41176471,16.9944444 L9.93588235,12.1638889 L16.1205882,2.09055556 C16.7015956,1.16477 17.963155,0.852838673 18.9499644,1.39096816 C19.9367739,1.92909765 20.281428,3.1169335 19.7229412,4.055 L13.5788235,14.15 Z" id="路径" fill="#443D4E"></path>
                    </g>
                </g>
            </g>
        </g>
    </g>
</svg>