<?xml version="1.0" encoding="UTF-8"?>
<svg width="16px" height="16px" viewBox="0 0 16 16" version="1.1" xmlns="http://www.w3.org/2000/svg" xmlns:xlink="http://www.w3.org/1999/xlink">
    <!-- Generator: Sketch 52.5 (67469) - http://www.bohemiancoding.com/sketch -->
    <title>ico_footer_03</title>
    <desc>Created with Sketch.</desc>
    <g id="Page-1" stroke="none" stroke-width="1" fill="none" fill-rule="evenodd">
        <g id="01首页_01基础信息资源" transform="translate(-901.000000, -2880.000000)" fill="#333333" fill-rule="nonzero">
            <g id="footer" transform="translate(0.000000, 2623.000000)">
                <path d="M911.783659,267.713506 C910.614499,268.896448 909.153049,269.534208 907.401611,269.627929 C907.003452,269.627929 906.607595,269.59707 906.214039,269.534208 C905.820483,269.471346 905.451093,269.367339 905.104718,269.222186 C905,269.18104 904.881473,269.159324 904.750288,269.159324 C904.619102,269.159324 904.500575,269.179897 904.395857,269.222186 L904.301496,269.222186 C904.291139,269.274761 904.275029,269.30562 904.254315,269.315907 L903.89298,269.425629 C903.70817,269.477171 903.522073,269.524046 903.334868,269.56621 C903.150748,269.608499 902.93901,269.629072 902.697353,269.629072 C902.498274,269.576497 902.319908,269.522779 902.162255,269.464489 C902.004603,269.407342 901.852704,269.326193 901.706559,269.222186 L901.800921,269.128465 C901.895282,269.075889 901.973533,269.029029 902.036824,268.987883 C902.100115,268.946737 902.151899,268.925022 902.194476,268.925022 C902.299194,268.872446 902.395857,268.782154 902.485616,268.651859 C902.574683,268.521036 902.646245,268.379266 902.698504,268.230115 C902.751438,268.079247 902.756041,267.920378 902.714614,267.753509 C902.672037,267.58664 902.59954,267.446059 902.494822,267.331765 C902.001151,266.737437 901.629459,266.097391 901.377445,265.409342 C901.125432,264.721293 901,264.008099 901,263.268618 C901.041427,261.486776 901.655926,260.007813 902.841197,258.830586 C904.026467,257.653359 905.515535,257.044173 907.309551,257.001884 C909.103567,257.044173 910.590334,257.653359 911.76985,258.830586 C912.949367,260.007813 913.560414,261.486776 913.602992,263.268618 C913.558113,265.049316 912.952819,266.531708 911.783659,267.713506 Z M905.781358,265.721364 C905.990794,265.513349 906.095512,265.255045 906.095512,264.947595 C906.095512,264.640144 905.990794,264.385269 905.781358,264.181826 C905.571922,263.978383 905.311853,263.876661 905.002301,263.876661 C904.69275,263.876661 904.432681,263.978383 904.223245,264.181826 C904.013809,264.385269 903.909091,264.640144 903.909091,264.947595 C903.909091,265.255045 904.013809,265.513349 904.223245,265.721364 C904.432681,265.929379 904.689298,266.039101 904.994246,266.049388 C905.309551,266.039101 905.571922,265.929379 905.781358,265.721364 Z M916.401611,272.612142 C916.391254,272.632715 916.359033,272.664717 916.30725,272.705863 C916.201498,272.800284 916.078963,272.874314 915.945915,272.924164 C915.808976,272.97674 915.662831,273.001884 915.505178,273.001884 C915.16916,272.991598 914.899885,272.936737 914.695052,272.837301 C914.490219,272.737865 914.293441,272.662431 914.104718,272.610999 C914,272.558424 913.889528,272.543566 913.774453,272.564139 L913.50748,272.610999 C913.214039,272.757295 912.909091,272.857874 912.594937,272.916164 C912.280783,272.973311 911.949367,273.001884 911.604143,273.001884 C910.859609,272.991598 910.180667,272.853302 909.566168,272.58814 C908.951669,272.322979 908.39931,271.965239 907.906789,271.517207 C909.994246,271.27719 911.735328,270.46456 913.130035,269.079318 C914.524741,267.694076 915.316456,265.985383 915.505178,263.954381 C915.966628,264.454988 916.331415,265.017314 916.598389,265.642501 C916.865362,266.267689 917,266.92945 917,267.626643 C917,268.324979 916.881473,268.973025 916.64557,269.571925 C916.409666,270.170825 916.065593,270.720578 915.614499,271.220043 C915.551208,271.313764 915.520138,271.452059 915.520138,271.633786 C915.520138,271.815514 915.614499,272.006385 915.803222,272.204113 C915.90794,272.30812 916.10702,272.407556 916.401611,272.501277 C916.411968,272.554995 916.411968,272.591569 916.401611,272.612142 Z M910.375144,265.721364 C910.58458,265.513349 910.689298,265.255045 910.689298,264.947595 C910.689298,264.640144 910.56847,264.385269 910.327963,264.181826 C910.086306,263.978383 909.811277,263.876661 909.501726,263.876661 C909.192175,263.876661 908.932106,263.978383 908.72267,264.181826 C908.513234,264.385269 908.408516,264.640144 908.408516,264.947595 C908.408516,265.255045 908.518987,265.513349 908.73878,265.721364 C908.958573,265.929379 909.247411,266.039101 909.604143,266.049388 C909.909091,266.039101 910.165708,265.929379 910.375144,265.721364 Z" id="ico_footer_03"></path>
            </g>
        </g>
    </g>
</svg>