<?xml version="1.0" encoding="UTF-8"?>
<svg width="16px" height="16px" viewBox="0 0 16 16" version="1.1" xmlns="http://www.w3.org/2000/svg" xmlns:xlink="http://www.w3.org/1999/xlink">
    <!-- Generator: Sketch 52.5 (67469) - http://www.bohemiancoding.com/sketch -->
    <title>ico_footer_05</title>
    <desc>Created with Sketch.</desc>
    <g id="Page-1" stroke="none" stroke-width="1" fill="none" fill-rule="evenodd">
        <g id="01首页_01基础信息资源" transform="translate(-901.000000, -2956.000000)" fill="#333333" fill-rule="nonzero">
            <g id="footer" transform="translate(0.000000, 2623.000000)">
                <path d="M908.999058,333.001884 C904.577468,333.001884 901,336.579352 901,341.000942 C901,345.414493 904.577468,349 908.999058,349 C913.412608,349 916.998116,345.414493 916.998116,341.000942 C916.998116,336.579352 913.412608,333.001884 908.999058,333.001884 Z M907.375129,346.009397 C906.723949,346.009397 906.265711,345.719984 906.265711,345.084883 C906.265711,344.280958 906.884734,342.898206 907.013362,342.608793 L908.283564,339.650347 C908.412192,339.344856 908.251407,339.200149 908.098661,339.200149 C907.431403,339.200149 906.555125,340.663293 906.233554,340.663293 C906.104926,340.663293 906.000416,340.542705 906.000416,340.446234 C906.000416,340.140742 906.796302,339.441327 907.03748,339.216228 C907.761013,338.581127 908.709645,338.090732 909.762787,338.090732 C910.542595,338.090732 911.378677,338.524852 910.727498,340.15682 L909.40906,343.436836 C909.30455,343.686053 909.103568,344.112133 909.103568,344.377429 C909.103568,344.498018 909.175921,344.610567 909.320628,344.610567 C909.867297,344.610567 910.864165,343.17958 911.121421,343.17958 C911.209853,343.17958 911.338481,343.28409 911.338481,343.428797 C911.330442,343.919191 909.208079,346.009397 907.375129,346.009397 Z M910.494359,337.479749 C909.746709,337.479749 909.256314,337.021511 909.256314,336.338175 C909.256314,335.598563 909.94769,334.995619 910.743576,334.995619 C911.467109,334.995619 911.9977,335.445817 911.9977,336.137193 C912.005739,336.908962 911.314363,337.479749 910.494359,337.479749 Z" id="ico_footer_05"></path>
            </g>
        </g>
    </g>
</svg>