<?xml version="1.0" encoding="UTF-8"?>
<svg width="20px" height="14px" viewBox="0 0 20 14" version="1.1" xmlns="http://www.w3.org/2000/svg" xmlns:xlink="http://www.w3.org/1999/xlink">
    <!-- Generator: Sketch 52.5 (67469) - http://www.bohemiancoding.com/sketch -->
    <title>ico_to_green</title>
    <desc>Created with Sketch.</desc>
    <g id="Page-1" stroke="none" stroke-width="1" fill="none" fill-rule="evenodd">
        <g id="01首页_01基础信息资源" transform="translate(-504.000000, -1860.000000)" fill="#00AA71">
            <g id="item_03" transform="translate(0.000000, 1444.000000)">
                <g id="边距-&lt;h24&gt;" transform="translate(360.000000, 195.000000)">
                    <g id="box-1">
                        <path d="M163.627368,227.175197 C164.124211,227.630784 164.124211,228.369306 163.627368,228.824893 L157.265707,234.65831 C156.768864,235.113897 155.963465,235.113897 155.466623,234.65831 C154.96978,234.202723 154.96978,233.464201 155.466623,233.008614 L159.656432,229.166708 L145.272347,229.166708 C144.56938,229.166708 144,228.644607 144,228.000011 C144,227.355416 144.56938,226.833314 145.272347,226.833314 L159.656432,226.833314 L155.466623,222.991409 C155.218498,222.76391 155.09383,222.46523 155.09383,222.16655 C155.09383,221.867869 155.21788,221.569212 155.466623,221.34169 C155.963465,220.886103 156.768864,220.886103 157.265707,221.34169 L163.627368,227.175197 Z" id="ico_to_green"></path>
                    </g>
                </g>
            </g>
        </g>
    </g>
</svg>