<?xml version="1.0" encoding="UTF-8"?>
<svg width="16px" height="16px" viewBox="0 0 16 16" version="1.1" xmlns="http://www.w3.org/2000/svg" xmlns:xlink="http://www.w3.org/1999/xlink">
    <!-- Generator: Sketch 52.5 (67469) - http://www.bohemiancoding.com/sketch -->
    <title>ico_footer_02</title>
    <desc>Created with Sketch.</desc>
    <g id="Page-1" stroke="none" stroke-width="1" fill="none" fill-rule="evenodd">
        <g id="01首页_01基础信息资源" transform="translate(-901.000000, -2842.000000)" fill="#333333" fill-rule="nonzero">
            <g id="footer" transform="translate(0.000000, 2623.000000)">
                <path d="M915.687236,232.043795 C914.496091,233.716558 912.938727,234.598115 910.920972,234.544543 C908.99336,234.493412 907.063097,234.52603 905.134504,234.558239 C904.539108,234.568118 904.335113,234.352996 904.349419,233.707826 C904.385706,232.067141 904.375551,230.424605 904.354382,228.783346 C904.347306,228.238177 904.527972,228.033982 905.04257,228.041043 C906.660131,228.063438 908.278121,228.049169 909.895974,228.049169 C911.621782,228.049169 911.996502,228.337391 912.513628,230.165937 C912.813907,229.717082 913.094319,229.349518 913.32273,228.947928 C914.449512,226.965531 915.796432,226.931782 916.956652,228.868537 C916.956636,229.224174 916.956636,229.579598 916.956636,229.935219 C916.536331,230.640431 916.159206,231.380768 915.687236,232.043795 Z M905.849589,233.755369 C907.42682,233.754648 909.007972,233.678828 910.580608,233.769736 C913.297273,233.926683 914.913593,232.360851 916.057086,229.979059 C916.360536,229.346897 916.193501,228.741062 915.676836,228.418568 C915.167292,228.100152 914.596771,228.267076 914.227381,228.858494 C913.928435,229.337657 913.672055,229.849897 913.347559,230.307714 C912.788434,231.096478 912.054509,231.50318 911.092617,231.465779 C909.973448,231.422151 908.85117,231.473937 907.731434,231.438829 C907.516932,231.432047 907.143681,231.234913 907.127476,231.089598 C907.076684,230.631896 907.464884,230.685566 907.745158,230.683338 C908.782778,230.675408 909.820567,230.682306 910.858187,230.678898 C911.545808,230.676686 911.821672,230.256206 911.575585,229.566393 C911.376537,229.008626 910.94646,228.843078 910.42788,228.843995 C908.767492,228.846584 907.107241,228.844667 905.446961,228.847403 C905.349237,228.847665 905.251651,228.874844 905.129388,228.893062 C905.129404,230.498753 905.129404,232.067337 905.129404,233.755319 C905.401376,233.755369 905.625468,233.755598 905.849589,233.755369 Z M916.940768,219.875331 C916.941702,220.623614 917.148423,221.637953 916.783965,222.044344 C916.431117,222.437842 915.468904,222.236793 914.773808,222.242543 C912.761445,222.259057 908.210281,222.232533 906.198087,222.258713 C905.664358,222.265741 905.433941,222.102962 905.481823,221.505433 C905.548514,220.673123 905.571,219.836668 905.612433,219.001901 C908.479635,219.001884 913.885332,219.001884 916.752534,219.001884 C916.818843,219.293022 916.940262,219.584046 916.940768,219.875331 Z M909.913497,219.865666 C908.718982,219.865666 907.576638,219.865666 906.417078,219.865666 C906.417078,220.350694 906.417078,220.783101 906.417078,221.259675 C907.592415,221.259675 908.734897,221.259675 909.913497,221.259675 C909.913497,220.791063 909.913497,220.358377 909.913497,219.865666 Z M903.842756,227.668565 C903.871598,227.738339 903.916432,227.796432 903.916539,227.85446 C903.921824,230.174489 903.923554,232.494682 903.922436,234.814875 C903.922406,234.87726 903.886425,234.939531 903.867202,235.001868 C902.911499,235.001868 901.955688,235.001868 901,235.001868 C901,232.557461 901,230.112972 901,227.668565 C901.946115,227.668565 902.89226,227.668565 903.842756,227.668565 Z M902.532551,228.521419 C902.318661,228.561016 902.145239,228.850745 901.954463,229.033396 C902.135252,229.226123 902.293295,229.524847 902.504229,229.576403 C902.657937,229.614034 902.881385,229.325862 903.220539,229.073764 C902.894849,228.797534 902.68678,228.492847 902.532551,228.521419 Z M906.124855,226.162808 C905.634398,226.172064 905.456182,225.97765 905.480904,225.45812 C905.511538,224.815588 905.505564,224.169205 905.48265,223.525838 C905.465954,223.056553 905.653452,222.904046 906.074293,222.905898 C908.6501,222.916825 913.764555,222.919446 916.340332,222.903588 C916.804597,222.900721 916.972536,223.089253 916.956299,223.571382 C916.934886,224.214864 916.933553,224.860558 916.956652,225.503942 C916.97445,225.999636 916.779064,226.168247 916.328354,226.161612 C915.040619,226.142477 911.214129,226.15483 909.926164,226.15483 C908.65903,226.154731 907.391591,226.138824 906.124855,226.162808 Z M909.914967,223.710193 C908.708429,223.710193 907.580544,223.710193 906.428244,223.710193 C906.428244,224.200824 906.428244,224.649548 906.428244,225.101582 C907.615866,225.101582 908.758501,225.101582 909.914967,225.101582 C909.914967,224.615538 909.914967,224.183508 909.914967,223.710193 Z M912.658988,228.105624 C911.866919,226.968431 910.706516,226.979997 909.528345,227.0029 C908.231266,227.028162 906.933498,227.008667 905.636098,227.008667 C905.635516,226.955161 905.63498,226.901605 905.634444,226.848132 C908.304819,226.848132 910.975211,226.848132 913.666969,226.848132 C913.353839,227.238763 913.036374,227.634701 912.658988,228.105624 Z" id="ico_footer_02"></path>
            </g>
        </g>
    </g>
</svg>