<?xml version="1.0" encoding="UTF-8"?>
<svg width="20px" height="20px" viewBox="0 0 20 20" version="1.1" xmlns="http://www.w3.org/2000/svg" xmlns:xlink="http://www.w3.org/1999/xlink">
    <!-- Generator: Sketch 52.5 (67469) - http://www.bohemiancoding.com/sketch -->
    <title>ico_zysq_sel</title>
    <desc>Created with Sketch.</desc>
    <g id="Page-1" stroke="none" stroke-width="1" fill="none" fill-rule="evenodd">
        <g id="02资源目录_07资源申请" transform="translate(-666.000000, -218.000000)">
            <g id="item_01">
                <g id="card-1" transform="translate(626.000000, 200.000000)">
                    <g id="ico_zysq_sel" transform="translate(40.000000, 18.000000)">
                        <path d="M15.456,19.2470588 C14.832,19.2470588 14.2426667,19.1294118 13.6853333,18.8929412 C13.1299466,18.6573859 12.6338968,18.325717 12.2266667,17.9176471 C11.8020881,17.4911459 11.4699096,16.9994579 11.2466667,16.4670588 C11.0074413,15.9044354 10.8867917,15.3079654 10.8906667,14.7070588 C10.8906667,14.0858824 11.0093333,13.5 11.2466667,12.9458824 C11.484,12.3929412 11.8106667,11.9117647 12.2266667,11.5058824 C12.6366947,11.1035283 13.1322981,10.776155 13.6853333,10.5423529 C14.2426667,10.3070588 14.832,10.1882353 15.456,10.1882353 C16.08,10.1882353 16.6693333,10.3058824 17.2266667,10.5423529 C17.784,10.7788235 18.2666667,11.1 18.6746667,11.5070588 C19.0826667,11.9117647 19.4053333,12.3917647 19.644,12.9458824 C19.8813333,13.4988235 20,14.0870588 20,14.7070588 C20,15.3270588 19.88,15.9141176 19.644,16.4670588 C19.4053333,17.02 19.084,17.5047059 18.6746667,17.9176471 C18.2729761,18.3269865 17.7800787,18.6589754 17.2266667,18.8929412 C16.6706667,19.1282353 16.08,19.2470588 15.456,19.2470588 Z M17.7053333,13.9764706 L16.0573333,13.9764706 L16.0573333,12.4470588 C16.0629268,12.2546562 15.992187,12.0665715 15.8573333,11.9152941 C15.7367493,11.7733776 15.546326,11.6911176 15.3453333,11.6941176 C15.1494882,11.6882252 14.9640323,11.7718227 14.8546667,11.9152941 C14.7327336,12.0713571 14.6701668,12.2575745 14.676,12.4470588 L14.676,13.9764706 L13.2293333,13.9764706 C13.0225753,13.9758654 12.8263847,14.0570239 12.6946667,14.1976471 C12.5472277,14.3433837 12.4676878,14.5329178 12.472,14.7282353 C12.472,14.9352941 12.5453333,15.0905882 12.6946667,15.1941176 C12.8468819,15.2985136 13.035262,15.3533654 13.228,15.3494118 L14.676,15.3494118 L14.676,16.9211765 C14.6701668,17.1106608 14.7327336,17.2968782 14.8546667,17.4529412 C14.9640323,17.5964126 15.1494882,17.6800101 15.3453333,17.6741176 C15.546326,17.6771177 15.7367493,17.5948577 15.8573333,17.4529412 C15.9906667,17.3047059 16.0573333,17.1282353 16.0573333,16.9211765 L16.0573333,15.3494118 L17.7053333,15.3494118 L17.7053333,15.3929412 C17.9133333,15.3929412 18.092,15.3341176 18.24,15.2164706 C18.3922387,15.0906915 18.4737339,14.911999 18.4626667,14.7282353 C18.4671116,14.532898 18.3875543,14.3433224 18.24,14.1976471 C18.108837,14.0569029 17.9131786,13.9753306 17.7066667,13.9752941 L17.7053333,13.9764706 Z M12.204,8.46117647 C12.1453333,8.69647059 12.0853333,8.91058824 12.0253333,9.10352941 C11.9666667,9.26588235 11.892,9.43176471 11.8026667,9.60117647 C11.7146667,9.77058824 11.6173333,9.9 11.5133333,9.98941176 C11.3914026,10.0784869 11.2957797,10.1923301 11.2346667,10.3211765 C11.184,10.4388235 11.1386667,10.5611765 11.1013333,10.6858824 C11.064,10.8117647 11.024,10.9411765 10.9786667,11.0741176 C10.9346667,11.2070588 10.86,11.34 10.756,11.4729412 C10.1711944,12.2128258 9.7866554,13.0612748 9.632,13.9529412 C9.56533333,14.3376471 9.54666667,14.7176471 9.576,15.0941176 C9.60533333,15.4705882 9.66533333,15.8352941 9.75466667,16.1905882 C9.81333333,16.4564706 9.90133333,16.7329412 10.0213333,17.0211765 C10.1413333,17.3094118 10.3146667,17.6047059 10.5453333,17.9070588 C10.7746667,18.2094118 11.068,18.5047059 11.4253333,18.7929412 C11.7813333,19.0811765 12.2253333,19.3576471 12.7613333,19.6235294 C12.404,19.6976471 11.988,19.7647059 11.5133333,19.8235294 C10.3532099,19.9456141 9.18566718,20.0045492 8.01733333,20 C7.63066667,20 7.18133333,19.9847059 6.66933333,19.9552941 C6.15733333,19.9258824 5.62933333,19.8894118 5.088,19.8447059 C4.55237913,19.8009257 4.01763595,19.7491536 3.484,19.6894118 C2.95733333,19.6305882 2.47466667,19.5682353 2.036,19.5011765 C1.66126802,19.4468128 1.28972536,19.3765351 0.922666667,19.2905882 C0.618666667,19.2176471 0.429333333,19.1505882 0.354666667,19.0917647 C0.221333333,18.9741176 0.117333333,18.6447059 0.0426666667,18.1058824 C-0.032,17.5670588 -0.00933333333,16.8623529 0.109333333,15.9905882 C0.184,15.5035294 0.38,15.1317647 0.7,14.8729412 C1.02,14.6141176 1.39333333,14.4117647 1.82533333,14.2635294 C2.25466667,14.1152941 2.70533333,13.9788235 3.172,13.8541176 C3.63866667,13.7282353 4.052,13.5552941 4.408,13.3329412 C4.69066667,13.1564706 4.90533333,12.9894118 5.05466667,12.8352941 C5.20266667,12.68 5.308,12.5211765 5.36666667,12.3588235 C5.42610866,12.1941451 5.45580535,12.0222378 5.45466667,11.8494118 C5.45466667,11.6729412 5.448,11.48 5.43333333,11.2729412 C5.40266667,10.9635294 5.296,10.72 5.11066667,10.5435294 C4.924,10.3658824 4.728,10.1882353 4.52,10.0105882 C4.38345219,9.89994906 4.27682574,9.76365054 4.208,9.61176471 C4.12366423,9.44553856 4.04933846,9.27549775 3.98533333,9.10235294 C3.90616476,8.89325764 3.846412,8.67882446 3.80666667,8.46117647 C3.70247235,8.43145724 3.60466955,8.38651939 3.51733333,8.32823529 C3.42373311,8.24863725 3.34135999,8.15936459 3.272,8.06235294 C3.16090725,7.89689631 3.07865367,7.71763587 3.028,7.53058824 C2.95612955,7.33043989 2.92940382,7.11980488 2.94933333,6.91058824 C2.972,6.71882353 3.012,6.55647059 3.072,6.42352941 C3.132,6.26 3.21333333,6.12 3.31733333,6.00235294 C3.31733333,5.5 3.34666667,4.99764706 3.40666667,4.49647059 C3.46533333,4.06823529 3.55866667,3.61058824 3.684,3.12235294 C3.81066667,2.63529412 4.01466667,2.2 4.29733333,1.81647059 C4.564,1.44705882 4.85066667,1.14470588 5.15466667,0.908235294 C5.69723375,0.479166808 6.36428005,0.191602374 7.08133333,0.0776470588 C7.408,0.0258823529 7.72,0 8.01733333,0 C8.404,0 8.77466667,0.0447058824 9.13066667,0.132941176 C9.79590597,0.296441414 10.4119435,0.587707388 10.9346667,0.985882353 C11.1534548,1.15212049 11.3478489,1.34182474 11.5133333,1.55058824 C11.8546667,1.97882353 12.104,2.45058824 12.26,2.96823529 C12.416,3.48470588 12.5306667,3.97176471 12.6053333,4.42941176 C12.68,4.96117647 12.7093333,5.49294118 12.6946667,6.02470588 C12.7860027,6.10111262 12.861376,6.19111446 12.9173333,6.29058824 C12.9848832,6.40042881 13.030015,6.51989526 13.0506667,6.64352941 C13.08,6.79176471 13.08,6.97647059 13.0506667,7.19882353 C13.0351352,7.42746388 12.9746798,7.65198211 12.872,7.86235294 C12.784,8.02470588 12.6866667,8.15058824 12.5826667,8.23882353 C12.4756349,8.3356813 12.346586,8.41145874 12.204,8.46117647 Z" id="形状" fill="#FFFFFF" fill-rule="nonzero"></path>
                        <path d="M15.456,19.2470588 C14.832,19.2470588 14.2426667,19.1294118 13.6853333,18.8929412 C13.1299466,18.6573859 12.6338968,18.325717 12.2266667,17.9176471 C11.8020881,17.4911459 11.4699096,16.9994579 11.2466667,16.4670588 C11.0074413,15.9044354 10.8867917,15.3079654 10.8906667,14.7070588 C10.8906667,14.0858824 11.0093333,13.5 11.2466667,12.9458824 C11.484,12.3929412 11.8106667,11.9117647 12.2266667,11.5058824 C12.6366947,11.1035283 13.1322981,10.776155 13.6853333,10.5423529 C14.2426667,10.3070588 14.832,10.1882353 15.456,10.1882353 C16.08,10.1882353 16.6693333,10.3058824 17.2266667,10.5423529 C17.784,10.7788235 18.2666667,11.1 18.6746667,11.5070588 C19.0826667,11.9117647 19.4053333,12.3917647 19.644,12.9458824 C19.8813333,13.4988235 20,14.0870588 20,14.7070588 C20,15.3270588 19.88,15.9141176 19.644,16.4670588 C19.4053333,17.02 19.084,17.5047059 18.6746667,17.9176471 C18.2729761,18.3269865 17.7800787,18.6589754 17.2266667,18.8929412 C16.6706667,19.1282353 16.08,19.2470588 15.456,19.2470588 Z" id="路径" fill="#86DBA2"></path>
                        <path d="M17.7066667,13.9764706 L16.0573333,13.9764706 L16.0573333,12.4470588 C16.0629268,12.2546562 15.992187,12.0665715 15.8573333,11.9152941 C15.7367493,11.7733776 15.546326,11.6911176 15.3453333,11.6941176 C15.1494882,11.6882252 14.9640323,11.7718227 14.8546667,11.9152941 C14.7327336,12.0713571 14.6701668,12.2575745 14.676,12.4470588 L14.676,13.9764706 L13.2293333,13.9764706 C13.0225753,13.9758654 12.8263847,14.0570239 12.6946667,14.1976471 C12.5472277,14.3433837 12.4676878,14.5329178 12.472,14.7282353 C12.472,14.9352941 12.5453333,15.0905882 12.6946667,15.1941176 C12.8468819,15.2985136 13.035262,15.3533654 13.228,15.3494118 L14.676,15.3494118 L14.676,16.9211765 C14.6701668,17.1106608 14.7327336,17.2968782 14.8546667,17.4529412 C14.9640323,17.5964126 15.1494882,17.6800101 15.3453333,17.6741176 C15.546326,17.6771177 15.7367493,17.5948577 15.8573333,17.4529412 C15.9906667,17.3047059 16.0573333,17.1282353 16.0573333,16.9211765 L16.0573333,15.3494118 L17.7053333,15.3494118 L17.7053333,15.3929412 C17.9133333,15.3929412 18.092,15.3341176 18.24,15.2164706 C18.3922387,15.0906915 18.4737339,14.911999 18.4626667,14.7282353 C18.4671116,14.532898 18.3875543,14.3433224 18.24,14.1976471 C18.108837,14.0569029 17.9131786,13.9753306 17.7066667,13.9752941 L17.7066667,13.9764706 Z" id="路径" fill="#00AA71"></path>
                    </g>
                </g>
            </g>
        </g>
    </g>
</svg>