<?xml version="1.0" encoding="UTF-8"?>
<svg width="20px" height="20px" viewBox="0 0 20 20" version="1.1" xmlns="http://www.w3.org/2000/svg" xmlns:xlink="http://www.w3.org/1999/xlink">
    <!-- Generator: Sketch 52.5 (67469) - http://www.bohemiancoding.com/sketch -->
    <title>ico_more</title>
    <desc>Created with Sketch.</desc>
    <g id="Page-1" stroke="none" stroke-width="1" fill="none" fill-rule="evenodd">
        <g id="01首页_01基础信息资源" transform="translate(-1436.000000, -433.000000)">
            <g id="item_01" transform="translate(360.000000, 419.000000)">
                <g id="mes">
                    <g id="ico_more" transform="translate(1076.000000, 14.000000)">
                        <path d="M10,0.08 C4.52,0.08 0.08,4.52 0.08,10 C0.08,15.48 4.52,19.93 10.01,19.93 C15.5,19.93 19.94,15.49 19.94,10 C19.94,4.51 15.48,0.08 10,0.08 Z M10,18.47 C5.32,18.47 1.53,14.68 1.53,10 C1.53,5.32 5.32,1.53 10,1.53 C14.68,1.53 18.47,5.32 18.47,10 C18.47,14.68 14.68,18.47 10,18.47 Z" id="形状" fill="#86DBA2" fill-rule="nonzero"></path>
                        <path d="M8.8,10.01 C8.8,9.3472583 9.3372583,8.81 10,8.81 C10.6627417,8.81 11.2,9.3472583 11.2,10.01 C11.2,10.6727417 10.6627417,11.21 10,11.21 C9.3372583,11.21 8.8,10.6727417 8.8,10.01 Z M4.8,10.01 C4.8,9.3472583 5.3372583,8.81 6,8.81 C6.6627417,8.81 7.2,9.3472583 7.2,10.01 C7.2,10.6727417 6.6627417,11.21 6,11.21 C5.3372583,11.21 4.8,10.6727417 4.8,10.01 Z M12.8,10.01 C12.8,9.3472583 13.3372583,8.81 14,8.81 C14.6627417,8.81 15.2,9.3472583 15.2,10.01 C15.2,10.6727417 14.6627417,11.21 14,11.21 C13.3372583,11.21 12.8,10.6727417 12.8,10.01 Z" id="合并形状" fill="#FFFFFF"></path>
                    </g>
                </g>
            </g>
        </g>
    </g>
</svg>