<?xml version="1.0" encoding="UTF-8"?>
<svg width="48px" height="44px" viewBox="0 0 48 44" version="1.1" xmlns="http://www.w3.org/2000/svg" xmlns:xlink="http://www.w3.org/1999/xlink">
    <!-- Generator: Sketch 52.5 (67469) - http://www.bohemiancoding.com/sketch -->
    <title>ico_doc</title>
    <desc>Created with Sketch.</desc>
    <g id="Page-1" stroke="none" stroke-width="1" fill="none" fill-rule="evenodd">
        <g id="01首页_04共享资源" transform="translate(-384.000000, -2119.000000)">
            <g id="item_04" transform="translate(0.000000, 1955.000000)">
                <g id="news-1" transform="translate(360.000000, 132.000000)">
                    <g id="ico_doc" transform="translate(24.000000, 32.000000)">
                        <rect id="矩形" fill-rule="nonzero" x="0" y="0" width="48" height="48"></rect>
                        <circle id="椭圆形" fill="#FFF2A2" fill-rule="nonzero" cx="18" cy="18" r="18"></circle>
                        <path d="M18.7762175,15.7419663 L18.5736894,17.6061839 L10,20.2591089 L10.2025281,18.466592 L11.2826779,18.1797893 L12.4978465,9.43230662 L14.1180713,10.7229188 L13.1729402,17.6778845 L14.3205994,17.3193812 L15.6707867,6.85108222 L11.8902622,6.85108222 L12.0927903,5.27366731 L20.1939142,5.27366731 L19.9913861,6.85108222 L17.4935396,6.85108222 L17.0884834,10.005912 L18.7762175,10.005912 L18.5736894,11.5833269 L16.8859553,11.5833269 L16.2108616,16.7457757 L18.7762175,15.7419663 Z M27.3434934,9.13193749 L25.9173904,9.13193749 C25.464657,11.3813124 24.6044764,13.5827953 23.3368229,15.7364522 L26.1211194,20.4744736 L23.7442809,20.4744736 C23.3368209,19.7087289 22.8388216,18.7276333 22.2502682,17.5311572 C21.2995281,18.9669285 20.6204382,19.9480241 20.2129781,20.4744736 L17.7003203,20.4744736 C19.1037939,19.1822794 20.3714284,17.5790256 21.5032618,15.664664 C20.8694351,14.1810337 20.4393448,12.9845756 20.2129781,12.0752538 L21.9786295,12.0752538 C22.1144495,12.5538442 22.2955402,13.1281441 22.5219069,13.7981707 C22.8840936,13.032426 23.2010022,12.2427637 23.4726423,11.42916 C23.699009,10.6155563 23.8800996,9.84982311 24.0159196,9.13193749 L22.0465392,9.13193749 L20.8241651,11.6445246 L18.6510557,11.6445246 C20.416716,8.19867363 21.5711688,5.66218249 22.1144489,4.03497509 L24.0838293,4.03497509 L22.7935456,7.40902062 L27.5472224,7.40902062 L27.3434934,9.13193749 Z M35.4356824,6.36452065 L34.1202914,8.00149649 L31.7664339,8.00149649 C33.1510629,6.54639958 34.1895191,5.21258076 34.8818336,4 L37.0279978,4 L36.3356867,5.09131722 L40.489553,5.09131722 L40.2818597,6.36452065 L38.2741577,6.36452065 L38.8972376,7.94086775 L36.8203045,7.94086775 L36.3356867,6.36452065 L35.4356824,6.36452065 Z M42.8427218,6.46566482 L41.5042681,8.13194411 L39.1091405,8.13194411 C40.5180462,6.65079956 41.5747096,5.29310409 42.2791624,4.05881696 L44.4629552,4.05881696 L43.7585059,5.16966982 L47.9852017,5.16966982 L47.7738669,6.46566482 L45.7309639,6.46566482 L46.3649683,8.07023006 L44.2516204,8.07023006 L43.7585059,6.46566482 L42.8427218,6.46566482 Z M41.3003713,8.14169442 L41.1593265,9.14550391 L48,9.14550391 L47.7884328,10.5795175 L40.9477592,10.5795175 L40.8067144,11.6550276 L45.3906709,11.6550276 C45.7197771,11.6550276 46.0018639,11.7028276 46.2369398,11.798429 C46.4250005,11.8940304 46.472015,12.1808302 46.3779846,12.6588371 L45.9548502,16.1004696 L43.2044763,16.1004696 L42.7813418,14.5947554 L44.2623124,14.5947554 L44.4033572,13.3758439 C44.4503724,13.2324418 44.4268651,13.1607419 44.3328348,13.1607419 L40.5951472,13.1607419 L39.6078335,20.474211 L37.7037285,20.474211 L38.6910422,13.1607419 L35.023877,13.1607419 L34.6007425,16.1004696 L32.6966375,16.1004696 L33.3313392,11.6550276 L38.9026094,11.6550276 L39.0436542,10.5795175 L32.3440255,10.5795175 L32.4850703,9.14550391 L39.2552214,9.14550391 L39.3962663,8.14169442 L41.3003713,8.14169442 Z M35.7291011,15.7419663 L37.9858181,15.7419663 C36.4813326,17.3671897 34.9768696,18.777289 33.472384,19.9723062 L30.7220101,19.9723062 L35.7291011,15.7419663 Z M42.5697746,15.7419663 C43.5100781,17.0803856 44.7559615,18.4904848 46.3074622,19.9723062 L43.6981331,19.9723062 C42.5227538,18.5860862 41.4649283,17.175987 40.5246248,15.7419663 L42.5697746,15.7419663 Z M27.0850691,31.8108848 L24.828352,31.8108848 C23.6059575,34.0575173 22.0544801,36.2324161 20.1738731,38.3356465 C21.490298,40.0086706 23.1828188,41.8967696 25.2514865,44 L22.2895454,44 C20.7850598,42.2791751 19.6096981,40.8451759 18.763425,39.6979593 C17.3529698,41.0841794 15.6604489,42.5181786 13.6858116,44 L10.1596912,44 C13.1216472,41.992371 15.5899068,40.0325721 17.564544,38.1205444 C16.201104,36.1607161 15.0257423,34.0575173 14.0384237,31.8108848 L11.7817066,31.8108848 L11.9932738,30.1617692 L18.6929026,30.1617692 C18.4108115,29.110154 18.1992464,28.2258545 18.0582009,27.5088441 L20.1738731,27.5088441 C20.3619338,28.4170573 20.5734989,29.3013568 20.8085748,30.1617692 L27.2966363,30.1617692 L27.0850691,31.8108848 Z M18.9749922,36.6148302 C20.4324626,35.0374074 21.5843171,33.4361083 22.4305902,31.8108848 L16.2951407,31.8108848 C16.6242469,32.5756958 17.0238699,33.3643954 17.4940216,34.1770072 C17.9641734,35.0852203 18.4578253,35.8978198 18.9749922,36.6148302 Z M36.690451,27.4732389 C36.3007852,29.0541277 35.737943,30.4433728 35.0019076,31.6410158 L33.4432522,43.928772 L31.8196528,43.928772 L33.0535884,34.4434865 C32.6206264,34.874638 32.0577842,35.3297355 31.365045,35.8087927 L31.7547089,33.1500385 C32.1010785,32.8626042 32.4690906,32.4554116 32.8587564,31.9284487 C33.205126,31.4014858 33.5731382,30.7308157 33.962804,29.9164185 C34.3524698,29.1020212 34.6338909,28.2876361 34.8070757,27.4732389 L36.690451,27.4732389 Z M47.3652983,36.6865309 L47.0832087,38.4073471 L42.4287298,38.4073471 L41.6529833,43.9282993 L39.6078335,43.9282993 L40.38358,38.4073471 L35.0943994,38.4073471 L35.3059666,36.6865309 L40.5951472,36.6865309 L41.1593265,32.5278916 L38.7615646,32.5278916 C37.9152915,33.8185102 36.7869442,34.8940096 35.376489,35.7544221 L35.7996235,33.0297963 C36.4578359,32.5039887 36.9985023,31.8825891 37.4216388,31.1655787 C37.7977602,30.4485683 38.1268615,29.5642688 38.4089526,28.5126536 L40.4541024,28.5126536 C40.2660417,29.3252654 40.0074621,30.0900649 39.6783559,30.8070753 L41.4414161,30.8070753 L41.8645505,27.5088441 L43.9097004,27.5088441 L43.4160435,30.8070753 L47.2947759,30.8070753 L47.0126863,32.5278916 L43.2044763,32.5278916 L42.640297,36.6865309 L47.3652983,36.6865309 Z" id="政策-文件" fill="#FFA500"></path>
                    </g>
                </g>
            </g>
        </g>
    </g>
</svg>