<?xml version="1.0" encoding="UTF-8"?>
<svg width="16px" height="16px" viewBox="0 0 16 16" version="1.1" xmlns="http://www.w3.org/2000/svg" xmlns:xlink="http://www.w3.org/1999/xlink">
    <!-- Generator: Sketch 52.5 (67469) - http://www.bohemiancoding.com/sketch -->
    <title>ico_search</title>
    <desc>Created with Sketch.</desc>
    <g id="Page-1" stroke="none" stroke-width="1" fill="none" fill-rule="evenodd">
        <g id="03文件" transform="translate(-560.000000, -588.000000)">
            <g id="item_01">
                <g id="object-3" transform="translate(360.000000, 512.000000)">
                    <g id="search" transform="translate(16.000000, 76.000000)">
                        <g id="ico_search" transform="translate(184.000000, 0.000000)">
                            <path d="M9.59246571e-13,7.11622445 C0.0101924954,3.17742177 3.22380136,-0.00666049585 7.20711351,1.0463095e-05 C11.1501228,0.00668142204 14.3995965,3.09862894 14.4,7.10672148 C14.4004459,11.0838088 11.2231266,14.2222012 7.19711213,14.2222222 C3.14655074,14.2222222 0.0231454584,11.0156727 9.59246571e-13,7.11622445 Z M7.20126498,12.4443461 C10.2768282,12.4621312 12.7390374,10.0648131 12.7988626,7.22605929 C12.8622743,4.21357188 10.2660039,1.71845659 7.07636452,1.77885166 C4.11535283,1.83492398 1.52027077,4.18707956 1.60187413,7.26850464 C1.67632613,10.0793664 4.12263383,12.4611019 7.20126498,12.4443461 Z" id="形状" fill="#00AA71" fill-rule="nonzero"></path>
                            <path d="M13.7482385,12.4465339 C14.0112346,12.4259766 14.2340348,12.5589483 14.4220791,12.7642296 C14.8451738,13.2260284 15.269417,13.6870642 15.6783676,14.1642137 C16.2108677,14.7854214 16.066646,15.5692024 15.360568,15.9169935 C15.0541523,16.0679191 14.7405436,16.0101073 14.5061782,15.7673919 C13.990784,15.233665 13.4890504,14.6809741 13.011797,14.1050553 C12.7478741,13.786619 12.7487606,13.3833726 12.9146216,12.9922452 C13.0568487,12.6565057 13.378557,12.4462646 13.7482385,12.4465339 Z" id="路径" fill="#86DBA2"></path>
                        </g>
                    </g>
                </g>
            </g>
        </g>
    </g>
</svg>
