<?xml version="1.0" encoding="UTF-8"?>
<svg width="16px" height="15px" viewBox="0 0 16 15" version="1.1" xmlns="http://www.w3.org/2000/svg" xmlns:xlink="http://www.w3.org/1999/xlink">
    <!-- Generator: Sketch 52.5 (67469) - http://www.bohemiancoding.com/sketch -->
    <title>ico_04</title>
    <desc>Created with Sketch.</desc>
    <g id="Page-1" stroke="none" stroke-width="1" fill="none" fill-rule="evenodd">
        <g id="00搜索_03接口" transform="translate(-1473.000000, -282.000000)">
            <g id="item_02">
                <g id="object" transform="translate(360.000000, 238.000000)">
                    <g id="间距-&lt;h24-&gt;" transform="translate(965.000000, 43.000000)">
                        <g id="分组" transform="translate(148.000000, 0.000000)">
                            <g id="ico_04">
                                <rect id="矩形" fill="#000000" opacity="0" x="0" y="0" width="16" height="16"></rect>
                                <path d="M7.50688147,15.9412016 L7.46995476,15.935831 L7.43596263,15.9322769 C6.59822364,15.8220202 5.80507386,15.5801031 5.07803348,15.2280084 L5.0489323,15.213318 L5.00695161,15.1921513 C3.99354584,14.6896778 3.13208573,13.9806705 2.46284012,13.135027 C1.7924533,12.2896995 1.30898245,11.29889 1.07030387,10.2195434 L1.06003287,10.1727081 L1.0545713,10.1489349 C1.00020019,9.89588165 0.960583458,9.64077486 0.935150495,9.38242988 L0.994901655,8.73218401 C1.05448978,8.08264896 1.22184194,7.51778093 1.48587197,7.04366141 C1.97896169,6.1917785 2.77985549,5.63322891 3.82179182,5.41239963 L3.62599061,6.16689967 C3.37451404,6.24422151 3.12148866,6.32651912 2.86887086,6.41379249 C2.76559021,6.65318217 2.67771606,6.90260237 2.60647115,7.15920978 C2.5318841,7.43264003 2.47686086,7.70583333 2.44286873,7.97728906 L2.43699958,8.02317669 L3.92702886,8.02317669 C3.95735278,7.56279977 4.00944144,7.10226489 4.08223515,6.6401504 L5.19068846,6.33575983 C5.08463627,6.90039091 5.0099677,7.46281055 4.97116612,8.02317669 L7.87419215,8.02317669 L7.87419215,5.59658199 L11.0049736,4.73443163 L10.7096415,4.38960307 L7.82789111,1.38147547 C8.34649532,1.33945788 8.87553356,1.34964636 9.40742486,1.41464725 L9.44467763,1.4200969 L9.47866976,1.42467777 C11.1566747,1.6436905 12.6601541,2.39779563 13.7992574,3.50186305 C14.8178802,4.48864453 15.5467955,5.75517469 15.8525616,7.17216257 L15.8629141,7.27665368 C16.0124143,8.02388752 16.0426567,8.80097596 15.9387239,9.58509366 L15.9339145,9.62095077 L15.9291051,9.65388561 C15.816287,10.4644618 15.5655441,11.2340471 15.2022277,11.9374468 L15.1870658,11.9667485 L15.1663607,12.0069495 C14.6474304,12.9882814 13.9150915,13.8238943 13.0421377,14.4721657 C12.1696729,15.1216217 11.1471374,15.5912394 10.0342007,15.8221781 L9.98700296,15.8313399 L9.96800976,15.834973 L9.98773661,15.8479258 L9.97453103,15.8514799 C9.17755,16.0091248 8.34568016,16.0449819 7.50688147,15.9412016 Z M9.02699012,4.24388418 L5.85618433,1 L5.59582253,1.99989223 C2.06993345,2.0226386 0.0830647101,4.91063696 0,8.64656922 C0.275442253,5.63859958 2.46862775,4.29237817 4.98143713,4.36195992 L4.70330485,5.43419823 L9.02699012,4.24388418 Z M2.41091449,9.03641662 C2.4309674,9.3391486 2.47343719,9.63548317 2.53767173,9.92328786 L2.54517119,9.96009274 L2.5508773,9.98015376 C2.61160666,10.2424478 2.69287802,10.4993711 2.78955588,10.7495021 C3.21898168,10.8998809 3.64799991,11.0358062 4.07489872,11.1568042 C3.95865703,10.4531676 3.90061771,9.74708252 3.89703101,9.03625866 L2.41091449,9.03625866 L2.41091449,9.03641662 Z M3.49344575,12.0409111 C3.54455622,12.1124674 3.59762308,12.1830759 3.65280935,12.2520258 C3.8134772,12.4546106 3.98783973,12.6472439 4.17426661,12.8278721 C4.30575177,12.9543198 4.4422094,13.0755547 4.58404708,13.1900764 C4.48011429,12.8837113 4.38906103,12.5756876 4.30974605,12.267427 C4.03772746,12.1975293 3.76619797,12.1224979 3.49344575,12.0409111 Z M6.03780178,14.0512 C6.30484789,14.1620885 6.58526261,14.2575758 6.87480712,14.3327652 C7.15677064,14.406217 7.43848962,14.4585021 7.71996405,14.4914369 C7.77091149,14.4967286 7.82308167,14.5025731 7.8744367,14.507154 L7.8744367,12.8221065 C7.07452109,12.7826953 6.26979605,12.6818373 5.4624625,12.5260879 C5.61742424,13.0368543 5.80882359,13.5450144 6.03780178,14.0512 Z M8.92110095,14.5141833 C9.19532047,14.4941222 9.46415993,14.4555008 9.72753783,14.4003725 L9.7663394,14.3914477 L9.78696293,14.3879725 C10.0130065,14.3381359 10.2347298,14.2758993 10.4515621,14.2008679 C10.6926862,13.6855206 10.8936229,13.1680408 11.058285,12.6472439 C10.3494227,12.7646878 9.63656608,12.8280301 8.92101944,12.8397982 L8.92110095,14.5141833 Z M11.8618688,13.5081306 C11.9536558,13.4476315 12.0424266,13.3842892 12.1307898,13.3203151 C12.3402042,13.1643287 12.5388585,12.9946788 12.7259375,12.8138926 C12.9682027,12.5790838 13.1896815,12.3251617 13.3876836,12.0537059 C12.9968963,12.1893943 12.6047233,12.3059694 12.2113275,12.4059587 C12.1126118,12.7745603 11.9951474,13.1424512 11.8618688,13.5081306 Z M14.1355921,10.6690211 C14.1950987,10.5112182 14.2471873,10.3488344 14.2935699,10.1829755 C14.3604945,9.93995273 14.4107898,9.69479747 14.4459231,9.45114285 L14.4523629,9.40067436 C14.4619002,9.32540601 14.4704594,9.25029562 14.4773067,9.17313174 L14.4944251,9.14762106 C14.4980118,9.11089516 14.5007833,9.07416926 14.5029027,9.03641662 L12.6614584,9.03641662 C12.6578717,9.79123258 12.5916808,10.5413887 12.4601141,11.2879117 C13.0212696,11.1221318 13.5798981,10.9167037 14.1355921,10.6690211 Z M14.476247,8.02325567 C14.4157622,7.49029574 14.2802013,6.97842358 14.081384,6.49893339 C13.5033547,6.24398457 12.920842,6.03397561 12.3360469,5.86716894 C12.4838352,6.5888921 12.5840183,7.30706114 12.6304823,8.02325567 L14.476247,8.02325567 Z M13.2503293,5.09031744 C13.0933297,4.89247147 12.9219017,4.70528785 12.7392246,4.52908251 C12.4457673,4.24388418 12.1223122,3.98790861 11.7731795,3.76613157 C11.8810251,4.09429525 11.9793333,4.42277485 12.0682671,4.74999077 C12.4639453,4.84618893 12.8576672,4.95818318 13.2503293,5.09031744 Z M8.92110095,5.36185216 L8.92110095,8.02325567 L11.5865896,8.02325567 C11.5296915,7.22065655 11.4026897,6.41268676 11.2114534,5.59918835 C10.4527849,5.45354843 9.68857323,5.37646354 8.92110095,5.36185216 Z M7.87435518,11.8117889 L7.87435518,9.03641662 L4.93782612,9.03641662 C4.94369526,9.84170107 5.0233363,10.6421677 5.18596054,11.4363949 C6.08883074,11.6364523 6.98526117,11.7639268 7.87435518,11.8117889 Z M11.3441613,11.5659228 C11.5260233,10.7284933 11.613979,9.88482439 11.6195221,9.03641662 L8.92110095,9.03641662 L8.92110095,11.8300334 C9.73316243,11.8143163 10.5414742,11.7280696 11.3441613,11.5659228 Z" id="形状" fill="#3D3E49" fill-rule="nonzero"></path>
                            </g>
                        </g>
                    </g>
                </g>
            </g>
        </g>
    </g>
</svg>
