<svg xmlns="http://www.w3.org/2000/svg" width="13.801" height="13.851" viewBox="0 0 16.801 17.851">
  <path id="关注目录" d="M118.151,78.935h-14.7a1.05,1.05,0,0,0-1.05,1.05V95.736a1.05,1.05,0,0,0,1.05,1.05h14.7a1.05,1.05,0,0,0,1.05-1.05V79.985A1.05,1.05,0,0,0,118.151,78.935Zm-12.2,14.806a1.155,1.155,0,1,1,1.155-1.155A1.155,1.155,0,0,1,105.953,93.741ZM104.8,87.86a1.155,1.155,0,1,1,1.155,1.155A1.155,1.155,0,0,1,104.8,87.86Zm1.155-3.57a1.155,1.155,0,1,1,1.155-1.155A1.155,1.155,0,0,1,105.953,84.29Zm11.131,8.4a1.05,1.05,0,0,1-1.05,1.05h-6.72a1.05,1.05,0,0,1-1.05-1.05v-.21a1.05,1.05,0,0,1,1.05-1.05h6.72a1.05,1.05,0,0,1,1.05,1.05Zm0-4.83a1.05,1.05,0,0,1-1.05,1.05h-6.72a1.05,1.05,0,0,1-1.05-1.05v-.21a1.05,1.05,0,0,1,1.05-1.05h6.72a1.05,1.05,0,0,1,1.05,1.05Zm0-4.62a1.05,1.05,0,0,1-1.05,1.05h-6.72a1.05,1.05,0,0,1-1.05-1.05v-.21a1.05,1.05,0,0,1,1.05-1.05h6.72a1.05,1.05,0,0,1,1.05,1.05Z" transform="translate(-102.4 -78.935)" fill="#fff"/>
</svg>
