<?xml version="1.0" encoding="UTF-8"?>
<svg width="80px" height="80px" viewBox="0 0 80 80" version="1.1" xmlns="http://www.w3.org/2000/svg" xmlns:xlink="http://www.w3.org/1999/xlink">
    <!-- Generator: Sketch 52.5 (67469) - http://www.bohemiancoding.com/sketch -->
    <title>object_ico</title>
    <desc>Created with Sketch.</desc>
    <defs>
        <ellipse id="path-1" cx="35.6725146" cy="40" rx="35.6725146" ry="40"></ellipse>
    </defs>
    <g id="Page-1" stroke="none" stroke-width="1" fill="none" fill-rule="evenodd">
        <g id="03文件" transform="translate(-717.000000, -421.000000)">
            <g id="item_01">
                <g id="object-1" transform="translate(642.000000, 346.000000)">
                    <g id="object_ico" transform="translate(75.000000, 75.000000)">
                        <g id="Group-34" transform="translate(5.614035, 0.000000)">
                            <g id="Rectangle-Clipped">
                                <mask id="mask-2" fill="white">
                                    <use xlink:href="#path-1"></use>
                                </mask>
                                <g id="path-1"></g>
                                <path d="M6.08728563,62.3529412 L10.2543594,62.3529412 C12.2130297,65.2125032 14.5381289,67.731987 17.1485084,69.821537 C18.3984106,68.9006307 19.7459521,68.0746354 21.1756428,67.3562097 C20.5290802,65.7904306 19.9386145,64.1179746 19.4100074,62.3529412 L21.8633137,62.3529412 C22.3066784,63.7716635 22.7902117,65.1199868 23.3095703,66.3892593 C26.5512479,65.0732782 30.138949,64.2843651 33.9181287,64.148893 L33.9181287,62.3529412 L37.4269006,62.3529412 L37.4269006,64.2119953 C41.1631047,64.4815443 44.6919773,65.3908814 47.8591712,66.8137949 C48.44573,65.4218758 48.9885703,63.9309561 49.4817156,62.3529412 L51.9350219,62.3529412 C51.3492567,64.3088267 50.6875323,66.1510317 49.9576887,67.8603706 C51.2576471,68.5763047 52.4828736,69.3835915 53.6207483,70.2719117 C56.4657378,68.0977501 58.9891234,65.4210964 61.0906717,62.3529412 L65.2577436,62.3529412 C62.8430623,66.3633874 59.7961927,69.8577576 56.2753695,72.6547542 C60.2054897,76.715115 62.5730994,81.9319961 62.5730994,87.6470588 C62.5730994,100.707459 50.2084699,111.166151 35.0877193,111.166151 C19.9669687,111.166151 7.60233918,100.707459 7.60233918,87.6470588 C7.60233918,81.6824144 10.1812554,76.2604137 14.423837,72.1294676 C11.1755096,69.4248808 8.35308145,66.1161095 6.08728563,62.3529412 Z M6.08728563,17.6470588 C8.35308145,13.8838905 11.1755096,10.5751192 14.423837,7.87053235 C10.1812554,3.73958625 7.60233918,-1.68241436 7.60233918,-7.64705882 C7.60233918,-20.7074594 19.9669687,-31.1661507 35.0877193,-31.1661507 C50.2084699,-31.1661507 62.5730994,-20.7074594 62.5730994,-7.64705882 C62.5730994,-1.93199607 60.2054897,3.28488497 56.2753695,7.34524577 C59.7961927,10.1422424 62.8430623,13.6366126 65.2577436,17.6470588 L61.0906713,17.6470588 C58.9891223,14.5789029 56.4657357,11.9022484 53.6207449,9.72808565 C52.4828736,10.6164085 51.2576471,11.4236953 49.9576887,12.1396294 C50.6875323,13.8489683 51.3492567,15.6911733 51.9350219,17.6470588 L49.4817156,17.6470588 C48.9885703,16.0690439 48.44573,14.5781242 47.8591712,13.1862051 C44.6919773,14.6091186 41.1631047,15.5184557 37.4269006,15.7880047 L37.4269006,17.6470588 L33.9181287,17.6470588 L33.9181287,15.851107 C30.138949,15.7156349 26.5512479,14.9267218 23.3095703,13.6107407 C22.7902117,14.8800132 22.3066784,16.2283365 21.8633137,17.6470588 L19.4100074,17.6470588 C19.9386145,15.8820254 20.5290802,14.2095694 21.1756428,12.6437903 C19.7459521,11.9253646 18.3984106,11.0993693 17.1485036,10.1784668 C14.538126,12.2680153 12.2130282,14.7874978 10.2543583,17.6470574 L6.08728563,17.6470588 Z M30.1580162,79.5157211 C25.4990044,78.7066365 21.1420614,76.8884553 17.2678871,74.2682143 C13.4361026,77.8234121 11.1111111,82.5228811 11.1111111,87.6470588 C11.1111111,98.6272886 21.7867986,107.657379 35.0877193,107.657379 C48.38864,107.657379 59.0643275,98.6272886 59.0643275,87.6470588 C59.0643275,82.7392389 56.931527,78.2210201 53.3847987,74.7246128 C49.6866018,77.0999686 45.5705059,78.7544834 41.1870113,79.5157214 C39.4491807,80.5919231 37.6002359,81.1695906 35.6725146,81.1695906 C33.7447934,81.1695906 31.8958488,80.5919232 30.1580182,79.5157215 Z M17.2678871,5.73178565 C21.1420614,3.11154468 25.4990044,1.29336347 30.1580162,0.484278931 C31.8958488,-0.591923184 33.7447934,-1.16959064 35.6725146,-1.16959064 C37.6002359,-1.16959064 39.4491807,-0.591923122 41.1870113,0.484278634 C45.5705059,1.24551657 49.6866018,2.90003139 53.3847987,5.27538717 C56.931527,1.77897993 59.0643275,-2.73923894 59.0643275,-7.64705882 C59.0643275,-18.6272886 48.38864,-27.6573787 35.0877193,-27.6573787 C21.7867986,-27.6573787 11.1111111,-18.6272886 11.1111111,-7.64705882 C11.1111111,-2.5228811 13.4361026,2.17658788 17.2678871,5.73178565 Z M33.9181287,76.427417 L33.9181287,67.6601132 C30.6525301,67.7909447 27.5637628,68.4666904 24.7754249,69.5786521 C26.074432,72.093375 27.5340208,74.1723892 29.1052906,75.7182869 C30.6714635,76.0874318 32.2788183,76.3272124 33.9181287,76.427417 Z M24.9768793,74.41207 C24.1508648,73.2494427 23.3714572,71.9547405 22.6444956,70.5422518 C21.7877322,70.9779386 20.9665056,71.4571505 20.1851273,71.9760957 C21.7115618,72.9294469 23.3131392,73.7462295 24.9768793,74.41207 Z M20.1851273,8.02390429 C20.9665056,8.54284955 21.7877322,9.02206143 22.6444956,9.45774821 C23.3714572,8.04525953 24.1508648,6.75055727 24.9768793,5.58792997 C23.3131392,6.25377051 21.7115618,7.07055311 20.1851273,8.02390429 Z M29.1052906,4.2817131 C27.5340208,5.82761081 26.074432,7.90662496 24.7754249,10.4213479 C27.5637628,11.5333096 30.6525301,12.2090553 33.9181287,12.3398868 L33.9181287,3.57258298 C32.2788183,3.67278759 30.6714635,3.91256817 29.105284,4.28171527 Z M37.4269006,3.57258298 L37.4269006,12.2692874 C40.634484,12.0101492 43.6520108,11.2236831 46.3574556,10.017204 C45.1124041,7.68332163 43.7260356,5.74401018 42.2397388,4.28171332 C40.6735647,3.91256801 39.0662104,3.67278755 37.4269006,3.57258298 Z M46.3681499,5.58792996 C47.0979914,6.61519227 47.791447,7.7455649 48.444489,8.96919163 C49.1727204,8.56006558 49.8724353,8.11853004 50.5407275,7.6471409 C49.2020665,6.8538403 47.8084012,6.16432885 46.3681523,5.58793091 Z M50.5407275,72.3528591 C49.8724353,71.88147 49.1727204,71.4399344 48.444489,71.0308084 C47.791447,72.2544351 47.0979914,73.3848077 46.3681499,74.41207 C47.8084012,73.8356711 49.2020665,73.1461597 50.5407275,72.3528591 Z M42.2397388,75.7182867 C43.7260356,74.2559898 45.1124041,72.3166784 46.3574556,69.982796 C43.6520108,68.7763169 40.634484,67.9898508 37.4269006,67.7307126 L37.4269006,76.427417 C39.0662104,76.3272124 40.6735647,76.087432 42.2397436,75.7182851 Z" id="合并形状" fill="#3D3E49" fill-rule="nonzero" mask="url(#mask-2)"></path>
                            </g>
                        </g>
                        <path d="M41.1111111,24.7871166 L41.1111111,23.1935217 L46.6666667,23.1935217 L46.6666667,33.4183998 L41.1111111,33.4183998 C38.8888889,31.1295626 37.7777778,28.8740095 34.4444444,28.3059607 C31.1111111,27.737912 28.6447482,29.0326637 28.6447482,31.1295626 C28.6447482,32.7471703 30.0217013,33.7357083 33.0099827,34.4246893 L39.0744358,35.7726956 C45.343967,37.1806134 48.156467,41.2246326 48.156467,44.8193163 C48.156467,51.4095696 45.1334636,56.1403509 36.6666667,56.1403509 C33.3021966,56.1403509 30.2618503,55.1830902 27.7777778,53.6337963 L27.7777778,56.1403509 L21.1111111,56.1403509 L21.1111111,43.6432778 L27.7777778,43.6432778 C28.422309,45.8899551 31.0460069,49.3237655 34.4444444,49.3237655 C37.7549913,49.3237655 40.5555556,48.0423274 40.5555556,45.9154729 C40.5555556,44.2978652 38.4592013,43.2017086 35.6174046,42.572639 L29.7580296,41.2246326 C23.4884982,39.8167148 21.5527343,36.7612337 21.5527343,31.6687651 C21.5527343,25.4080245 26.6666667,22.4561404 33.8888889,22.4561404 C36.740856,22.4561404 39.1596667,23.3683399 41.1111111,24.7871166 Z M64.4444444,48.187668 C68.6777361,48.187668 72.2222222,44.4340387 72.2222222,39.6669363 C72.2222222,34.8998339 68.6777361,31.1462046 64.4444444,31.1462046 C60.2111528,31.1462046 56.6666667,34.8998339 56.6666667,39.6669363 C56.6666667,44.4340387 60.2111528,48.187668 64.4444444,48.187668 Z M64.4444444,56.1403509 C55.8533483,56.1403509 48.8888889,48.764952 48.8888889,39.6669363 C48.8888889,30.5689206 55.8533483,23.1935217 64.4444444,23.1935217 C73.0355406,23.1935217 80,30.5689206 80,39.6669363 C80,48.764952 73.0355406,56.1403509 64.4444444,56.1403509 Z M13.3333333,30.0101071 L13.3333333,49.3237655 L17.7777778,49.3237655 L17.7777778,56.1403509 L0,56.1403509 L0,49.3237655 L5.55555556,49.3237655 L5.55555556,30.0101071 L0,30.0101071 L0,23.1935217 L17.7777778,23.1935217 L17.7777778,30.0101071 L13.3333333,30.0101071 Z" id="Combined-Shape" fill="#00AA71" fill-rule="nonzero"></path>
                    </g>
                </g>
            </g>
        </g>
    </g>
</svg>
