<?xml version="1.0" encoding="UTF-8"?>
<svg width="72px" height="21px" viewBox="0 0 72 21" version="1.1" xmlns="http://www.w3.org/2000/svg" xmlns:xlink="http://www.w3.org/1999/xlink">
    <!-- Generator: Sketch 52.5 (67469) - http://www.bohemiancoding.com/sketch -->
    <title>tittle</title>
    <desc>Created with Sketch.</desc>
    <g id="Page-1" stroke="none" stroke-width="1" fill="none" fill-rule="evenodd">
        <g id="01首页_01基础信息资源" transform="translate(-464.000000, -430.000000)">
            <g id="item_01" transform="translate(360.000000, 419.000000)">
                <g id="mes">
                    <g id="tittle" transform="translate(104.000000, 10.000000)">
                        <rect id="矩形" fill-rule="nonzero" x="0" y="0" width="72" height="28"></rect>
                        <circle id="椭圆形" fill="#86DBA2" fill-rule="nonzero" cx="9" cy="10" r="9"></circle>
                        <path d="M18.3799166,6.32723716 L19.7166347,6.32723716 C19.8582841,6.36779103 19.9291077,6.46917419 19.9291077,6.63138968 C19.9291077,7.07748228 19.8228722,7.38163176 19.6103981,7.54384725 L16.0514747,9.73374541 L16.1437061,9.81296224 L19.2302866,9.81296224 C20.062958,9.77572797 20.3916392,10.1108314 20.2163399,10.8182827 L19.0330759,19.3076555 L16.2721266,19.3076555 L15.8119684,18.0789305 L17.5211275,18.0789305 L17.784075,16.4033964 L15.5490208,16.4033964 L15.1545995,19.0283999 L13.3797035,19.0283999 L13.8398617,16.4033964 L11.6048075,16.4033964 L11.1446493,19.3076555 L9.50122708,19.3076555 L11.0789124,9.81296224 L13.8638182,9.81296224 L12.014487,7.96966078 L13.9798626,7.96966078 L14.9359913,8.82128785 C15.8780817,8.36885738 16.5854439,7.99109793 17.0580924,7.68800141 L10.2759698,7.68800141 L10.4705115,6.31339393 L18.3818758,6.31339393 L18.3799166,6.32723716 Z M14.6944413,10.9858361 L12.525124,10.9858361 L12.2621764,12.4938168 L14.4314937,12.4938168 L14.6944413,10.9858361 Z M18.5729177,10.9858361 L16.4036004,10.9858361 L16.1406528,12.4938168 L18.375707,12.4938168 L18.5729177,10.9858361 Z M11.8020182,15.2305225 L14.0370724,15.2305225 L14.3000199,13.6108396 L12.0649657,13.6108396 L11.8020182,15.2305225 Z M15.7462315,15.2305225 L17.9812857,15.2305225 L18.1784964,13.6108396 L15.9434422,13.6108396 L15.7462315,15.2305225 Z M9.75701555,10.2565496 L7.76947447,10.2565496 L6.33022058,6 L8.18068986,6 C8.63759814,7.41885698 9.16303478,8.83769267 9.75701555,10.2565496 Z M7.97508216,18.4950328 C8.56906293,19.0442678 9.48286578,19.4333034 10.7165181,19.6621513 C11.9501705,19.9367688 13.4579452,20.0740754 15.2398875,20.0740754 L20.1744723,20.0740754 L19.6261851,21.7904261 L15.1713516,21.7904261 C13.3437185,21.7904261 11.8130987,21.630235 10.5794463,21.3098479 C9.30010315,21.0352304 8.18069466,20.5546571 7.22118727,19.8681134 L6.05607698,21.7904261 L4,21.7904261 L6.94704367,16.5727201 L7.42679497,13.3459808 C7.42679497,13.2544417 7.4039499,13.1857883 7.35825907,13.1400188 C7.31256824,13.0942492 7.24403303,13.0713647 7.15265137,13.0713647 L5.43925389,13.0713647 L5.71339748,11.4923221 L8.38629756,11.4923221 C8.75182418,11.4923221 9.00311997,11.5609755 9.14019245,11.6982842 C9.27726494,11.8355929 9.32295508,12.0873219 9.27726425,12.4534785 L8.66044116,17.1219523 C8.43198702,17.6254177 8.2035363,18.0831066 7.97508216,18.4950328 Z M26.2072974,16.0077569 L27.642615,16.0077569 C27.9470779,17.5689622 28.3167772,19.3138124 28.7517241,21.2423601 L26.7944728,21.2423601 C26.5769993,20.1403328 26.3377821,18.5332339 26.076814,16.4210151 C25.7723511,17.2475355 25.3809048,18.1429192 24.9024631,19.107193 C24.3805268,20.0714668 23.7716103,21.0357262 23.0756952,22 L20.9227188,22 C21.6186338,21.081644 22.2710444,20.1403432 22.8799701,19.1760694 C23.4454011,18.2117955 23.9020885,17.2934533 24.250046,16.4210151 C24.5980036,15.5485769 24.8589678,14.7909445 25.0329466,14.1480953 L22.227553,14.1480953 L22.4885198,12.6328154 L25.3591551,12.6328154 C25.5766286,11.5307882 25.7071107,10.4287775 25.7506054,9.32675028 L25.16343,9.32675028 C24.8589672,10.1532707 24.5327619,10.8879445 24.1848043,11.5307937 L22.3580364,11.5307937 C22.836478,10.7501911 23.2931654,9.87776596 23.7281123,8.91349214 C24.1195646,7.94921832 24.4457699,7.00791752 24.706738,6.0895615 L26.4030225,6.0895615 L25.8158471,7.81147043 L29.8608332,7.81147043 L29.6651081,9.32675028 L27.5121316,9.32675028 C27.4251422,10.5665309 27.2946601,11.6685416 27.1206813,12.6328154 L29.6651081,12.6328154 L29.4693829,14.1480953 L26.7944728,14.1480953 C26.5769993,14.9746157 26.3812761,15.5944967 26.2072974,16.0077569 Z M53.5820225,6.32723716 L54.9187406,6.32723716 C55.06039,6.36779103 55.1312136,6.46917419 55.1312136,6.63138968 C55.1312136,7.07748228 55.0249781,7.38163176 54.812504,7.54384725 L51.2535807,9.73374541 L51.345812,9.81296224 L54.4323925,9.81296224 C55.2650639,9.77572797 55.5937451,10.1108314 55.4184458,10.8182827 L54.2351818,19.3076555 L51.4742325,19.3076555 L51.0140743,18.0789305 L52.7232334,18.0789305 L52.9861809,16.4033964 L50.7511267,16.4033964 L50.3567054,19.0283999 L48.5818094,19.0283999 L49.0419676,16.4033964 L46.8069134,16.4033964 L46.3467552,19.3076555 L44.703333,19.3076555 L46.2810183,9.81296224 L49.0659241,9.81296224 L47.2165929,7.96966078 L49.1819685,7.96966078 L50.1380972,8.82128785 C51.0801876,8.36885738 51.7875498,7.99109793 52.2601983,7.68800141 L45.4780757,7.68800141 L45.6726174,6.31339393 L53.5839817,6.31339393 L53.5820225,6.32723716 Z M35.9040906,8.66338694 L34.322746,20.0724898 L31.4350733,20.0724898 L33.0164179,8.45719833 L35.8353365,8.45719833 C35.9270088,8.45719833 35.9499269,8.52592718 35.9040906,8.66338694 Z M36.9354023,7.0138781 C37.3479291,7.0138781 37.6229428,7.08260695 37.7604517,7.2200667 C37.8979606,7.35752646 37.9208784,7.65535147 37.8292058,8.11355066 L35.9728447,21.51581 L29.3724499,21.51581 L31.4350733,7.0138781 L36.9354023,7.0138781 Z M49.8965472,10.9858361 L47.7272299,10.9858361 L47.4642823,12.4938168 L49.6335996,12.4938168 L49.8965472,10.9858361 Z M53.7750236,10.9858361 L51.6057063,10.9858361 L51.3427587,12.4938168 L53.5778129,12.4938168 L53.7750236,10.9858361 Z M47.0041241,15.2305225 L49.2391783,15.2305225 L49.5021259,13.6108396 L47.2670716,13.6108396 L47.0041241,15.2305225 Z M50.9483374,15.2305225 L53.1833916,15.2305225 L53.3806023,13.6108396 L51.1455481,13.6108396 L50.9483374,15.2305225 Z M44.9591215,10.2565496 L42.9715804,10.2565496 L41.5323265,6 L43.3827958,6 C43.8397041,7.41885698 44.3651407,8.83769267 44.9591215,10.2565496 Z M43.1771881,18.4950328 C43.7711688,19.0442678 44.6849717,19.4333034 45.918624,19.6621513 C47.1522764,19.9367688 48.6600511,20.0740754 50.4419934,20.0740754 L55.3765782,20.0740754 L54.828291,21.7904261 L50.3734575,21.7904261 C48.5458244,21.7904261 47.0152046,21.630235 45.7815523,21.3098479 C44.5022091,21.0352304 43.3828006,20.5546571 42.4232932,19.8681134 L41.2581829,21.7904261 L39.2021059,21.7904261 L42.1491496,16.5727201 L42.6289009,13.3459808 C42.6289009,13.2544417 42.6060558,13.1857883 42.560365,13.1400188 C42.5146742,13.0942492 42.4461389,13.0713647 42.3547573,13.0713647 L40.6413598,13.0713647 L40.9155034,11.4923221 L43.5884035,11.4923221 C43.9539301,11.4923221 44.2052259,11.5609755 44.3422984,11.6982842 C44.4793708,11.8355929 44.525061,12.0873219 44.4793702,12.4534785 L43.8625471,17.1219523 C43.6340929,17.6254177 43.4056422,18.0831066 43.1771881,18.4950328 Z M66.0871463,10.1067072 L65.8808839,12.0998637 L72,12.0998637 L71.7937377,13.8181021 L57.7678986,13.8181021 L57.9741609,12.0998637 L64.0245229,12.0998637 L64.2307852,10.1067072 L61.1368501,10.1067072 L60.1055384,11.4812979 L57.7678986,11.4812979 C58.2720979,10.9314588 58.7992075,10.3358088 59.3492432,9.69432997 C59.8534425,9.0528511 60.3805521,8.15937608 60.9305878,7.0138781 L63.1307194,7.0138781 L62.3744242,8.31973926 L64.4370476,8.31973926 L64.6433099,6.25785321 L66.4309168,6.25785321 L66.2934086,8.31973926 L71.381213,8.31973926 L71.2437048,10.1067072 L66.0871463,10.1067072 Z M69.9798989,21.5533461 L58.1466631,21.5533461 L58.9307932,15.2133318 L69.3383379,15.2133318 C69.8610939,15.2133318 70.2175131,15.3231145 70.4076062,15.5426832 C70.550176,15.817144 70.5739373,16.2837205 70.4788908,16.9424266 L69.9798989,21.5533461 Z M60.5703379,16.8600887 L60.2139151,19.9065891 L68.3403542,19.9065891 L68.5542078,17.1894401 C68.6017311,16.9698714 68.5304473,16.8600887 68.3403542,16.8600887 L60.5703379,16.8600887 Z" id="通知通告" fill="#FFFFFF"></path>
                    </g>
                </g>
            </g>
        </g>
    </g>
</svg>